Roman_opsz5.ufo
<glyph name="exclam" format="2">
	<unicode hex="0021"/>
	<advance width="804"/>
	<outline>
		<contour>
			<point x="402" y="396" type="curve" smooth="yes"/>
			<point x="442" y="396"/>
			<point x="444" y="412"/>
			<point x="446" y="444" type="curve" smooth="yes"/>
			<point x="472" y="734"/>
			<point x="498" y="1025"/>
			<point x="524" y="1316" type="curve"/>
			<point x="524" y="1390"/>
			<point x="460" y="1432"/>
			<point x="402" y="1432" type="curve" smooth="yes"/>
			<point x="344" y="1432"/>
			<point x="280" y="1390"/>
			<point x="280" y="1316" type="curve"/>
			<point x="306" y="1026"/>
			<point x="332" y="735"/>
			<point x="358" y="444" type="curve" smooth="yes"/>
			<point x="360" y="412"/>
			<point x="362" y="396"/>
		</contour>
		<contour>
			<point x="402" y="0" type="curve" smooth="yes"/>
			<point x="468" y="0"/>
			<point x="524" y="54"/>
			<point x="524" y="122" type="curve" smooth="yes"/>
			<point x="524" y="190"/>
			<point x="470" y="244"/>
			<point x="402" y="244" type="curve" smooth="yes"/>
			<point x="336" y="244"/>
			<point x="280" y="190"/>
			<point x="280" y="122" type="curve" smooth="yes"/>
			<point x="280" y="54"/>
			<point x="334" y="0"/>
		</contour>
	</outline>
</glyph>
<glyph name="numbersign" format="2">
	<unicode hex="0023"/>
	<advance width="2194"/>
	<outline>
		<contour>
			<point x="528" y="-388" type="curve" smooth="yes"/>
			<point x="568" y="-388"/>
			<point x="580" y="-354"/>
			<point x="586" y="-336" type="curve" smooth="yes"/>
			<point x="770" y="206" type="line"/>
			<point x="1220" y="206" type="line"/>
			<point x="1163" y="39"/>
			<point x="1107" y="-128"/>
			<point x="1050" y="-296" type="curve" smooth="yes"/>
			<point x="1040" y="-322"/>
			<point x="1040" y="-326"/>
			<point x="1040" y="-332" type="curve" smooth="yes"/>
			<point x="1040" y="-362"/>
			<point x="1064" y="-388"/>
			<point x="1096" y="-388" type="curve" smooth="yes"/>
			<point x="1136" y="-388"/>
			<point x="1148" y="-354"/>
			<point x="1154" y="-336" type="curve" smooth="yes"/>
			<point x="1338" y="206" type="line"/>
			<point x="1910" y="206" type="line" smooth="yes"/>
			<point x="1940" y="206"/>
			<point x="1998" y="206"/>
			<point x="1998" y="262" type="curve" smooth="yes"/>
			<point x="1998" y="318"/>
			<point x="1948" y="318"/>
			<point x="1920" y="318" type="curve" smooth="yes"/>
			<point x="1378" y="318" type="line"/>
			<point x="1500" y="682" type="line"/>
			<point x="1920" y="682" type="line" smooth="yes"/>
			<point x="1948" y="682"/>
			<point x="1998" y="682"/>
			<point x="1998" y="738" type="curve" smooth="yes"/>
			<point x="1998" y="794"/>
			<point x="1940" y="794"/>
			<point x="1910" y="794" type="curve" smooth="yes"/>
			<point x="1540" y="794" type="line"/>
			<point x="1710" y="1296" type="line" smooth="yes"/>
			<point x="1720" y="1322"/>
			<point x="1720" y="1326"/>
			<point x="1720" y="1332" type="curve" smooth="yes"/>
			<point x="1720" y="1362"/>
			<point x="1696" y="1388"/>
			<point x="1664" y="1388" type="curve" smooth="yes"/>
			<point x="1624" y="1388"/>
			<point x="1612" y="1354"/>
			<point x="1606" y="1336" type="curve" smooth="yes"/>
			<point x="1422" y="794" type="line"/>
			<point x="972" y="794" type="line"/>
			<point x="1142" y="1296" type="line" smooth="yes"/>
			<point x="1152" y="1322"/>
			<point x="1152" y="1326"/>
			<point x="1152" y="1332" type="curve" smooth="yes"/>
			<point x="1152" y="1362"/>
			<point x="1128" y="1388"/>
			<point x="1096" y="1388" type="curve" smooth="yes"/>
			<point x="1056" y="1388"/>
			<point x="1044" y="1354"/>
			<point x="1038" y="1336" type="curve" smooth="yes"/>
			<point x="854" y="794" type="line"/>
			<point x="282" y="794" type="line" smooth="yes"/>
			<point x="252" y="794"/>
			<point x="194" y="794"/>
			<point x="194" y="738" type="curve" smooth="yes"/>
			<point x="194" y="682"/>
			<point x="246" y="682"/>
			<point x="272" y="682" type="curve" smooth="yes"/>
			<point x="814" y="682" type="line"/>
			<point x="692" y="318" type="line"/>
			<point x="272" y="318" type="line" smooth="yes"/>
			<point x="244" y="318"/>
			<point x="194" y="318"/>
			<point x="194" y="262" type="curve" smooth="yes"/>
			<point x="194" y="206"/>
			<point x="252" y="206"/>
			<point x="282" y="206" type="curve" smooth="yes"/>
			<point x="652" y="206" type="line"/>
			<point x="595" y="39"/>
			<point x="539" y="-128"/>
			<point x="482" y="-296" type="curve" smooth="yes"/>
			<point x="472" y="-322"/>
			<point x="472" y="-326"/>
			<point x="472" y="-332" type="curve" smooth="yes"/>
			<point x="472" y="-362"/>
			<point x="496" y="-388"/>
		</contour>
		<contour>
			<point x="810" y="318" type="line"/>
			<point x="932" y="682" type="line"/>
			<point x="1382" y="682" type="line"/>
			<point x="1260" y="318" type="line"/>
		</contour>
	</outline>
</glyph>
<glyph name="percent" format="2">
	<unicode hex="0025"/>
	<advance width="2194"/>
	<outline>
		<contour>
			<point x="1766" y="1396" type="line" smooth="yes"/>
			<point x="1782" y="1414"/>
			<point x="1788" y="1428"/>
			<point x="1788" y="1444" type="curve" smooth="yes"/>
			<point x="1788" y="1474"/>
			<point x="1764" y="1500"/>
			<point x="1732" y="1500" type="curve" smooth="yes"/>
			<point x="1708" y="1500"/>
			<point x="1700" y="1490"/>
			<point x="1674" y="1462" type="curve" smooth="yes"/>
			<point x="1542" y="1322"/>
			<point x="1382" y="1274"/>
			<point x="1222" y="1274" type="curve" smooth="yes"/>
			<point x="1104" y="1274"/>
			<point x="932" y="1302"/>
			<point x="740" y="1434" type="curve" smooth="yes"/>
			<point x="698" y="1464"/>
			<point x="646" y="1500"/>
			<point x="558" y="1500" type="curve" smooth="yes"/>
			<point x="366" y="1500"/>
			<point x="194" y="1328"/>
			<point x="194" y="1098" type="curve" smooth="yes"/>
			<point x="194" y="860"/>
			<point x="370" y="694"/>
			<point x="558" y="694" type="curve" smooth="yes"/>
			<point x="742" y="694"/>
			<point x="888" y="872"/>
			<point x="888" y="1096" type="curve" smooth="yes"/>
			<point x="888" y="1206"/>
			<point x="850" y="1288"/>
			<point x="848" y="1294" type="curve"/>
			<point x="924" y="1260"/>
			<point x="1066" y="1208"/>
			<point x="1222" y="1208" type="curve" smooth="yes"/>
			<point x="1318" y="1208"/>
			<point x="1414" y="1224"/>
			<point x="1500" y="1260" type="curve"/>
			<point x="1502" y="1258" type="line"/>
			<point x="428" y="-8" type="line" smooth="yes"/>
			<point x="412" y="-26"/>
			<point x="404" y="-36"/>
			<point x="404" y="-56" type="curve" smooth="yes"/>
			<point x="404" y="-86"/>
			<point x="430" y="-112"/>
			<point x="460" y="-112" type="curve" smooth="yes"/>
			<point x="484" y="-112"/>
			<point x="492" y="-102"/>
			<point x="510" y="-82" type="curve" smooth="yes"/>
		</contour>
		<contour>
			<point x="562" y="760" type="curve" smooth="yes"/>
			<point x="418" y="760"/>
			<point x="356" y="908"/>
			<point x="356" y="1096" type="curve" smooth="yes"/>
			<point x="356" y="1278"/>
			<point x="412" y="1434"/>
			<point x="562" y="1434" type="curve" smooth="yes"/>
			<point x="686" y="1434"/>
			<point x="804" y="1292"/>
			<point x="804" y="1098" type="curve" smooth="yes"/>
			<point x="804" y="896"/>
			<point x="682" y="760"/>
		</contour>
		<contour>
			<point x="1672" y="-46" type="curve" smooth="yes"/>
			<point x="1532" y="-46"/>
			<point x="1466" y="94"/>
			<point x="1466" y="290" type="curve" smooth="yes"/>
			<point x="1466" y="482"/>
			<point x="1530" y="628"/>
			<point x="1672" y="628" type="curve" smooth="yes"/>
			<point x="1792" y="628"/>
			<point x="1914" y="492"/>
			<point x="1914" y="290" type="curve" smooth="yes"/>
			<point x="1914" y="96"/>
			<point x="1796" y="-46"/>
		</contour>
		<contour>
			<point x="1998" y="290" type="curve" smooth="yes"/>
			<point x="1998" y="520"/>
			<point x="1848" y="694"/>
			<point x="1668" y="694" type="curve" smooth="yes"/>
			<point x="1476" y="694"/>
			<point x="1304" y="522"/>
			<point x="1304" y="292" type="curve" smooth="yes"/>
			<point x="1304" y="54"/>
			<point x="1480" y="-112"/>
			<point x="1668" y="-112" type="curve" smooth="yes"/>
			<point x="1852" y="-112"/>
			<point x="1998" y="66"/>
		</contour>
	</outline>
</glyph>
<glyph name="ampersand" format="2">
  <advance width="1027"/>
  <unicode hex="0026"/>
  <outline>
    <contour>
      <point x="825" y="427" type="curve" smooth="yes"/>
      <point x="774" y="427"/>
      <point x="718" y="429"/>
      <point x="686" y="431" type="curve"/>
      <point x="686" y="387" type="line"/>
      <point x="725" y="387"/>
      <point x="750" y="374"/>
      <point x="750" y="352" type="curve" smooth="yes"/>
      <point x="750" y="342"/>
      <point x="746" y="336"/>
      <point x="742" y="331" type="curve" smooth="yes"/>
      <point x="675" y="238"/>
      <point x="615" y="172"/>
      <point x="557" y="121" type="curve"/>
      <point x="474" y="202"/>
      <point x="403" y="286"/>
      <point x="360" y="374" type="curve"/>
      <point x="400" y="406"/>
      <point x="521" y="502"/>
      <point x="521" y="580" type="curve" smooth="yes"/>
      <point x="521" y="635"/>
      <point x="486" y="716"/>
      <point x="403" y="716" type="curve" smooth="yes"/>
      <point x="324" y="716"/>
      <point x="230" y="656"/>
      <point x="230" y="545" type="curve" smooth="yes"/>
      <point x="230" y="466"/>
      <point x="255" y="390"/>
      <point x="275" y="347" type="curve"/>
      <point x="235.373" y="315.365"/>
      <point x="195.74599999999998" y="283.73"/>
      <point x="156" y="252" type="curve" smooth="yes"/>
      <point x="118" y="222"/>
      <point x="80" y="191"/>
      <point x="80" y="133" type="curve" smooth="yes"/>
      <point x="80" y="34"/>
      <point x="186" y="-22"/>
      <point x="306" y="-22" type="curve" smooth="yes"/>
      <point x="410" y="-22"/>
      <point x="486" y="23"/>
      <point x="527" y="49" type="curve"/>
      <point x="562" y="28"/>
      <point x="646" y="-22"/>
      <point x="753" y="-22" type="curve" smooth="yes"/>
      <point x="840" y="-22"/>
      <point x="927" y="27"/>
      <point x="930" y="121" type="curve"/>
      <point x="888" y="121" type="line"/>
      <point x="884" y="42"/>
      <point x="801" y="22"/>
      <point x="756" y="22" type="curve" smooth="yes"/>
      <point x="687" y="22"/>
      <point x="630" y="58"/>
      <point x="587" y="94" type="curve"/>
      <point x="659" y="157"/>
      <point x="715" y="226"/>
      <point x="802" y="342" type="curve" smooth="yes"/>
      <point x="817" y="361"/>
      <point x="860" y="387"/>
      <point x="936" y="387" type="curve"/>
      <point x="936.0" y="387.0"/>
      <point x="936.0" y="387.0"/>
      <point x="936" y="387" type="curve"/>
      <point x="936" y="431" type="line"/>
      <point x="892" y="427"/>
      <point x="867" y="427"/>
    </contour>
    <contour>
      <point x="289" y="317" type="curve"/>
      <point x="302" y="292"/>
      <point x="371" y="164"/>
      <point x="492" y="75" type="curve"/>
      <point x="439" y="43"/>
      <point x="380" y="22"/>
      <point x="318" y="22" type="curve" smooth="yes"/>
      <point x="231" y="22"/>
      <point x="180" y="93"/>
      <point x="180" y="161" type="curve" smooth="yes"/>
      <point x="180" y="229"/>
      <point x="216" y="263"/>
    </contour>
    <contour>
      <point x="347" y="406" type="curve"/>
      <point x="312" y="486"/>
      <point x="312" y="556"/>
      <point x="312" y="570" type="curve" smooth="yes"/>
      <point x="312" y="661"/>
      <point x="375" y="683"/>
      <point x="405" y="683" type="curve" smooth="yes"/>
      <point x="457" y="683"/>
      <point x="479" y="621"/>
      <point x="479" y="580" type="curve" smooth="yes"/>
      <point x="479" y="537"/>
      <point x="443" y="487"/>
    </contour>
  </outline>
</glyph>
<glyph name="parenleft" format="2">
	<unicode hex="0028"/>
	<advance width="1082"/>
	<outline>
		<contour>
			<point x="300" y="500" type="curve" smooth="yes"/>
			<point x="300" y="88"/>
			<point x="489" y="-191"/>
			<point x="647" y="-348" type="curve" smooth="yes"/>
			<point x="749" y="-450"/>
			<point x="838" y="-500"/>
			<point x="854" y="-500" type="curve" smooth="yes"/>
			<point x="884" y="-500"/>
			<point x="888" y="-480"/>
			<point x="888" y="-472" type="curve" smooth="yes"/>
			<point x="888" y="-458"/>
			<point x="880" y="-452"/>
			<point x="872" y="-446" type="curve" smooth="yes"/>
			<point x="518" y="-164"/>
			<point x="454" y="242"/>
			<point x="454" y="500" type="curve" smooth="yes"/>
			<point x="454" y="990"/>
			<point x="680" y="1312"/>
			<point x="882" y="1452" type="curve"/>
			<point x="882" y="1454"/>
			<point x="888" y="1462"/>
			<point x="888" y="1472" type="curve" smooth="yes"/>
			<point x="888" y="1480"/>
			<point x="884" y="1500"/>
			<point x="854" y="1500" type="curve" smooth="yes"/>
			<point x="838" y="1500"/>
			<point x="751" y="1451"/>
			<point x="650" y="1352" type="curve" smooth="yes"/>
			<point x="491" y="1196"/>
			<point x="300" y="915"/>
		</contour>
	</outline>
</glyph>
<glyph name="parenright" format="2">
	<unicode hex="0029"/>
	<advance width="1082"/>
	<outline>
		<contour>
			<point x="782" y="498" type="curve" smooth="yes"/>
			<point x="782" y="906"/>
			<point x="595" y="1186"/>
			<point x="438" y="1344" type="curve" smooth="yes"/>
			<point x="335" y="1447"/>
			<point x="244" y="1498"/>
			<point x="228" y="1498" type="curve" smooth="yes"/>
			<point x="196" y="1498"/>
			<point x="196" y="1476"/>
			<point x="196" y="1472" type="curve" smooth="yes"/>
			<point x="196" y="1470"/>
			<point x="196" y="1458"/>
			<point x="208" y="1446" type="curve"/>
			<point x="508" y="1208"/>
			<point x="628" y="860"/>
			<point x="628" y="500" type="curve" smooth="yes"/>
			<point x="628" y="-4"/>
			<point x="398" y="-308"/>
			<point x="206" y="-450" type="curve"/>
			<point x="200" y="-454"/>
			<point x="196" y="-464"/>
			<point x="196" y="-472" type="curve" smooth="yes"/>
			<point x="196" y="-476"/>
			<point x="196" y="-500"/>
			<point x="228" y="-500" type="curve" smooth="yes"/>
			<point x="244" y="-500"/>
			<point x="340" y="-447"/>
			<point x="447" y="-338" type="curve" smooth="yes"/>
			<point x="602" y="-180"/>
			<point x="782" y="95"/>
		</contour>
	</outline>
</glyph>
<glyph name="asterisk" format="2">
	<unicode hex="002A"/>
	<advance width="1360"/>
	<outline>
		<contour>
			<point x="680" y="638" type="curve" smooth="yes"/>
			<point x="724" y="638"/>
			<point x="752" y="672"/>
			<point x="752" y="702" type="curve"/>
			<point x="739" y="807"/>
			<point x="727" y="911"/>
			<point x="714" y="1016" type="curve"/>
			<point x="1024" y="828" type="line" smooth="yes"/>
			<point x="1046" y="814"/>
			<point x="1050" y="812"/>
			<point x="1068" y="812" type="curve" smooth="yes"/>
			<point x="1106" y="812"/>
			<point x="1138" y="846"/>
			<point x="1138" y="886" type="curve" smooth="yes"/>
			<point x="1138" y="934"/>
			<point x="1108" y="944"/>
			<point x="1080" y="954" type="curve" smooth="yes"/>
			<point x="762" y="1068" type="line"/>
			<point x="1082" y="1184" type="line" smooth="yes"/>
			<point x="1104" y="1192"/>
			<point x="1138" y="1204"/>
			<point x="1138" y="1252" type="curve" smooth="yes"/>
			<point x="1138" y="1292"/>
			<point x="1106" y="1326"/>
			<point x="1068" y="1326" type="curve" smooth="yes"/>
			<point x="1062" y="1326"/>
			<point x="1046" y="1326"/>
			<point x="1024" y="1312" type="curve" smooth="yes"/>
			<point x="714" y="1122" type="line"/>
			<point x="727" y="1227"/>
			<point x="739" y="1331"/>
			<point x="752" y="1436" type="curve"/>
			<point x="752" y="1466"/>
			<point x="724" y="1500"/>
			<point x="680" y="1500" type="curve" smooth="yes"/>
			<point x="636" y="1500"/>
			<point x="608" y="1466"/>
			<point x="608" y="1436" type="curve"/>
			<point x="621" y="1331"/>
			<point x="633" y="1227"/>
			<point x="646" y="1122" type="curve"/>
			<point x="336" y="1310" type="line" smooth="yes"/>
			<point x="314" y="1324"/>
			<point x="310" y="1326"/>
			<point x="292" y="1326" type="curve" smooth="yes"/>
			<point x="254" y="1326"/>
			<point x="222" y="1292"/>
			<point x="222" y="1252" type="curve" smooth="yes"/>
			<point x="222" y="1204"/>
			<point x="252" y="1194"/>
			<point x="280" y="1184" type="curve" smooth="yes"/>
			<point x="598" y="1070" type="line"/>
			<point x="278" y="954" type="line" smooth="yes"/>
			<point x="256" y="946"/>
			<point x="222" y="934"/>
			<point x="222" y="886" type="curve" smooth="yes"/>
			<point x="222" y="846"/>
			<point x="254" y="812"/>
			<point x="292" y="812" type="curve" smooth="yes"/>
			<point x="298" y="812"/>
			<point x="314" y="812"/>
			<point x="336" y="826" type="curve" smooth="yes"/>
			<point x="646" y="1016" type="line"/>
			<point x="633" y="911"/>
			<point x="621" y="807"/>
			<point x="608" y="702" type="curve"/>
			<point x="608" y="672"/>
			<point x="636" y="638"/>
		</contour>
	</outline>
</glyph>
<glyph name="plus" format="2">
	<unicode hex="002B"/>
	<advance width="2054"/>
	<outline>
		<contour>
			<point x="1084" y="444" type="line"/>
			<point x="1780" y="444" type="line" smooth="yes"/>
			<point x="1806" y="444"/>
			<point x="1860" y="444"/>
			<point x="1860" y="500" type="curve" smooth="yes"/>
			<point x="1860" y="556"/>
			<point x="1806" y="556"/>
			<point x="1780" y="556" type="curve" smooth="yes"/>
			<point x="1084" y="556" type="line"/>
			<point x="1084" y="1252" type="line" smooth="yes"/>
			<point x="1084" y="1280"/>
			<point x="1084" y="1334"/>
			<point x="1028" y="1334" type="curve" smooth="yes"/>
			<point x="972" y="1334"/>
			<point x="972" y="1280"/>
			<point x="972" y="1252" type="curve" smooth="yes"/>
			<point x="972" y="556" type="line"/>
			<point x="274" y="556" type="line" smooth="yes"/>
			<point x="248" y="556"/>
			<point x="194" y="556"/>
			<point x="194" y="500" type="curve" smooth="yes"/>
			<point x="194" y="444"/>
			<point x="248" y="444"/>
			<point x="274" y="444" type="curve" smooth="yes"/>
			<point x="972" y="444" type="line"/>
			<point x="972" y="-252" type="line" smooth="yes"/>
			<point x="972" y="-280"/>
			<point x="972" y="-334"/>
			<point x="1028" y="-334" type="curve" smooth="yes"/>
			<point x="1084" y="-334"/>
			<point x="1084" y="-280"/>
			<point x="1084" y="-252" type="curve" smooth="yes"/>
		</contour>
	</outline>
</glyph>
<glyph name="comma" format="2">
	<unicode hex="002C"/>
	<advance width="804"/>
	<outline>
		<contour>
			<point x="280" y="122" type="curve" smooth="yes"/>
			<point x="280" y="60"/>
			<point x="324" y="0"/>
			<point x="402" y="0" type="curve" smooth="yes"/>
			<point x="454" y="0"/>
			<point x="484" y="30"/>
			<point x="486" y="30" type="curve"/>
			<point x="486" y="-114"/>
			<point x="428" y="-234"/>
			<point x="320" y="-324" type="curve" smooth="yes"/>
			<point x="304" y="-338"/>
			<point x="302" y="-340"/>
			<point x="302" y="-354" type="curve" smooth="yes"/>
			<point x="302" y="-372"/>
			<point x="322" y="-388"/>
			<point x="336" y="-388" type="curve" smooth="yes"/>
			<point x="364" y="-388"/>
			<point x="552" y="-232"/>
			<point x="552" y="20" type="curve" smooth="yes"/>
			<point x="552" y="146"/>
			<point x="498" y="244"/>
			<point x="402" y="244" type="curve" smooth="yes"/>
			<point x="324" y="244"/>
			<point x="280" y="184"/>
		</contour>
	</outline>
</glyph>
<glyph name="hyphen" format="2">
	<unicode hex="002D"/>
	<advance width="944"/>
	<outline>
		<contour>
			<point x="748" y="354" type="line"/>
			<point x="748" y="508" type="line"/>
			<point x="84" y="508" type="line"/>
			<point x="84" y="354" type="line"/>
		</contour>
	</outline>
</glyph>
<glyph name="period" format="2">
	<unicode hex="002E"/>
	<advance width="402"/>
	<outline>
		<contour>
			<point x="262" y="61" type="curve" smooth="yes"/>
			<point x="262" y="95"/>
			<point x="235" y="122"/>
			<point x="201" y="122" type="curve" smooth="yes"/>
			<point x="168" y="122"/>
			<point x="140" y="95"/>
			<point x="140" y="61" type="curve" smooth="yes"/>
			<point x="140" y="27"/>
			<point x="167" y="0"/>
			<point x="201" y="0" type="curve" smooth="yes"/>
			<point x="234" y="0"/>
			<point x="262" y="27"/>
		</contour>
	</outline>
</glyph>
<glyph name="slash" format="2">
	<unicode hex="002F"/>
	<advance width="1360"/>
	<outline>
		<contour>
			<point x="1152" y="1404" type="line" smooth="yes"/>
			<point x="1166" y="1432"/>
			<point x="1166" y="1436"/>
			<point x="1166" y="1444" type="curve" smooth="yes"/>
			<point x="1166" y="1474"/>
			<point x="1142" y="1500"/>
			<point x="1110" y="1500" type="curve" smooth="yes"/>
			<point x="1090" y="1500"/>
			<point x="1070" y="1492"/>
			<point x="1052" y="1454" type="curve" smooth="yes"/>
			<point x="208" y="-404" type="line" smooth="yes"/>
			<point x="194" y="-432"/>
			<point x="194" y="-436"/>
			<point x="194" y="-444" type="curve" smooth="yes"/>
			<point x="194" y="-474"/>
			<point x="218" y="-500"/>
			<point x="250" y="-500" type="curve" smooth="yes"/>
			<point x="270" y="-500"/>
			<point x="290" y="-492"/>
			<point x="308" y="-454" type="curve" smooth="yes"/>
		</contour>
	</outline>
</glyph>
<glyph name="zero" format="2">
	<unicode hex="0030"/>
	<advance width="1360"/>
	<outline>
		<contour>
			<point x="680" y="-44" type="curve" smooth="yes"/>
			<point x="844" y="-44"/>
			<point x="956" y="10"/>
			<point x="1034" y="86" type="curve" smooth="yes"/>
			<point x="1202" y="256"/>
			<point x="1202" y="540"/>
			<point x="1202" y="640" type="curve" smooth="yes"/>
			<point x="1202" y="740"/>
			<point x="1202" y="1030"/>
			<point x="1030" y="1202" type="curve" smooth="yes"/>
			<point x="954" y="1280"/>
			<point x="842" y="1334"/>
			<point x="680" y="1334" type="curve" smooth="yes"/>
			<point x="518" y="1334"/>
			<point x="406" y="1281"/>
			<point x="329" y="1204" type="curve" smooth="yes"/>
			<point x="158" y="1033"/>
			<point x="158" y="741"/>
			<point x="158" y="642" type="curve" smooth="yes"/>
			<point x="158" y="542"/>
			<point x="158" y="256"/>
			<point x="326" y="86" type="curve" smooth="yes"/>
			<point x="404" y="10"/>
			<point x="516" y="-44"/>
		</contour>
		<contour>
			<point x="680" y="22" type="curve" smooth="yes"/>
			<point x="606" y="22"/>
			<point x="438" y="48"/>
			<point x="388" y="250" type="curve" smooth="yes"/>
			<point x="360" y="358"/>
			<point x="358" y="500"/>
			<point x="358" y="664" type="curve" smooth="yes"/>
			<point x="358" y="812"/>
			<point x="358" y="950"/>
			<point x="390" y="1064" type="curve" smooth="yes"/>
			<point x="440" y="1232"/>
			<point x="594" y="1266"/>
			<point x="680" y="1266" type="curve" smooth="yes"/>
			<point x="828" y="1266"/>
			<point x="934" y="1190"/>
			<point x="974" y="1050" type="curve" smooth="yes"/>
			<point x="1002" y="948"/>
			<point x="1002" y="782"/>
			<point x="1002" y="664" type="curve" smooth="yes"/>
			<point x="1002" y="528"/>
			<point x="1002" y="366"/>
			<point x="972" y="246" type="curve" smooth="yes"/>
			<point x="920" y="52"/>
			<point x="760" y="22"/>
		</contour>
	</outline>
</glyph>
<glyph name="one" format="2">
  <advance width="680"/>
  <unicode hex="0031"/>
  <outline>
    <contour>
      <point x="150" y="0" type="line"/>
      <point x="205" y="4"/>
      <point x="294" y="4"/>
      <point x="352" y="4" type="curve" smooth="yes"/>
      <point x="410" y="4"/>
      <point x="499" y="4"/>
      <point x="554" y="0" type="curve"/>
      <point x="554" y="44" type="line"/>
      <point x="504" y="44" type="line" smooth="yes"/>
      <point x="398" y="44"/>
      <point x="398" y="55"/>
      <point x="398" y="86" type="curve" smooth="yes"/>
      <point x="398" y="636" type="line" smooth="yes"/>
      <point x="398" y="666"/>
      <point x="395" y="666"/>
      <point x="362" y="666" type="curve"/>
      <point x="291" y="602"/>
      <point x="180" y="602"/>
      <point x="143" y="602" type="curve" smooth="yes"/>
      <point x="143" y="602"/>
      <point x="143" y="602"/>
      <point x="143" y="602" type="curve"/>
      <point x="143" y="587"/>
      <point x="143" y="573"/>
      <point x="143" y="558" type="curve"/>
      <point x="183" y="558"/>
      <point x="248" y="561"/>
      <point x="306" y="586" type="curve"/>
      <point x="306" y="86" type="line" smooth="yes"/>
      <point x="306" y="55"/>
      <point x="306" y="44"/>
      <point x="200" y="44" type="curve" smooth="yes"/>
      <point x="150" y="44" type="line"/>
    </contour>
  </outline>
</glyph>
<glyph name="three" format="2">
	<unicode hex="0033"/>
	<advance width="1360"/>
	<outline>
		<contour>
			<point x="668" y="-44" type="curve" smooth="yes"/>
			<point x="996" y="-44"/>
			<point x="1200" y="154"/>
			<point x="1200" y="348" type="curve" smooth="yes"/>
			<point x="1200" y="512"/>
			<point x="1054" y="652"/>
			<point x="826" y="704" type="curve"/>
			<point x="1066" y="782"/>
			<point x="1130" y="934"/>
			<point x="1130" y="1046" type="curve" smooth="yes"/>
			<point x="1130" y="1210"/>
			<point x="926" y="1332"/>
			<point x="674" y="1332" type="curve" smooth="yes"/>
			<point x="428" y="1332"/>
			<point x="230" y="1228"/>
			<point x="230" y="1048" type="curve" smooth="yes"/>
			<point x="230" y="954"/>
			<point x="306" y="930"/>
			<point x="344" y="930" type="curve" smooth="yes"/>
			<point x="402" y="930"/>
			<point x="458" y="972"/>
			<point x="458" y="1044" type="curve" smooth="yes"/>
			<point x="458" y="1090"/>
			<point x="434" y="1146"/>
			<point x="362" y="1158" type="curve"/>
			<point x="448" y="1250"/>
			<point x="626" y="1256"/>
			<point x="668" y="1256" type="curve" smooth="yes"/>
			<point x="814" y="1256"/>
			<point x="918" y="1182"/>
			<point x="918" y="1046" type="curve" smooth="yes"/>
			<point x="918" y="930"/>
			<point x="842" y="748"/>
			<point x="632" y="736" type="curve" smooth="yes"/>
			<point x="576" y="734"/>
			<point x="568" y="732"/>
			<point x="516" y="730" type="curve"/>
			<point x="494" y="728"/>
			<point x="472" y="726"/>
			<point x="472" y="696" type="curve" smooth="yes"/>
			<point x="472" y="662"/>
			<point x="492" y="662"/>
			<point x="528" y="662" type="curve" smooth="yes"/>
			<point x="660" y="662" type="line" smooth="yes"/>
			<point x="844" y="662"/>
			<point x="966" y="548"/>
			<point x="966" y="350" type="curve" smooth="yes"/>
			<point x="966" y="146"/>
			<point x="840" y="38"/>
			<point x="662" y="38" type="curve" smooth="yes"/>
			<point x="640" y="38"/>
			<point x="402" y="38"/>
			<point x="300" y="142" type="curve"/>
			<point x="382" y="154"/>
			<point x="406" y="216"/>
			<point x="406" y="264" type="curve" smooth="yes"/>
			<point x="406" y="338"/>
			<point x="350" y="386"/>
			<point x="284" y="386" type="curve" smooth="yes"/>
			<point x="220" y="386"/>
			<point x="160" y="344"/>
			<point x="160" y="260" type="curve" smooth="yes"/>
			<point x="160" y="52"/>
			<point x="396" y="-44"/>
		</contour>
	</outline>
</glyph>
<glyph name="four" format="2">
	<unicode hex="0034"/>
	<advance width="1360"/>
	<outline>
		<contour>
			<point x="792" y="326" type="line"/>
			<point x="792" y="170" type="line" smooth="yes"/>
			<point x="792" y="108"/>
			<point x="792" y="88"/>
			<point x="618" y="88" type="curve" smooth="yes"/>
			<point x="548" y="88" type="line"/>
			<point x="548" y="0" type="line"/>
			<point x="642" y="4"/>
			<point x="772" y="8"/>
			<point x="888" y="8" type="curve" smooth="yes"/>
			<point x="1004" y="8"/>
			<point x="1132" y="4"/>
			<point x="1228" y="0" type="curve"/>
			<point x="1228" y="88" type="line"/>
			<point x="1158" y="88" type="line" smooth="yes"/>
			<point x="984" y="88"/>
			<point x="984" y="108"/>
			<point x="984" y="170" type="curve" smooth="yes"/>
			<point x="984" y="326" type="line"/>
			<point x="1234" y="326" type="line"/>
			<point x="1234" y="414" type="line"/>
			<point x="984" y="414" type="line"/>
			<point x="984" y="1294" type="line" smooth="yes"/>
			<point x="984" y="1342"/>
			<point x="982" y="1354"/>
			<point x="930" y="1354" type="curve" smooth="yes"/>
			<point x="890" y="1354"/>
			<point x="888" y="1352"/>
			<point x="866" y="1324" type="curve" smooth="yes"/>
			<point x="126" y="414" type="line"/>
			<point x="126" y="326" type="line"/>
		</contour>
		<contour>
			<point x="220" y="414" type="line"/>
			<point x="808" y="1138" type="line"/>
			<point x="808" y="414" type="line"/>
		</contour>
	</outline>
</glyph>
<glyph name="five" format="2">
	<unicode hex="0035"/>
	<advance width="1360"/>
	<outline>
		<contour>
			<point x="636" y="-44" type="curve" smooth="yes"/>
			<point x="934" y="-44"/>
			<point x="1178" y="156"/>
			<point x="1178" y="404" type="curve" smooth="yes"/>
			<point x="1178" y="630"/>
			<point x="984" y="840"/>
			<point x="706" y="840" type="curve" smooth="yes"/>
			<point x="580" y="840"/>
			<point x="478" y="808"/>
			<point x="392" y="742" type="curve"/>
			<point x="392" y="1102" type="line"/>
			<point x="498" y="1076"/>
			<point x="588" y="1076"/>
			<point x="610" y="1076" type="curve" smooth="yes"/>
			<point x="717" y="1076"/>
			<point x="812" y="1103"/>
			<point x="888" y="1139" type="curve" smooth="yes"/>
			<point x="1009" y="1196"/>
			<point x="1082" y="1275"/>
			<point x="1082" y="1298" type="curve" smooth="yes"/>
			<point x="1082" y="1328"/>
			<point x="1060" y="1332"/>
			<point x="1054" y="1332" type="curve" smooth="yes"/>
			<point x="1050" y="1332"/>
			<point x="1046" y="1332"/>
			<point x="1024" y="1322" type="curve"/>
			<point x="948" y="1296"/>
			<point x="824" y="1268"/>
			<point x="692" y="1268" type="curve" smooth="yes"/>
			<point x="578" y="1268"/>
			<point x="468" y="1288"/>
			<point x="362" y="1324" type="curve" smooth="yes"/>
			<point x="340" y="1332"/>
			<point x="336" y="1332"/>
			<point x="332" y="1332" type="curve" smooth="yes"/>
			<point x="304" y="1332"/>
			<point x="304" y="1308"/>
			<point x="304" y="1276" type="curve" smooth="yes"/>
			<point x="304" y="676" type="line" smooth="yes"/>
			<point x="304" y="642"/>
			<point x="304" y="616"/>
			<point x="342" y="616" type="curve" smooth="yes"/>
			<point x="364" y="616"/>
			<point x="366" y="620"/>
			<point x="384" y="642" type="curve" smooth="yes"/>
			<point x="460" y="730"/>
			<point x="566" y="774"/>
			<point x="702" y="774" type="curve" smooth="yes"/>
			<point x="818" y="774"/>
			<point x="882" y="706"/>
			<point x="910" y="664" type="curve" smooth="yes"/>
			<point x="956" y="596"/>
			<point x="966" y="506"/>
			<point x="966" y="410" type="curve" smooth="yes"/>
			<point x="966" y="326"/>
			<point x="958" y="214"/>
			<point x="880" y="136" type="curve" smooth="yes"/>
			<point x="790" y="44"/>
			<point x="676" y="38"/>
			<point x="632" y="38" type="curve" smooth="yes"/>
			<point x="502" y="38"/>
			<point x="356" y="94"/>
			<point x="294" y="212" type="curve"/>
			<point x="378" y="218"/>
			<point x="406" y="278"/>
			<point x="406" y="324" type="curve" smooth="yes"/>
			<point x="406" y="388"/>
			<point x="358" y="436"/>
			<point x="294" y="436" type="curve" smooth="yes"/>
			<point x="250" y="436"/>
			<point x="182" y="410"/>
			<point x="182" y="318" type="curve" smooth="yes"/>
			<point x="182" y="122"/>
			<point x="374" y="-44"/>
		</contour>
	</outline>
</glyph>
<glyph name="six" format="2">
  <advance width="680"/>
  <unicode hex="0036"/>
  <outline>
    <contour>
      <point x="80" y="318" type="curve" smooth="yes"/>
      <point x="80.0" y="191.68372"/>
      <point x="112.6820066768" y="103.91544787519997"/>
      <point x="165.05429108290969" y="49.2327521363143" type="curve" smooth="yes"/>
      <point x="211.77434832159997" y="0.45163243039996814"/>
      <point x="274.16391999999996" y="-22.000000000000032"/>
      <point x="343" y="-22" type="curve" smooth="yes"/>
      <point x="442" y="-22"/>
      <point x="489" y="15"/>
      <point x="523" y="43" type="curve" smooth="yes"/>
      <point x="587" y="96"/>
      <point x="600" y="155"/>
      <point x="600" y="205" type="curve" smooth="yes"/>
      <point x="600" y="266"/>
      <point x="580" y="315"/>
      <point x="528" y="361" type="curve" smooth="yes"/>
      <point x="484" y="401"/>
      <point x="438" y="428"/>
      <point x="351" y="428" type="curve" smooth="yes"/>
      <point x="293" y="428"/>
      <point x="228" y="400"/>
      <point x="186" y="328" type="curve"/>
      <point x="187" y="374"/>
      <point x="188" y="453"/>
      <point x="224" y="518" type="curve" smooth="yes"/>
      <point x="253" y="572"/>
      <point x="318" y="628"/>
      <point x="411" y="628" type="curve" smooth="yes"/>
      <point x="430" y="628"/>
      <point x="475" y="626"/>
      <point x="505" y="602" type="curve"/>
      <point x="489" y="598"/>
      <point x="463" y="583"/>
      <point x="463" y="549" type="curve" smooth="yes"/>
      <point x="463" y="517"/>
      <point x="487" y="496"/>
      <point x="516" y="496" type="curve" smooth="yes"/>
      <point x="533" y="496"/>
      <point x="569" y="505"/>
      <point x="569" y="552" type="curve" smooth="yes"/>
      <point x="569" y="606"/>
      <point x="531" y="666"/>
      <point x="410" y="666" type="curve" smooth="yes"/>
      <point x="238" y="666"/>
      <point x="80" y="525"/>
    </contour>
    <contour>
      <point x="343" y="19" type="curve" smooth="yes"/>
      <point x="296.00074" y="19.0"/>
      <point x="263.3451841594" y="34.4613953926"/>
      <point x="240.65577740579272" y="57.140738314175884" type="curve" smooth="yes"/>
      <point x="189.0" y="108.77360392359999"/>
      <point x="189.0" y="197.81797999999998"/>
      <point x="189" y="227" type="curve" smooth="yes"/>
      <point x="189" y="304"/>
      <point x="244" y="394"/>
      <point x="349" y="394" type="curve" smooth="yes"/>
      <point x="400" y="394"/>
      <point x="432" y="381"/>
      <point x="463" y="341" type="curve" smooth="yes"/>
      <point x="493" y="304"/>
      <point x="494" y="262"/>
      <point x="494" y="206" type="curve" smooth="yes"/>
      <point x="494" y="148"/>
      <point x="494" y="110"/>
      <point x="462" y="70" type="curve" smooth="yes"/>
      <point x="434" y="37"/>
      <point x="399" y="19"/>
    </contour>
  </outline>
</glyph>
<glyph name="seven" format="2">
	<unicode hex="0037"/>
	<advance width="1360"/>
	<outline>
		<contour>
			<point x="612" y="-44" type="curve" smooth="yes"/>
			<point x="718" y="-44"/>
			<point x="718" y="58"/>
			<point x="718" y="82" type="curve" smooth="yes"/>
			<point x="718" y="95"/>
			<point x="718" y="109"/>
			<point x="718" y="122" type="curve" smooth="yes"/>
			<point x="718" y="478"/>
			<point x="794" y="698"/>
			<point x="914" y="830" type="curve" smooth="yes"/>
			<point x="1031" y="959"/>
			<point x="1147" y="1087"/>
			<point x="1264" y="1216" type="curve" smooth="yes"/>
			<point x="1270" y="1222"/>
			<point x="1270" y="1222"/>
			<point x="1270" y="1288" type="curve"/>
			<point x="1270" y="1288" type="line"/>
			<point x="786" y="1288" type="line" smooth="yes"/>
			<point x="734" y="1288"/>
			<point x="442" y="1296"/>
			<point x="406" y="1302" type="curve" smooth="yes"/>
			<point x="360" y="1312"/>
			<point x="358" y="1332"/>
			<point x="354" y="1352" type="curve"/>
			<point x="270" y="1352" type="line"/>
			<point x="194" y="902" type="line"/>
			<point x="278" y="902" type="line"/>
			<point x="282" y="932"/>
			<point x="304" y="1062"/>
			<point x="338" y="1084" type="curve"/>
			<point x="350" y="1094"/>
			<point x="538" y="1096"/>
			<point x="568" y="1096" type="curve" smooth="yes"/>
			<point x="1044" y="1096" type="line"/>
			<point x="979" y="1022"/>
			<point x="913" y="948"/>
			<point x="848" y="874" type="curve" smooth="yes"/>
			<point x="518" y="504"/>
			<point x="506" y="200"/>
			<point x="506" y="78" type="curve" smooth="yes"/>
			<point x="506" y="-32"/>
			<point x="576" y="-44"/>
		</contour>
	</outline>
</glyph>
<glyph name="eight" format="2">
	<unicode hex="0038"/>
	<advance width="1360"/>
	<outline>
		<contour>
			<point x="678" y="-44" type="curve" smooth="yes"/>
			<point x="958" y="-44"/>
			<point x="1200" y="106"/>
			<point x="1200" y="342" type="curve" smooth="yes"/>
			<point x="1200" y="560"/>
			<point x="992" y="662"/>
			<point x="858" y="722" type="curve"/>
			<point x="1064" y="808"/>
			<point x="1130" y="914"/>
			<point x="1130" y="1028" type="curve" smooth="yes"/>
			<point x="1130" y="1236"/>
			<point x="900" y="1332"/>
			<point x="682" y="1332" type="curve" smooth="yes"/>
			<point x="434" y="1332"/>
			<point x="230" y="1192"/>
			<point x="230" y="992" type="curve" smooth="yes"/>
			<point x="230" y="902"/>
			<point x="268" y="837"/>
			<point x="318" y="787" type="curve" smooth="yes"/>
			<point x="371" y="735"/>
			<point x="439" y="700"/>
			<point x="492" y="672" type="curve"/>
			<point x="280" y="590"/>
			<point x="160" y="472"/>
			<point x="160" y="308" type="curve" smooth="yes"/>
			<point x="160" y="68"/>
			<point x="426" y="-44"/>
		</contour>
		<contour>
			<point x="682" y="38" type="curve" smooth="yes"/>
			<point x="500" y="38"/>
			<point x="298" y="128"/>
			<point x="298" y="310" type="curve" smooth="yes"/>
			<point x="298" y="508"/>
			<point x="514" y="600"/>
			<point x="578" y="628" type="curve"/>
			<point x="681" y="575"/>
			<point x="784" y="523"/>
			<point x="888" y="470" type="curve" smooth="yes"/>
			<point x="960" y="432"/>
			<point x="1062" y="378"/>
			<point x="1062" y="270" type="curve" smooth="yes"/>
			<point x="1062" y="108"/>
			<point x="860" y="38"/>
		</contour>
		<contour>
			<point x="776" y="766" type="curve"/>
			<point x="673" y="819"/>
			<point x="570" y="873"/>
			<point x="466" y="926" type="curve" smooth="yes"/>
			<point x="380" y="970"/>
			<point x="354" y="1022"/>
			<point x="354" y="1070" type="curve" smooth="yes"/>
			<point x="354" y="1198"/>
			<point x="518" y="1256"/>
			<point x="678" y="1256" type="curve" smooth="yes"/>
			<point x="838" y="1256"/>
			<point x="1006" y="1178"/>
			<point x="1006" y="1026" type="curve" smooth="yes"/>
			<point x="1006" y="850"/>
			<point x="778" y="766"/>
		</contour>
	</outline>
</glyph>
<glyph name="nine" format="2">
	<unicode hex="0039"/>
	<advance width="1360"/>
	<outline>
		<contour>
			<point x="570" y="-44" type="curve" smooth="yes"/>
			<point x="906" y="-44"/>
			<point x="1200" y="242"/>
			<point x="1200" y="656" type="curve" smooth="yes"/>
			<point x="1200" y="1140"/>
			<point x="964" y="1332"/>
			<point x="688" y="1332" type="curve" smooth="yes"/>
			<point x="488" y="1332"/>
			<point x="390" y="1262"/>
			<point x="310" y="1194" type="curve" smooth="yes"/>
			<point x="186" y="1092"/>
			<point x="160" y="982"/>
			<point x="160" y="880" type="curve" smooth="yes"/>
			<point x="160" y="766"/>
			<point x="194" y="664"/>
			<point x="302" y="570" type="curve" smooth="yes"/>
			<point x="396" y="486"/>
			<point x="488" y="434"/>
			<point x="658" y="434" type="curve" smooth="yes"/>
			<point x="740" y="434"/>
			<point x="884" y="462"/>
			<point x="988" y="636" type="curve"/>
			<point x="988" y="510"/>
			<point x="980" y="358"/>
			<point x="912" y="240" type="curve" smooth="yes"/>
			<point x="846" y="124"/>
			<point x="728" y="38"/>
			<point x="566" y="38" type="curve" smooth="yes"/>
			<point x="544" y="38"/>
			<point x="422" y="38"/>
			<point x="354" y="86" type="curve"/>
			<point x="404" y="100"/>
			<point x="434" y="138"/>
			<point x="434" y="190" type="curve" smooth="yes"/>
			<point x="434" y="254"/>
			<point x="386" y="296"/>
			<point x="328" y="296" type="curve" smooth="yes"/>
			<point x="294" y="296"/>
			<point x="222" y="278"/>
			<point x="222" y="184" type="curve" smooth="yes"/>
			<point x="222" y="-44"/>
			<point x="516" y="-44"/>
		</contour>
		<contour>
			<point x="662" y="502" type="curve" smooth="yes"/>
			<point x="582" y="502"/>
			<point x="506" y="516"/>
			<point x="434" y="606" type="curve" smooth="yes"/>
			<point x="374" y="680"/>
			<point x="372" y="762"/>
			<point x="372" y="880" type="curve" smooth="yes"/>
			<point x="372" y="1024"/>
			<point x="378" y="1084"/>
			<point x="454" y="1164" type="curve" smooth="yes"/>
			<point x="484" y="1198"/>
			<point x="544" y="1256"/>
			<point x="688" y="1256" type="curve" smooth="yes"/>
			<point x="806" y="1256"/>
			<point x="876" y="1202"/>
			<point x="920" y="1134" type="curve" smooth="yes"/>
			<point x="982" y="1030"/>
			<point x="982" y="892"/>
			<point x="982" y="840" type="curve" smooth="yes"/>
			<point x="982" y="674"/>
			<point x="864" y="502"/>
		</contour>
	</outline>
</glyph>
<glyph name="colon" format="2">
  <advance width="402"/>
  <unicode hex="003A"/>
  <outline>
    <contour>
      <point x="262" y="370" type="curve" smooth="yes"/>
      <point x="262" y="404"/>
      <point x="235" y="431"/>
      <point x="201" y="431" type="curve" smooth="yes"/>
      <point x="168" y="431"/>
      <point x="140" y="404"/>
      <point x="140" y="370" type="curve" smooth="yes"/>
      <point x="140" y="336"/>
      <point x="167" y="309"/>
      <point x="201" y="309" type="curve" smooth="yes"/>
      <point x="234" y="309"/>
      <point x="262" y="336"/>
    </contour>
    <contour>
      <point x="262" y="61" type="curve" smooth="yes"/>
      <point x="262" y="95"/>
      <point x="235" y="122"/>
      <point x="201" y="122" type="curve" smooth="yes"/>
      <point x="168" y="122"/>
      <point x="140" y="95"/>
      <point x="140" y="61" type="curve" smooth="yes"/>
      <point x="140" y="27"/>
      <point x="167" y="0"/>
      <point x="201" y="0" type="curve" smooth="yes"/>
      <point x="234" y="0"/>
      <point x="262" y="27"/>
    </contour>
  </outline>
</glyph>
<glyph name="semicolon" format="2">
	<unicode hex="003B"/>
	<advance width="804"/>
	<outline>
		<contour>
			<point x="402" y="618" type="curve" smooth="yes"/>
			<point x="468" y="618"/>
			<point x="524" y="672"/>
			<point x="524" y="740" type="curve" smooth="yes"/>
			<point x="524" y="808"/>
			<point x="470" y="862"/>
			<point x="402" y="862" type="curve" smooth="yes"/>
			<point x="336" y="862"/>
			<point x="280" y="808"/>
			<point x="280" y="740" type="curve" smooth="yes"/>
			<point x="280" y="672"/>
			<point x="334" y="618"/>
		</contour>
		<contour>
			<point x="336" y="-388" type="curve" smooth="yes"/>
			<point x="366" y="-388"/>
			<point x="530" y="-222"/>
			<point x="530" y="22" type="curve" smooth="yes"/>
			<point x="530" y="84"/>
			<point x="524" y="244"/>
			<point x="400" y="244" type="curve" smooth="yes"/>
			<point x="328" y="244"/>
			<point x="280" y="188"/>
			<point x="280" y="122" type="curve" smooth="yes"/>
			<point x="280" y="60"/>
			<point x="324" y="0"/>
			<point x="402" y="0" type="curve" smooth="yes"/>
			<point x="440" y="0"/>
			<point x="448" y="6"/>
			<point x="464" y="14" type="curve"/>
			<point x="458" y="-142"/>
			<point x="400" y="-244"/>
			<point x="302" y="-342" type="curve"/>
			<point x="302" y="-342"/>
			<point x="302" y="-342"/>
			<point x="302" y="-342" type="curve" smooth="yes"/>
			<point x="302" y="-364"/>
			<point x="310" y="-388"/>
		</contour>
	</outline>
</glyph>
<glyph name="less" format="2">
  <advance width="1027"/>
  <unicode hex="003C"/>
  <outline>
    <contour>
      <point x="883" y="550" type="line"/>
      <point x="890" y="555"/>
      <point x="895" y="564"/>
      <point x="895" y="573" type="curve" smooth="yes"/>
      <point x="895" y="584"/>
      <point x="889" y="601"/>
      <point x="861" y="601" type="curve"/>
      <point x="144" y="273" type="line"/>
      <point x="137" y="268"/>
      <point x="132" y="259"/>
      <point x="132" y="250" type="curve" smooth="yes"/>
      <point x="132" y="234"/>
      <point x="140" y="229"/>
      <point x="143" y="227" type="curve"/>
      <point x="859" y="-100" type="line"/>
      <point x="889" y="-104"/>
      <point x="895" y="-81"/>
      <point x="895" y="-73" type="curve" smooth="yes"/>
      <point x="895" y="-57"/>
      <point x="887" y="-52"/>
      <point x="884" y="-50" type="curve"/>
      <point x="227" y="250" type="line"/>
    </contour>
  </outline>
</glyph>
<glyph name="equal" format="2">
  <advance width="1027"/>
  <unicode hex="003D"/>
  <outline>
    <contour>
      <point x="891" y="341" type="line" smooth="yes"/>
      <point x="905" y="341"/>
      <point x="930" y="341"/>
      <point x="930" y="369" type="curve" smooth="yes"/>
      <point x="930" y="397"/>
      <point x="901" y="397"/>
      <point x="886" y="397" type="curve" smooth="yes"/>
      <point x="141" y="397" type="line" smooth="yes"/>
      <point x="126" y="397"/>
      <point x="97" y="397"/>
      <point x="97" y="369" type="curve" smooth="yes"/>
      <point x="97" y="341"/>
      <point x="123" y="341"/>
      <point x="136" y="341" type="curve" smooth="yes"/>
    </contour>
    <contour>
      <point x="886" y="103" type="line" smooth="yes"/>
      <point x="901" y="103"/>
      <point x="930" y="103"/>
      <point x="930" y="131" type="curve" smooth="yes"/>
      <point x="930" y="159"/>
      <point x="905" y="159"/>
      <point x="891" y="159" type="curve" smooth="yes"/>
      <point x="136" y="159" type="line" smooth="yes"/>
      <point x="122" y="159"/>
      <point x="97" y="159"/>
      <point x="97" y="131" type="curve" smooth="yes"/>
      <point x="97" y="103"/>
      <point x="126" y="103"/>
      <point x="141" y="103" type="curve" smooth="yes"/>
    </contour>
  </outline>
</glyph>
<glyph name="question" format="2">
	<unicode hex="003F"/>
	<advance width="645"/>
	<outline>
		<contour>
			<point x="548" y="569" type="curve" smooth="yes"/>
			<point x="548" y="614"/>
			<point x="517" y="705"/>
			<point x="311" y="705" type="curve" smooth="yes"/>
			<point x="168" y="705"/>
			<point x="97" y="644"/>
			<point x="97" y="571" type="curve" smooth="yes"/>
			<point x="97" y="529"/>
			<point x="131" y="516"/>
			<point x="150" y="516" type="curve" smooth="yes"/>
			<point x="176" y="516"/>
			<point x="203" y="535"/>
			<point x="203" y="569" type="curve" smooth="yes"/>
			<point x="203" y="598"/>
			<point x="184" y="617"/>
			<point x="160" y="622" type="curve"/>
			<point x="206" y="672"/>
			<point x="289" y="672"/>
			<point x="309" y="672" type="curve" smooth="yes"/>
			<point x="433" y="672"/>
			<point x="448" y="624"/>
			<point x="448" y="572" type="curve" smooth="yes"/>
			<point x="448" y="540"/>
			<point x="436" y="513"/>
			<point x="413" y="495" type="curve" smooth="yes"/>
			<point x="294" y="402"/>
			<point x="284" y="313"/>
			<point x="284" y="244" type="curve" smooth="yes"/>
			<point x="284" y="232.678"/>
			<point x="284" y="221.356"/>
			<point x="284" y="210" type="curve"/>
			<point x="287" y="198"/>
			<point x="298" y="198"/>
			<point x="305" y="198" type="curve" smooth="yes"/>
			<point x="326" y="198"/>
			<point x="326" y="206"/>
			<point x="326" y="227" type="curve" smooth="yes"/>
			<point x="326" y="254" type="line" smooth="yes"/>
			<point x="326" y="363"/>
			<point x="408" y="426"/>
			<point x="478" y="466" type="curve" smooth="yes"/>
			<point x="515" y="487"/>
			<point x="548" y="519"/>
		</contour>
		<contour>
			<point x="366" y="61" type="curve" smooth="yes"/>
			<point x="366" y="95"/>
			<point x="339" y="122"/>
			<point x="305" y="122" type="curve" smooth="yes"/>
			<point x="272" y="122"/>
			<point x="244" y="95"/>
			<point x="244" y="61" type="curve" smooth="yes"/>
			<point x="244" y="27"/>
			<point x="271" y="0"/>
			<point x="305" y="0" type="curve" smooth="yes"/>
			<point x="338" y="0"/>
			<point x="366" y="27"/>
		</contour>
	</outline>
</glyph>
<glyph name="at" format="2">
	<unicode hex="0040"/>
	<advance width="2054"/>
	<outline>
		<contour>
			<point x="1040" y="-22" type="curve" smooth="yes"/>
			<point x="1220" y="-22"/>
			<point x="1384" y="1"/>
			<point x="1517" y="29" type="curve" smooth="yes"/>
			<point x="1706" y="68"/>
			<point x="1829" y="116"/>
			<point x="1840" y="120" type="curve" smooth="yes"/>
			<point x="1854" y="126"/>
			<point x="1860" y="136"/>
			<point x="1860" y="146" type="curve" smooth="yes"/>
			<point x="1860" y="174"/>
			<point x="1834" y="174"/>
			<point x="1804" y="174" type="curve" smooth="yes"/>
			<point x="1778" y="174" type="line" smooth="yes"/>
			<point x="1748" y="174"/>
			<point x="1744" y="174"/>
			<point x="1698" y="158" type="curve" smooth="yes"/>
			<point x="1442" y="70"/>
			<point x="1214" y="44"/>
			<point x="1038" y="44" type="curve" smooth="yes"/>
			<point x="576" y="44"/>
			<point x="278" y="366"/>
			<point x="278" y="694" type="curve" smooth="yes"/>
			<point x="278" y="1044"/>
			<point x="604" y="1344"/>
			<point x="1026" y="1344" type="curve" smooth="yes"/>
			<point x="1430" y="1344"/>
			<point x="1776" y="1066"/>
			<point x="1776" y="684" type="curve" smooth="yes"/>
			<point x="1776" y="632"/>
			<point x="1776" y="318"/>
			<point x="1604" y="318" type="curve" smooth="yes"/>
			<point x="1526" y="318"/>
			<point x="1526" y="418"/>
			<point x="1526" y="442" type="curve" smooth="yes"/>
			<point x="1526" y="910" type="line" smooth="yes"/>
			<point x="1526" y="964"/>
			<point x="1524" y="968"/>
			<point x="1466" y="968" type="curve" smooth="yes"/>
			<point x="1438" y="968"/>
			<point x="1407" y="968"/>
			<point x="1382" y="968" type="curve"/>
			<point x="1290" y="1078"/>
			<point x="1164" y="1136"/>
			<point x="1024" y="1136" type="curve" smooth="yes"/>
			<point x="754" y="1136"/>
			<point x="528" y="938"/>
			<point x="528" y="694" type="curve" smooth="yes"/>
			<point x="528" y="448"/>
			<point x="754" y="252"/>
			<point x="1024" y="252" type="curve" smooth="yes"/>
			<point x="1224" y="252"/>
			<point x="1340" y="374"/>
			<point x="1352" y="386" type="curve"/>
			<point x="1394" y="252"/>
			<point x="1572" y="252"/>
			<point x="1590" y="252" type="curve" smooth="yes"/>
			<point x="1838" y="252"/>
			<point x="1860" y="580"/>
			<point x="1860" y="688" type="curve" smooth="yes"/>
			<point x="1860" y="1094"/>
			<point x="1484" y="1410"/>
			<point x="1028" y="1410" type="curve" smooth="yes"/>
			<point x="552" y="1410"/>
			<point x="194" y="1076"/>
			<point x="194" y="694" type="curve" smooth="yes"/>
			<point x="194" y="334"/>
			<point x="522" y="-22"/>
		</contour>
		<contour>
			<point x="1030" y="318" type="curve" smooth="yes"/>
			<point x="848" y="318"/>
			<point x="706" y="488"/>
			<point x="706" y="694" type="curve" smooth="yes"/>
			<point x="706" y="900"/>
			<point x="848" y="1070"/>
			<point x="1030" y="1070" type="curve" smooth="yes"/>
			<point x="1107" y="1070"/>
			<point x="1208" y="1040"/>
			<point x="1288" y="959" type="curve" smooth="yes"/>
			<point x="1310" y="936"/>
			<point x="1330" y="910"/>
			<point x="1348" y="880" type="curve"/>
			<point x="1348" y="508" type="line"/>
			<point x="1264" y="364"/>
			<point x="1128" y="318"/>
		</contour>
	</outline>
</glyph>
<glyph name="A" format="2">
	<unicode hex="0041"/>
	<advance width="1960"/>
	<outline>
		<contour>
			<point x="980" y="1432" type="curve" smooth="yes"/>
			<point x="944" y="1432"/>
			<point x="928" y="1424"/>
			<point x="910" y="1384" type="curve" smooth="yes"/>
			<point x="394" y="206" type="line" smooth="yes"/>
			<point x="350" y="106"/>
			<point x="242" y="88"/>
			<point x="142" y="88" type="curve"/>
			<point x="142" y="0" type="line"/>
			<point x="216" y="6"/>
			<point x="300" y="8"/>
			<point x="374" y="8" type="curve" smooth="yes"/>
			<point x="400" y="8"/>
			<point x="542" y="6"/>
			<point x="634" y="0" type="curve"/>
			<point x="634" y="88" type="line"/>
			<point x="522" y="88"/>
			<point x="482" y="138"/>
			<point x="482" y="176" type="curve" smooth="yes"/>
			<point x="482" y="188"/>
			<point x="486" y="194"/>
			<point x="492" y="210" type="curve"/>
			<point x="596" y="446" type="line"/>
			<point x="1238" y="446" type="line"/>
			<point x="1360" y="166" type="line"/>
			<point x="1372" y="142"/>
			<point x="1372" y="138"/>
			<point x="1372" y="136" type="curve" smooth="yes"/>
			<point x="1372" y="88"/>
			<point x="1258" y="88"/>
			<point x="1200" y="88" type="curve"/>
			<point x="1200" y="0" type="line"/>
			<point x="1278" y="2"/>
			<point x="1428" y="8"/>
			<point x="1524" y="8" type="curve" smooth="yes"/>
			<point x="1626" y="8"/>
			<point x="1734" y="4"/>
			<point x="1818" y="0" type="curve"/>
			<point x="1818" y="88" type="line"/>
			<point x="1766" y="88" type="line" smooth="yes"/>
			<point x="1642" y="88"/>
			<point x="1612" y="100"/>
			<point x="1588" y="154" type="curve" smooth="yes"/>
			<point x="1050" y="1380" type="line" smooth="yes"/>
			<point x="1034" y="1416"/>
			<point x="1028" y="1432"/>
		</contour>
		<contour>
			<point x="916" y="1178" type="line"/>
			<point x="1200" y="534" type="line"/>
			<point x="634" y="534" type="line"/>
		</contour>
	</outline>
</glyph>
<glyph name="B" format="2">
	<unicode hex="0042"/>
	<advance width="1868"/>
	<outline>
		<contour>
			<point x="1674" y="370" type="curve" smooth="yes"/>
			<point x="1674" y="512"/>
			<point x="1530" y="674"/>
			<point x="1206" y="716" type="curve"/>
			<point x="1408" y="748"/>
			<point x="1604" y="864"/>
			<point x="1604" y="1024" type="curve" smooth="yes"/>
			<point x="1604" y="1210"/>
			<point x="1356" y="1366"/>
			<point x="1058" y="1366" type="curve" smooth="yes"/>
			<point x="174" y="1366" type="line"/>
			<point x="174" y="1278" type="line"/>
			<point x="234" y="1278" type="line" smooth="yes"/>
			<point x="396" y="1278"/>
			<point x="396" y="1258"/>
			<point x="396" y="1196" type="curve" smooth="yes"/>
			<point x="396" y="170" type="line" smooth="yes"/>
			<point x="396" y="108"/>
			<point x="396" y="88"/>
			<point x="234" y="88" type="curve" smooth="yes"/>
			<point x="174" y="88" type="line"/>
			<point x="174" y="0" type="line"/>
			<point x="1124" y="0" type="line" smooth="yes"/>
			<point x="1432" y="0"/>
			<point x="1674" y="172"/>
		</contour>
		<contour>
			<point x="592" y="744" type="line"/>
			<point x="592" y="1202" type="line" smooth="yes"/>
			<point x="592" y="1264"/>
			<point x="592" y="1278"/>
			<point x="690" y="1278" type="curve" smooth="yes"/>
			<point x="1044" y="1278" type="line" smooth="yes"/>
			<point x="1258" y="1278"/>
			<point x="1386" y="1146"/>
			<point x="1386" y="1022" type="curve" smooth="yes"/>
			<point x="1386" y="876"/>
			<point x="1210" y="744"/>
			<point x="990" y="744" type="curve" smooth="yes"/>
		</contour>
		<contour>
			<point x="1048" y="88" type="curve" smooth="yes"/>
			<point x="690" y="88" type="line" smooth="yes"/>
			<point x="592" y="88"/>
			<point x="592" y="102"/>
			<point x="592" y="164" type="curve" smooth="yes"/>
			<point x="592" y="678" type="line"/>
			<point x="1064" y="678" type="line" smooth="yes"/>
			<point x="1332" y="678"/>
			<point x="1448" y="502"/>
			<point x="1448" y="372" type="curve" smooth="yes"/>
			<point x="1448" y="222"/>
			<point x="1282" y="88"/>
		</contour>
	</outline>
</glyph>
<glyph name="C" format="2">
	<unicode hex="0043"/>
	<advance width="1916"/>
	<outline>
		<contour>
			<point x="194" y="684" type="curve" smooth="yes"/>
			<point x="194" y="288"/>
			<point x="574" y="-44"/>
			<point x="1060" y="-44" type="curve" smooth="yes"/>
			<point x="1446" y="-44"/>
			<point x="1720" y="202"/>
			<point x="1720" y="468" type="curve" smooth="yes"/>
			<point x="1720" y="500"/>
			<point x="1712" y="510"/>
			<point x="1678" y="510" type="curve" smooth="yes"/>
			<point x="1656" y="510"/>
			<point x="1638" y="510"/>
			<point x="1636" y="476" type="curve" smooth="yes"/>
			<point x="1620" y="172"/>
			<point x="1330" y="44"/>
			<point x="1096" y="44" type="curve" smooth="yes"/>
			<point x="931" y="44"/>
			<point x="732" y="97"/>
			<point x="595" y="236" type="curve" smooth="yes"/>
			<point x="495" y="336"/>
			<point x="428" y="481"/>
			<point x="428" y="684" type="curve"/>
			<point x="428" y="886"/>
			<point x="495" y="1031"/>
			<point x="595" y="1131" type="curve" smooth="yes"/>
			<point x="731" y="1268"/>
			<point x="927" y="1322"/>
			<point x="1094" y="1322" type="curve"/>
			<point x="1274" y="1322"/>
			<point x="1568" y="1226"/>
			<point x="1632" y="854" type="curve" smooth="yes"/>
			<point x="1636" y="830"/>
			<point x="1660" y="830"/>
			<point x="1676" y="830" type="curve" smooth="yes"/>
			<point x="1720" y="830"/>
			<point x="1720" y="844"/>
			<point x="1720" y="886" type="curve" smooth="yes"/>
			<point x="1720" y="1354" type="line" smooth="yes"/>
			<point x="1720" y="1388"/>
			<point x="1720" y="1410"/>
			<point x="1688" y="1410" type="curve" smooth="yes"/>
			<point x="1668" y="1410"/>
			<point x="1662" y="1402"/>
			<point x="1650" y="1386" type="curve" smooth="yes"/>
			<point x="1532" y="1232" type="line"/>
			<point x="1410" y="1336"/>
			<point x="1256" y="1410"/>
			<point x="1058" y="1410" type="curve" smooth="yes"/>
			<point x="574" y="1410"/>
			<point x="194" y="1076"/>
		</contour>
	</outline>
</glyph>
<glyph name="D" format="2">
	<unicode hex="0044"/>
	<advance width="2008"/>
	<outline>
		<contour>
			<point x="1812" y="672" type="curve" smooth="yes"/>
			<point x="1812" y="1046"/>
			<point x="1478" y="1366"/>
			<point x="1050" y="1366" type="curve" smooth="yes"/>
			<point x="170" y="1366" type="line"/>
			<point x="170" y="1278" type="line"/>
			<point x="218" y="1278"/>
			<point x="278" y="1278"/>
			<point x="322" y="1274" type="curve" smooth="yes"/>
			<point x="392" y="1268"/>
			<point x="392" y="1242"/>
			<point x="392" y="1192" type="curve" smooth="yes"/>
			<point x="392" y="174" type="line" smooth="yes"/>
			<point x="392" y="124"/>
			<point x="392" y="98"/>
			<point x="322" y="92" type="curve" smooth="yes"/>
			<point x="278" y="88"/>
			<point x="214" y="88"/>
			<point x="170" y="88" type="curve"/>
			<point x="170" y="0" type="line"/>
			<point x="1050" y="0" type="line" smooth="yes"/>
			<point x="1474" y="0"/>
			<point x="1812" y="302"/>
		</contour>
		<contour>
			<point x="698" y="88" type="line" smooth="yes"/>
			<point x="596" y="88"/>
			<point x="596" y="100"/>
			<point x="596" y="168" type="curve" smooth="yes"/>
			<point x="596" y="1198" type="line" smooth="yes"/>
			<point x="596" y="1266"/>
			<point x="596" y="1278"/>
			<point x="698" y="1278" type="curve" smooth="yes"/>
			<point x="992" y="1278" type="line" smooth="yes"/>
			<point x="1230" y="1278"/>
			<point x="1372" y="1178"/>
			<point x="1426" y="1126" type="curve" smooth="yes"/>
			<point x="1500" y="1052"/>
			<point x="1586" y="934"/>
			<point x="1586" y="672" type="curve" smooth="yes"/>
			<point x="1586" y="496"/>
			<point x="1546" y="348"/>
			<point x="1432" y="238" type="curve" smooth="yes"/>
			<point x="1366" y="176"/>
			<point x="1224" y="88"/>
			<point x="992" y="88" type="curve" smooth="yes"/>
		</contour>
	</outline>
</glyph>
<glyph name="E" format="2">
  <advance width="900"/>
  <unicode hex="0045"/>
  <outline>
    <contour>
      <point x="194" y="85" type="line" smooth="yes"/>
      <point x="194" y="54"/>
      <point x="194" y="44"/>
      <point x="113" y="44" type="curve" smooth="yes"/>
      <point x="83" y="44" type="line"/>
      <point x="83" y="0" type="line"/>
      <point x="786" y="0" type="line"/>
      <point x="836" y="271" type="line"/>
      <point x="794" y="271" type="line"/>
      <point x="765" y="107"/>
      <point x="726" y="44"/>
      <point x="535" y="44" type="curve" smooth="yes"/>
      <point x="349" y="44" type="line" smooth="yes"/>
      <point x="300" y="44"/>
      <point x="300" y="51"/>
      <point x="300" y="82" type="curve" smooth="yes"/>
      <point x="300" y="330" type="line"/>
      <point x="416" y="330" type="line" smooth="yes"/>
      <point x="516" y="330"/>
      <point x="544" y="309"/>
      <point x="544" y="213" type="curve"/>
      <point x="586" y="213" type="line"/>
      <point x="586" y="491" type="line"/>
      <point x="544" y="491" type="line"/>
      <point x="544" y="395"/>
      <point x="516" y="374"/>
      <point x="416" y="374" type="curve" smooth="yes"/>
      <point x="300" y="374" type="line"/>
      <point x="300" y="597" type="line" smooth="yes"/>
      <point x="300" y="628"/>
      <point x="300" y="635"/>
      <point x="349" y="635" type="curve" smooth="yes"/>
      <point x="526" y="635" type="line" smooth="yes"/>
      <point x="693" y="635"/>
      <point x="738" y="595"/>
      <point x="760" y="441" type="curve"/>
      <point x="802" y="441" type="line"/>
      <point x="769" y="679" type="line"/>
      <point x="83" y="679" type="line"/>
      <point x="83" y="635" type="line"/>
      <point x="113" y="635" type="line" smooth="yes"/>
      <point x="194" y="635"/>
      <point x="194" y="625"/>
      <point x="194" y="594" type="curve" smooth="yes"/>
    </contour>
  </outline>
</glyph>
<glyph name="F" format="2">
	<unicode hex="0046"/>
	<advance width="1730"/>
	<outline>
		<contour>
			<point x="1502" y="1358" type="line"/>
			<point x="166" y="1358" type="line"/>
			<point x="166" y="1270" type="line"/>
			<point x="226" y="1270" type="line" smooth="yes"/>
			<point x="388" y="1270"/>
			<point x="388" y="1250"/>
			<point x="388" y="1188" type="curve" smooth="yes"/>
			<point x="388" y="170" type="line" smooth="yes"/>
			<point x="388" y="108"/>
			<point x="388" y="88"/>
			<point x="226" y="88" type="curve" smooth="yes"/>
			<point x="166" y="88" type="line"/>
			<point x="166" y="0" type="line"/>
			<point x="270" y="4"/>
			<point x="380" y="8"/>
			<point x="504" y="8" type="curve" smooth="yes"/>
			<point x="618" y="8"/>
			<point x="766" y="8"/>
			<point x="878" y="0" type="curve"/>
			<point x="878" y="88" type="line"/>
			<point x="792" y="88" type="line" smooth="yes"/>
			<point x="600" y="88"/>
			<point x="600" y="108"/>
			<point x="600" y="172" type="curve" smooth="yes"/>
			<point x="600" y="636" type="line"/>
			<point x="824" y="636" type="line" smooth="yes"/>
			<point x="1024" y="636"/>
			<point x="1074" y="590"/>
			<point x="1074" y="402" type="curve"/>
			<point x="1158" y="402" type="line"/>
			<point x="1158" y="958" type="line"/>
			<point x="1074" y="958" type="line"/>
			<point x="1074" y="770"/>
			<point x="1024" y="724"/>
			<point x="824" y="724" type="curve" smooth="yes"/>
			<point x="600" y="724" type="line"/>
			<point x="600" y="1194" type="line" smooth="yes"/>
			<point x="600" y="1256"/>
			<point x="600" y="1270"/>
			<point x="698" y="1270" type="curve" smooth="yes"/>
			<point x="1030" y="1270" type="line" smooth="yes"/>
			<point x="1348" y="1270"/>
			<point x="1444" y="1192"/>
			<point x="1484" y="882" type="curve"/>
			<point x="1568" y="882" type="line"/>
		</contour>
	</outline>
</glyph>
<glyph name="G" format="2">
	<unicode hex="0047"/>
	<advance width="2066"/>
	<outline>
		<contour>
			<point x="1068" y="-44" type="curve" smooth="yes"/>
			<point x="1142" y="-44"/>
			<point x="1248" y="-40"/>
			<point x="1350" y="-12" type="curve" smooth="yes"/>
			<point x="1498" y="28"/>
			<point x="1550" y="100"/>
			<point x="1556" y="110" type="curve"/>
			<point x="1604" y="48"/>
			<point x="1674" y="0"/>
			<point x="1690" y="0" type="curve" smooth="yes"/>
			<point x="1718" y="0"/>
			<point x="1718" y="26"/>
			<point x="1718" y="56" type="curve" smooth="yes"/>
			<point x="1718" y="167"/>
			<point x="1718" y="277"/>
			<point x="1718" y="388" type="curve" smooth="yes"/>
			<point x="1718" y="450"/>
			<point x="1718" y="468"/>
			<point x="1852" y="468" type="curve" smooth="yes"/>
			<point x="1865" y="468"/>
			<point x="1879" y="468"/>
			<point x="1892" y="468" type="curve"/>
			<point x="1892" y="497"/>
			<point x="1892" y="527"/>
			<point x="1892" y="556" type="curve"/>
			<point x="1774" y="550"/>
			<point x="1648" y="548"/>
			<point x="1590" y="548" type="curve" smooth="yes"/>
			<point x="1482" y="548"/>
			<point x="1294" y="548"/>
			<point x="1194" y="556" type="curve"/>
			<point x="1194" y="527"/>
			<point x="1194" y="497"/>
			<point x="1194" y="468" type="curve"/>
			<point x="1227" y="468"/>
			<point x="1261" y="468"/>
			<point x="1294" y="468" type="curve" smooth="yes"/>
			<point x="1506" y="468"/>
			<point x="1506" y="446"/>
			<point x="1506" y="384" type="curve" smooth="yes"/>
			<point x="1506" y="343"/>
			<point x="1506" y="301"/>
			<point x="1506" y="260" type="curve" smooth="yes"/>
			<point x="1506" y="214"/>
			<point x="1506" y="132"/>
			<point x="1370" y="82" type="curve" smooth="yes"/>
			<point x="1270" y="44"/>
			<point x="1148" y="44"/>
			<point x="1122" y="44" type="curve" smooth="yes"/>
			<point x="929" y="44"/>
			<point x="729" y="103"/>
			<point x="594" y="240" type="curve" smooth="yes"/>
			<point x="493" y="343"/>
			<point x="428" y="488"/>
			<point x="428" y="684" type="curve" smooth="yes"/>
			<point x="428" y="888"/>
			<point x="496" y="1034"/>
			<point x="597" y="1134" type="curve" smooth="yes"/>
			<point x="733" y="1269"/>
			<point x="926" y="1322"/>
			<point x="1092" y="1322" type="curve" smooth="yes"/>
			<point x="1272" y="1322"/>
			<point x="1566" y="1224"/>
			<point x="1630" y="854" type="curve" smooth="yes"/>
			<point x="1634" y="830"/>
			<point x="1658" y="830"/>
			<point x="1674" y="830" type="curve" smooth="yes"/>
			<point x="1718" y="830"/>
			<point x="1718" y="844"/>
			<point x="1718" y="886" type="curve" smooth="yes"/>
			<point x="1718" y="1042"/>
			<point x="1718" y="1198"/>
			<point x="1718" y="1354" type="curve" smooth="yes"/>
			<point x="1718" y="1388"/>
			<point x="1718" y="1410"/>
			<point x="1686" y="1410" type="curve" smooth="yes"/>
			<point x="1666" y="1410"/>
			<point x="1660" y="1402"/>
			<point x="1648" y="1386" type="curve" smooth="yes"/>
			<point x="1609" y="1335"/>
			<point x="1569" y="1283"/>
			<point x="1530" y="1232" type="curve"/>
			<point x="1436" y="1310"/>
			<point x="1290" y="1410"/>
			<point x="1056" y="1410" type="curve" smooth="yes"/>
			<point x="574" y="1410"/>
			<point x="194" y="1076"/>
			<point x="194" y="684" type="curve" smooth="yes"/>
			<point x="194" y="306"/>
			<point x="550" y="-44"/>
		</contour>
	</outline>
</glyph>
<glyph name="H" format="2">
	<unicode hex="0048"/>
	<advance width="1960"/>
	<outline>
		<contour>
			<point x="166" y="0" type="line"/>
			<point x="256" y="4"/>
			<point x="380" y="8"/>
			<point x="494" y="8" type="curve" smooth="yes"/>
			<point x="608" y="8"/>
			<point x="732" y="4"/>
			<point x="822" y="0" type="curve"/>
			<point x="822" y="88" type="line"/>
			<point x="762" y="88" type="line" smooth="yes"/>
			<point x="600" y="88"/>
			<point x="600" y="108"/>
			<point x="600" y="170" type="curve" smooth="yes"/>
			<point x="600" y="666" type="line"/>
			<point x="1360" y="666" type="line"/>
			<point x="1360" y="170" type="line" smooth="yes"/>
			<point x="1360" y="108"/>
			<point x="1360" y="88"/>
			<point x="1198" y="88" type="curve" smooth="yes"/>
			<point x="1138" y="88" type="line"/>
			<point x="1138" y="0" type="line"/>
			<point x="1228" y="4"/>
			<point x="1352" y="8"/>
			<point x="1466" y="8" type="curve" smooth="yes"/>
			<point x="1580" y="8"/>
			<point x="1704" y="4"/>
			<point x="1794" y="0" type="curve"/>
			<point x="1794" y="88" type="line"/>
			<point x="1734" y="88" type="line" smooth="yes"/>
			<point x="1572" y="88"/>
			<point x="1572" y="108"/>
			<point x="1572" y="170" type="curve" smooth="yes"/>
			<point x="1572" y="1196" type="line" smooth="yes"/>
			<point x="1572" y="1258"/>
			<point x="1572" y="1278"/>
			<point x="1734" y="1278" type="curve" smooth="yes"/>
			<point x="1794" y="1278" type="line"/>
			<point x="1794" y="1366" type="line"/>
			<point x="1704" y="1362"/>
			<point x="1580" y="1358"/>
			<point x="1466" y="1358" type="curve" smooth="yes"/>
			<point x="1352" y="1358"/>
			<point x="1228" y="1362"/>
			<point x="1138" y="1366" type="curve"/>
			<point x="1138" y="1278" type="line"/>
			<point x="1198" y="1278" type="line" smooth="yes"/>
			<point x="1360" y="1278"/>
			<point x="1360" y="1258"/>
			<point x="1360" y="1196" type="curve" smooth="yes"/>
			<point x="1360" y="754" type="line"/>
			<point x="600" y="754" type="line"/>
			<point x="600" y="1196" type="line" smooth="yes"/>
			<point x="600" y="1258"/>
			<point x="600" y="1278"/>
			<point x="762" y="1278" type="curve" smooth="yes"/>
			<point x="822" y="1278" type="line"/>
			<point x="822" y="1366" type="line"/>
			<point x="732" y="1362"/>
			<point x="608" y="1358"/>
			<point x="494" y="1358" type="curve" smooth="yes"/>
			<point x="380" y="1358"/>
			<point x="256" y="1362"/>
			<point x="166" y="1366" type="curve"/>
			<point x="166" y="1278" type="line"/>
			<point x="226" y="1278" type="line" smooth="yes"/>
			<point x="388" y="1278"/>
			<point x="388" y="1258"/>
			<point x="388" y="1196" type="curve" smooth="yes"/>
			<point x="388" y="170" type="line" smooth="yes"/>
			<point x="388" y="108"/>
			<point x="388" y="88"/>
			<point x="226" y="88" type="curve" smooth="yes"/>
			<point x="166" y="88" type="line"/>
		</contour>
	</outline>
</glyph>
<glyph name="I" format="2">
	<unicode hex="0049"/>
	<advance width="988"/>
	<outline>
		<contour>
			<point x="154" y="0" type="line"/>
			<point x="248" y="4"/>
			<point x="378" y="8"/>
			<point x="494" y="8" type="curve" smooth="yes"/>
			<point x="610" y="8"/>
			<point x="738" y="4"/>
			<point x="834" y="0" type="curve"/>
			<point x="834" y="88" type="line"/>
			<point x="768" y="88" type="line" smooth="yes"/>
			<point x="600" y="88"/>
			<point x="600" y="108"/>
			<point x="600" y="170" type="curve" smooth="yes"/>
			<point x="600" y="1196" type="line" smooth="yes"/>
			<point x="600" y="1258"/>
			<point x="600" y="1278"/>
			<point x="768" y="1278" type="curve" smooth="yes"/>
			<point x="834" y="1278" type="line"/>
			<point x="834" y="1366" type="line"/>
			<point x="740" y="1362"/>
			<point x="610" y="1358"/>
			<point x="494" y="1358" type="curve" smooth="yes"/>
			<point x="378" y="1358"/>
			<point x="250" y="1362"/>
			<point x="154" y="1366" type="curve"/>
			<point x="154" y="1278" type="line"/>
			<point x="220" y="1278" type="line" smooth="yes"/>
			<point x="388" y="1278"/>
			<point x="388" y="1258"/>
			<point x="388" y="1196" type="curve" smooth="yes"/>
			<point x="388" y="170" type="line" smooth="yes"/>
			<point x="388" y="108"/>
			<point x="388" y="88"/>
			<point x="220" y="88" type="curve" smooth="yes"/>
			<point x="154" y="88" type="line"/>
		</contour>
	</outline>
</glyph>
<glyph name="J" format="2">
	<unicode hex="004A"/>
	<advance width="1382"/>
	<outline>
		<contour>
			<point x="580" y="-44" type="curve" smooth="yes"/>
			<point x="798" y="-44"/>
			<point x="1026" y="78"/>
			<point x="1026" y="300" type="curve" smooth="yes"/>
			<point x="1026" y="1198" type="line" smooth="yes"/>
			<point x="1026" y="1260"/>
			<point x="1026" y="1278"/>
			<point x="1156" y="1278" type="curve" smooth="yes"/>
			<point x="1192" y="1278" type="line"/>
			<point x="1192" y="1366" type="line"/>
			<point x="1096" y="1360"/>
			<point x="1000" y="1358"/>
			<point x="904" y="1358" type="curve" smooth="yes"/>
			<point x="792" y="1358"/>
			<point x="644" y="1358"/>
			<point x="534" y="1366" type="curve"/>
			<point x="534" y="1278" type="line"/>
			<point x="622" y="1278" type="line" smooth="yes"/>
			<point x="822" y="1278"/>
			<point x="822" y="1258"/>
			<point x="822" y="1194" type="curve" smooth="yes"/>
			<point x="822" y="300" type="line" smooth="yes"/>
			<point x="822" y="114"/>
			<point x="694" y="22"/>
			<point x="576" y="22" type="curve" smooth="yes"/>
			<point x="538" y="22"/>
			<point x="410" y="30"/>
			<point x="336" y="106" type="curve"/>
			<point x="402" y="118"/>
			<point x="438" y="166"/>
			<point x="438" y="228" type="curve" smooth="yes"/>
			<point x="438" y="294"/>
			<point x="390" y="350"/>
			<point x="316" y="350" type="curve" smooth="yes"/>
			<point x="244" y="350"/>
			<point x="192" y="302"/>
			<point x="192" y="224" type="curve" smooth="yes"/>
			<point x="192" y="62"/>
			<point x="366" y="-44"/>
		</contour>
	</outline>
</glyph>
<glyph name="K" format="2">
	<unicode hex="004B"/>
	<advance width="2030"/>
	<outline>
		<contour>
			<point x="166" y="0" type="line"/>
			<point x="256" y="4"/>
			<point x="380" y="8"/>
			<point x="494" y="8" type="curve" smooth="yes"/>
			<point x="608" y="8"/>
			<point x="732" y="4"/>
			<point x="822" y="0" type="curve"/>
			<point x="822" y="88" type="line"/>
			<point x="762" y="88" type="line" smooth="yes"/>
			<point x="600" y="88"/>
			<point x="600" y="108"/>
			<point x="600" y="170" type="curve" smooth="yes"/>
			<point x="600" y="482" type="line"/>
			<point x="904" y="714" type="line"/>
			<point x="1352" y="198" type="line"/>
			<point x="1364" y="186"/>
			<point x="1386" y="158"/>
			<point x="1386" y="136" type="curve" smooth="yes"/>
			<point x="1386" y="88"/>
			<point x="1320" y="88"/>
			<point x="1284" y="88" type="curve"/>
			<point x="1284" y="0" type="line"/>
			<point x="1358" y="2"/>
			<point x="1512" y="8"/>
			<point x="1606" y="8" type="curve" smooth="yes"/>
			<point x="1700" y="8"/>
			<point x="1770" y="8"/>
			<point x="1868" y="0" type="curve"/>
			<point x="1868" y="88" type="line"/>
			<point x="1720" y="88"/>
			<point x="1688" y="102"/>
			<point x="1616" y="184" type="curve" smooth="yes"/>
			<point x="1056" y="828" type="line"/>
			<point x="1508" y="1172" type="line" smooth="yes"/>
			<point x="1570" y="1218"/>
			<point x="1680" y="1278"/>
			<point x="1834" y="1278" type="curve"/>
			<point x="1834" y="1366" type="line"/>
			<point x="1756" y="1360"/>
			<point x="1720" y="1358"/>
			<point x="1630" y="1358" type="curve" smooth="yes"/>
			<point x="1546" y="1358"/>
			<point x="1384" y="1364"/>
			<point x="1338" y="1366" type="curve"/>
			<point x="1338" y="1278" type="line"/>
			<point x="1352" y="1278"/>
			<point x="1404" y="1274"/>
			<point x="1404" y="1230" type="curve" smooth="yes"/>
			<point x="1404" y="1208"/>
			<point x="1392" y="1188"/>
			<point x="1360" y="1164" type="curve" smooth="yes"/>
			<point x="600" y="588" type="line"/>
			<point x="600" y="1196" type="line" smooth="yes"/>
			<point x="600" y="1258"/>
			<point x="600" y="1278"/>
			<point x="762" y="1278" type="curve" smooth="yes"/>
			<point x="822" y="1278" type="line"/>
			<point x="822" y="1366" type="line"/>
			<point x="732" y="1362"/>
			<point x="608" y="1358"/>
			<point x="494" y="1358" type="curve" smooth="yes"/>
			<point x="380" y="1358"/>
			<point x="256" y="1362"/>
			<point x="166" y="1366" type="curve"/>
			<point x="166" y="1278" type="line"/>
			<point x="226" y="1278" type="line" smooth="yes"/>
			<point x="388" y="1278"/>
			<point x="388" y="1258"/>
			<point x="388" y="1196" type="curve" smooth="yes"/>
			<point x="388" y="170" type="line" smooth="yes"/>
			<point x="388" y="108"/>
			<point x="388" y="88"/>
			<point x="226" y="88" type="curve" smooth="yes"/>
			<point x="166" y="88" type="line"/>
		</contour>
	</outline>
</glyph>
<glyph name="L" format="2">
	<unicode hex="004C"/>
	<advance width="1660"/>
	<outline>
		<contour>
			<point x="1500" y="542" type="line"/>
			<point x="1416" y="542" type="line"/>
			<point x="1386" y="310"/>
			<point x="1334" y="88"/>
			<point x="944" y="88" type="curve" smooth="yes"/>
			<point x="698" y="88" type="line" smooth="yes"/>
			<point x="600" y="88"/>
			<point x="600" y="102"/>
			<point x="600" y="164" type="curve" smooth="yes"/>
			<point x="600" y="1194" type="line" smooth="yes"/>
			<point x="600" y="1256"/>
			<point x="600" y="1278"/>
			<point x="792" y="1278" type="curve" smooth="yes"/>
			<point x="878" y="1278" type="line"/>
			<point x="878" y="1366" type="line"/>
			<point x="766" y="1358"/>
			<point x="618" y="1358"/>
			<point x="504" y="1358" type="curve" smooth="yes"/>
			<point x="380" y="1358"/>
			<point x="268" y="1362"/>
			<point x="166" y="1366" type="curve"/>
			<point x="166" y="1278" type="line"/>
			<point x="226" y="1278" type="line" smooth="yes"/>
			<point x="388" y="1278"/>
			<point x="388" y="1258"/>
			<point x="388" y="1196" type="curve" smooth="yes"/>
			<point x="388" y="170" type="line" smooth="yes"/>
			<point x="388" y="108"/>
			<point x="388" y="88"/>
			<point x="226" y="88" type="curve" smooth="yes"/>
			<point x="166" y="88" type="line"/>
			<point x="166" y="0" type="line"/>
			<point x="1434" y="0" type="line"/>
		</contour>
	</outline>
</glyph>
<glyph name="M" format="2">
	<unicode hex="004D"/>
	<advance width="2376"/>
	<outline>
		<contour>
			<point x="1188" y="188" type="line"/>
			<point x="650" y="1318" type="line" smooth="yes"/>
			<point x="628" y="1366"/>
			<point x="606" y="1366"/>
			<point x="564" y="1366" type="curve" smooth="yes"/>
			<point x="178" y="1366" type="line"/>
			<point x="178" y="1278" type="line"/>
			<point x="238" y="1278" type="line" smooth="yes"/>
			<point x="400" y="1278"/>
			<point x="400" y="1258"/>
			<point x="400" y="1196" type="curve" smooth="yes"/>
			<point x="400" y="222" type="line" smooth="yes"/>
			<point x="400" y="170"/>
			<point x="400" y="88"/>
			<point x="178" y="88" type="curve"/>
			<point x="178" y="88" type="line"/>
			<point x="178" y="0" type="line"/>
			<point x="268" y="6"/>
			<point x="356" y="8"/>
			<point x="446" y="8" type="curve" smooth="yes"/>
			<point x="502" y="8"/>
			<point x="632" y="6"/>
			<point x="714" y="0" type="curve"/>
			<point x="714" y="88" type="line"/>
			<point x="714" y="88" type="line"/>
			<point x="492" y="88"/>
			<point x="492" y="170"/>
			<point x="492" y="222" type="curve" smooth="yes"/>
			<point x="492" y="1266" type="line"/>
			<point x="494" y="1266" type="line"/>
			<point x="1074" y="48" type="line" smooth="yes"/>
			<point x="1090" y="14"/>
			<point x="1108" y="0"/>
			<point x="1136" y="0" type="curve" smooth="yes"/>
			<point x="1174" y="0"/>
			<point x="1188" y="28"/>
			<point x="1196" y="46" type="curve" smooth="yes"/>
			<point x="1786" y="1282" type="line"/>
			<point x="1788" y="1282" type="line"/>
			<point x="1788" y="170" type="line" smooth="yes"/>
			<point x="1788" y="108"/>
			<point x="1788" y="88"/>
			<point x="1626" y="88" type="curve" smooth="yes"/>
			<point x="1566" y="88" type="line"/>
			<point x="1566" y="0" type="line"/>
			<point x="1658" y="4"/>
			<point x="1774" y="8"/>
			<point x="1882" y="8" type="curve" smooth="yes"/>
			<point x="1990" y="8"/>
			<point x="2104" y="4"/>
			<point x="2198" y="0" type="curve"/>
			<point x="2198" y="88" type="line"/>
			<point x="2138" y="88" type="line" smooth="yes"/>
			<point x="1976" y="88"/>
			<point x="1976" y="108"/>
			<point x="1976" y="170" type="curve" smooth="yes"/>
			<point x="1976" y="1196" type="line" smooth="yes"/>
			<point x="1976" y="1258"/>
			<point x="1976" y="1278"/>
			<point x="2138" y="1278" type="curve" smooth="yes"/>
			<point x="2198" y="1278" type="line"/>
			<point x="2198" y="1366" type="line"/>
			<point x="1812" y="1366" type="line" smooth="yes"/>
			<point x="1768" y="1366"/>
			<point x="1750" y="1366"/>
			<point x="1728" y="1320" type="curve" smooth="yes"/>
		</contour>
	</outline>
</glyph>
<glyph name="N" format="2">
	<unicode hex="004E"/>
	<advance width="1960"/>
	<outline>
		<contour>
			<point x="1480" y="314" type="line"/>
			<point x="618" y="1342" type="line" smooth="yes"/>
			<point x="598" y="1366"/>
			<point x="594" y="1366"/>
			<point x="554" y="1366" type="curve" smooth="yes"/>
			<point x="166" y="1366" type="line"/>
			<point x="166" y="1278" type="line"/>
			<point x="244" y="1278" type="line" smooth="yes"/>
			<point x="268" y="1278"/>
			<point x="360" y="1276"/>
			<point x="380" y="1270" type="curve"/>
			<point x="386" y="1266"/>
			<point x="388" y="1264"/>
			<point x="388" y="1232" type="curve" smooth="yes"/>
			<point x="388" y="222" type="line" smooth="yes"/>
			<point x="388" y="170"/>
			<point x="388" y="88"/>
			<point x="166" y="88" type="curve"/>
			<point x="166" y="88" type="line"/>
			<point x="166" y="0" type="line"/>
			<point x="256" y="6"/>
			<point x="344" y="8"/>
			<point x="434" y="8" type="curve" smooth="yes"/>
			<point x="490" y="8"/>
			<point x="620" y="6"/>
			<point x="702" y="0" type="curve"/>
			<point x="702" y="88" type="line"/>
			<point x="702" y="88" type="line"/>
			<point x="480" y="88"/>
			<point x="480" y="170"/>
			<point x="480" y="222" type="curve" smooth="yes"/>
			<point x="480" y="1212" type="line"/>
			<point x="480" y="1212"/>
			<point x="480" y="1212"/>
			<point x="480" y="1212" type="curve"/>
			<point x="1476" y="24" type="line" smooth="yes"/>
			<point x="1496" y="0"/>
			<point x="1504" y="0"/>
			<point x="1526" y="0" type="curve" smooth="yes"/>
			<point x="1572" y="0"/>
			<point x="1572" y="18"/>
			<point x="1572" y="60" type="curve" smooth="yes"/>
			<point x="1572" y="1144" type="line" smooth="yes"/>
			<point x="1572" y="1196"/>
			<point x="1572" y="1278"/>
			<point x="1794" y="1278" type="curve"/>
			<point x="1794" y="1278" type="line"/>
			<point x="1794" y="1366" type="line"/>
			<point x="1704" y="1360"/>
			<point x="1616" y="1358"/>
			<point x="1526" y="1358" type="curve" smooth="yes"/>
			<point x="1470" y="1358"/>
			<point x="1340" y="1360"/>
			<point x="1258" y="1366" type="curve"/>
			<point x="1258" y="1278" type="line"/>
			<point x="1258" y="1278" type="line"/>
			<point x="1480" y="1278"/>
			<point x="1480" y="1196"/>
			<point x="1480" y="1144" type="curve" smooth="yes"/>
		</contour>
	</outline>
</glyph>
<glyph name="O" format="2">
	<unicode hex="004F"/>
	<advance width="1027"/>
	<outline>
		<contour>
			<point x="930" y="339" type="curve" smooth="yes"/>
			<point x="930" y="536"/>
			<point x="749" y="705"/>
			<point x="514" y="705" type="curve" smooth="yes"/>
			<point x="276" y="705"/>
			<point x="97" y="534"/>
			<point x="97" y="339" type="curve" smooth="yes"/>
			<point x="97" y="143"/>
			<point x="280" y="-22"/>
			<point x="513" y="-22" type="curve" smooth="yes"/>
			<point x="750" y="-22"/>
			<point x="930" y="145"/>
		</contour>
		<contour>
			<point x="514" y="15" type="curve" smooth="yes"/>
			<point x="439" y="15"/>
			<point x="364.4990221778" y="42.134919779"/>
			<point x="308.4988837077" y="97.5074312048" type="curve" smooth="yes"/>
			<point x="251.7478222461" y="153.6224495791"/>
			<point x="214" y="238.73743"/>
			<point x="214" y="354" type="curve" smooth="yes"/>
			<point x="214" y="456"/>
			<point x="247.9820965995" y="531.6203207191"/>
			<point x="298.9056539464" y="583.1022485456" type="curve" smooth="yes"/>
			<point x="356.7396673381" y="641.5704047087"/>
			<point x="436.42512" y="669"/>
			<point x="513" y="669" type="curve" smooth="yes"/>
			<point x="591.4995" y="669"/>
			<point x="669.999" y="641.3386968211"/>
			<point x="726.9995052585" y="584.296170884" type="curve" smooth="yes"/>
			<point x="778.917856665" y="532.3395453543"/>
			<point x="813" y="456"/>
			<point x="813" y="354" type="curve" smooth="yes"/>
			<point x="813" y="237.88911"/>
			<point x="774.7567505094" y="153.3164841903"/>
			<point x="718.4417751551" y="97.6833373184" type="curve" smooth="yes"/>
			<point x="661.7493551001" y="41.6773156234"/>
			<point x="586.74215" y="15"/>
		</contour>
	</outline>
</glyph>
<glyph name="P" format="2">
	<unicode hex="0050"/>
	<advance width="1800"/>
	<outline>
		<contour>
			<point x="604" y="608" type="line"/>
			<point x="1042" y="608" type="line" smooth="yes"/>
			<point x="1310" y="608"/>
			<point x="1604" y="760"/>
			<point x="1604" y="982" type="curve" smooth="yes"/>
			<point x="1604" y="1192"/>
			<point x="1340" y="1366"/>
			<point x="1022" y="1366" type="curve" smooth="yes"/>
			<point x="170" y="1366" type="line"/>
			<point x="170" y="1278" type="line"/>
			<point x="230" y="1278" type="line" smooth="yes"/>
			<point x="392" y="1278"/>
			<point x="392" y="1258"/>
			<point x="392" y="1196" type="curve" smooth="yes"/>
			<point x="392" y="170" type="line" smooth="yes"/>
			<point x="392" y="108"/>
			<point x="392" y="88"/>
			<point x="230" y="88" type="curve" smooth="yes"/>
			<point x="170" y="88" type="line"/>
			<point x="170" y="0" type="line"/>
			<point x="260" y="4"/>
			<point x="384" y="8"/>
			<point x="498" y="8" type="curve" smooth="yes"/>
			<point x="612" y="8"/>
			<point x="736" y="4"/>
			<point x="826" y="0" type="curve"/>
			<point x="826" y="88" type="line"/>
			<point x="766" y="88" type="line" smooth="yes"/>
			<point x="604" y="88"/>
			<point x="604" y="108"/>
			<point x="604" y="170" type="curve" smooth="yes"/>
		</contour>
		<contour>
			<point x="596" y="684" type="line"/>
			<point x="596" y="1202" type="line" smooth="yes"/>
			<point x="596" y="1264"/>
			<point x="596" y="1278"/>
			<point x="694" y="1278" type="curve" smooth="yes"/>
			<point x="974" y="1278" type="line" smooth="yes"/>
			<point x="1300" y="1278"/>
			<point x="1370" y="1138"/>
			<point x="1370" y="982" type="curve" smooth="yes"/>
			<point x="1370" y="818"/>
			<point x="1292" y="684"/>
			<point x="972" y="684" type="curve" smooth="yes"/>
		</contour>
	</outline>
</glyph>
<glyph name="Q" format="2">
  <advance width="1027"/>
  <unicode hex="0051"/>
  <outline>
    <contour>
      <point x="681" y="8" type="curve"/>
      <point x="811" y="56"/>
      <point x="930" y="179"/>
      <point x="930" y="339" type="curve" smooth="yes"/>
      <point x="930" y="536"/>
      <point x="749" y="705"/>
      <point x="514" y="705" type="curve" smooth="yes"/>
      <point x="276" y="705"/>
      <point x="97" y="534"/>
      <point x="97" y="339" type="curve" smooth="yes"/>
      <point x="97" y="143"/>
      <point x="280" y="-22"/>
      <point x="513" y="-22" type="curve" smooth="yes"/>
      <point x="528" y="-22"/>
      <point x="573" y="-22"/>
      <point x="628" y="-8" type="curve"/>
      <point x="659" y="-111"/>
      <point x="692" y="-194"/>
      <point x="785" y="-194" type="curve" smooth="yes"/>
      <point x="889" y="-194"/>
      <point x="937" y="-82"/>
      <point x="937" y="-7" type="curve" smooth="yes"/>
      <point x="937" y="0"/>
      <point x="937" y="16"/>
      <point x="920" y="16" type="curve" smooth="yes"/>
      <point x="916" y="16"/>
      <point x="905" y="13"/>
      <point x="904" y="1" type="curve" smooth="yes"/>
      <point x="897" y="-77"/>
      <point x="802" y="-77"/>
      <point x="794" y="-77" type="curve" smooth="yes"/>
      <point x="770" y="-77"/>
      <point x="732" y="-75"/>
    </contour>
    <contour>
      <point x="420" y="28" type="curve"/>
      <point x="314" y="60"/>
      <point x="210" y="158"/>
      <point x="210" y="339" type="curve" smooth="yes"/>
      <point x="210" y="562"/>
      <point x="363" y="669"/>
      <point x="513" y="669" type="curve" smooth="yes"/>
      <point x="667" y="669"/>
      <point x="817" y="560"/>
      <point x="817" y="339" type="curve" smooth="yes"/>
      <point x="817" y="194"/>
      <point x="749" y="94"/>
      <point x="656" y="48" type="curve"/>
      <point x="622" y="101"/>
      <point x="582" y="153"/>
      <point x="514" y="153" type="curve" smooth="yes"/>
      <point x="457" y="153"/>
      <point x="410" y="117"/>
      <point x="410" y="66" type="curve" smooth="yes"/>
      <point x="410" y="48"/>
      <point x="417" y="34"/>
    </contour>
    <contour>
      <point x="614" y="30" type="curve"/>
      <point x="566" y="15"/>
      <point x="530" y="14"/>
      <point x="514" y="14" type="curve" smooth="yes"/>
      <point x="454" y="14"/>
      <point x="443" y="51"/>
      <point x="443" y="66" type="curve" smooth="yes"/>
      <point x="443" y="98"/>
      <point x="476" y="120"/>
      <point x="514" y="120" type="curve" smooth="yes"/>
      <point x="563" y="120"/>
      <point x="590" y="88"/>
    </contour>
  </outline>
</glyph>
<glyph name="R" format="2">
	<unicode hex="0052"/>
	<advance width="1938"/>
	<outline>
		<contour>
			<point x="1194" y="682" type="curve"/>
			<point x="1322" y="716"/>
			<point x="1568" y="814"/>
			<point x="1568" y="998" type="curve" smooth="yes"/>
			<point x="1568" y="1206"/>
			<point x="1258" y="1366"/>
			<point x="926" y="1366" type="curve" smooth="yes"/>
			<point x="170" y="1366" type="line"/>
			<point x="170" y="1278" type="line"/>
			<point x="230" y="1278" type="line" smooth="yes"/>
			<point x="392" y="1278"/>
			<point x="392" y="1258"/>
			<point x="392" y="1196" type="curve" smooth="yes"/>
			<point x="392" y="170" type="line" smooth="yes"/>
			<point x="392" y="108"/>
			<point x="392" y="88"/>
			<point x="230" y="88" type="curve" smooth="yes"/>
			<point x="170" y="88" type="line"/>
			<point x="170" y="0" type="line"/>
			<point x="262" y="4"/>
			<point x="384" y="8"/>
			<point x="494" y="8" type="curve" smooth="yes"/>
			<point x="604" y="8"/>
			<point x="720" y="4"/>
			<point x="818" y="0" type="curve"/>
			<point x="818" y="88" type="line"/>
			<point x="758" y="88" type="line" smooth="yes"/>
			<point x="596" y="88"/>
			<point x="596" y="108"/>
			<point x="596" y="170" type="curve" smooth="yes"/>
			<point x="596" y="650" type="line"/>
			<point x="904" y="650" type="line" smooth="yes"/>
			<point x="1012" y="650"/>
			<point x="1106" y="622"/>
			<point x="1168" y="570" type="curve" smooth="yes"/>
			<point x="1242" y="510"/>
			<point x="1242" y="462"/>
			<point x="1242" y="344" type="curve" smooth="yes"/>
			<point x="1242" y="190"/>
			<point x="1242" y="112"/>
			<point x="1348" y="32" type="curve" smooth="yes"/>
			<point x="1424" y="-26"/>
			<point x="1544" y="-44"/>
			<point x="1630" y="-44" type="curve" smooth="yes"/>
			<point x="1822" y="-44"/>
			<point x="1874" y="120"/>
			<point x="1874" y="186" type="curve" smooth="yes"/>
			<point x="1874" y="224"/>
			<point x="1854" y="228"/>
			<point x="1832" y="228" type="curve" smooth="yes"/>
			<point x="1800" y="228"/>
			<point x="1792" y="216"/>
			<point x="1790" y="188" type="curve" smooth="yes"/>
			<point x="1782" y="74"/>
			<point x="1708" y="22"/>
			<point x="1640" y="22" type="curve" smooth="yes"/>
			<point x="1504" y="22"/>
			<point x="1486" y="174"/>
			<point x="1470" y="302" type="curve" smooth="yes"/>
			<point x="1464" y="356"/>
			<point x="1454" y="436"/>
			<point x="1448" y="462" type="curve" smooth="yes"/>
			<point x="1418" y="580"/>
			<point x="1314" y="650"/>
		</contour>
		<contour>
			<point x="596" y="716" type="line"/>
			<point x="596" y="1202" type="line" smooth="yes"/>
			<point x="596" y="1262"/>
			<point x="600" y="1272"/>
			<point x="660" y="1278" type="curve"/>
			<point x="708" y="1278"/>
			<point x="754" y="1278"/>
			<point x="802" y="1278" type="curve" smooth="yes"/>
			<point x="1028" y="1278"/>
			<point x="1334" y="1278"/>
			<point x="1334" y="998" type="curve" smooth="yes"/>
			<point x="1334" y="768"/>
			<point x="1106" y="716"/>
			<point x="904" y="716" type="curve" smooth="yes"/>
		</contour>
	</outline>
</glyph>
<glyph name="S" format="2">
	<unicode hex="0053"/>
	<advance width="1500"/>
	<outline>
		<contour>
			<point x="1182" y="328" type="curve" smooth="yes"/>
			<point x="1182" y="186"/>
			<point x="1042" y="44"/>
			<point x="810" y="44" type="curve" smooth="yes"/>
			<point x="552" y="44"/>
			<point x="292" y="130"/>
			<point x="278" y="408" type="curve" smooth="yes"/>
			<point x="276" y="442"/>
			<point x="276" y="454"/>
			<point x="236" y="454" type="curve" smooth="yes"/>
			<point x="194" y="454"/>
			<point x="194" y="438"/>
			<point x="194" y="396" type="curve" smooth="yes"/>
			<point x="194" y="12" type="line" smooth="yes"/>
			<point x="194" y="-22"/>
			<point x="194" y="-44"/>
			<point x="226" y="-44" type="curve" smooth="yes"/>
			<point x="246" y="-44"/>
			<point x="250" y="-38"/>
			<point x="262" y="-20" type="curve" smooth="yes"/>
			<point x="288" y="17"/>
			<point x="314" y="55"/>
			<point x="340" y="92" type="curve"/>
			<point x="488" y="-20"/>
			<point x="674" y="-44"/>
			<point x="810" y="-44" type="curve" smooth="yes"/>
			<point x="1112" y="-44"/>
			<point x="1304" y="154"/>
			<point x="1304" y="362" type="curve" smooth="yes"/>
			<point x="1304" y="512"/>
			<point x="1212" y="600"/>
			<point x="1176" y="634" type="curve" smooth="yes"/>
			<point x="1082" y="726"/>
			<point x="974" y="746"/>
			<point x="810" y="778" type="curve" smooth="yes"/>
			<point x="698" y="800"/>
			<point x="582" y="822"/>
			<point x="562" y="828" type="curve"/>
			<point x="482" y="844"/>
			<point x="316" y="918"/>
			<point x="316" y="1070" type="curve" smooth="yes"/>
			<point x="316" y="1202"/>
			<point x="464" y="1328"/>
			<point x="682" y="1328" type="curve" smooth="yes"/>
			<point x="1040" y="1328"/>
			<point x="1126" y="1092"/>
			<point x="1148" y="946" type="curve"/>
			<point x="1154" y="918"/>
			<point x="1162" y="912"/>
			<point x="1192" y="912" type="curve" smooth="yes"/>
			<point x="1234" y="912"/>
			<point x="1234" y="926"/>
			<point x="1234" y="968" type="curve" smooth="yes"/>
			<point x="1234" y="1354" type="line" smooth="yes"/>
			<point x="1234" y="1388"/>
			<point x="1234" y="1410"/>
			<point x="1202" y="1410" type="curve" smooth="yes"/>
			<point x="1192" y="1410"/>
			<point x="1180" y="1410"/>
			<point x="1162" y="1384" type="curve" smooth="yes"/>
			<point x="1136" y="1345"/>
			<point x="1110" y="1307"/>
			<point x="1084" y="1268" type="curve"/>
			<point x="990" y="1354"/>
			<point x="864" y="1410"/>
			<point x="682" y="1410" type="curve" smooth="yes"/>
			<point x="398" y="1410"/>
			<point x="194" y="1234"/>
			<point x="194" y="1032" type="curve" smooth="yes"/>
			<point x="194" y="920"/>
			<point x="254" y="834"/>
			<point x="316" y="782" type="curve" smooth="yes"/>
			<point x="418" y="696"/>
			<point x="518" y="676"/>
			<point x="610" y="658" type="curve" smooth="yes"/>
			<point x="648" y="650"/>
			<point x="912" y="598"/>
			<point x="926" y="596" type="curve"/>
			<point x="1060" y="564"/>
			<point x="1182" y="464"/>
		</contour>
	</outline>
</glyph>
<glyph name="T" format="2">
  <advance width="958"/>
  <unicode hex="0054"/>
  <outline>
    <contour>
      <point x="861" y="675" type="line"/>
      <point x="96" y="675" type="line"/>
      <point x="73" y="437" type="line"/>
      <point x="115" y="437" type="line"/>
      <point x="132" y="619"/>
      <point x="170" y="631"/>
      <point x="332" y="631" type="curve" smooth="yes"/>
      <point x="353" y="631"/>
      <point x="389" y="631"/>
      <point x="396" y="630" type="curve"/>
      <point x="424" y="628"/>
      <point x="426" y="624"/>
      <point x="426" y="593" type="curve" smooth="yes"/>
      <point x="426" y="86" type="line" smooth="yes"/>
      <point x="426" y="54"/>
      <point x="426" y="44"/>
      <point x="319" y="44" type="curve" smooth="yes"/>
      <point x="269" y="44" type="line"/>
      <point x="269" y="0" type="line"/>
      <point x="319" y="4"/>
      <point x="424" y="4"/>
      <point x="479" y="4" type="curve" smooth="yes"/>
      <point x="534" y="4"/>
      <point x="639" y="4"/>
      <point x="689" y="0" type="curve"/>
      <point x="689" y="44" type="line"/>
      <point x="639" y="44" type="line" smooth="yes"/>
      <point x="532" y="44"/>
      <point x="532" y="54"/>
      <point x="532" y="86" type="curve" smooth="yes"/>
      <point x="532" y="593" type="line" smooth="yes"/>
      <point x="532" y="622"/>
      <point x="534" y="627"/>
      <point x="560" y="630" type="curve" smooth="yes"/>
      <point x="569" y="631"/>
      <point x="603" y="631"/>
      <point x="625" y="631" type="curve" smooth="yes"/>
      <point x="787" y="631"/>
      <point x="825" y="620"/>
      <point x="842" y="437" type="curve"/>
      <point x="884" y="437" type="line"/>
    </contour>
  </outline>
</glyph>
<glyph name="U" format="2">
	<unicode hex="0055"/>
	<advance width="1960"/>
	<outline>
		<contour>
			<point x="1012" y="44" type="curve" smooth="yes"/>
			<point x="878" y="44"/>
			<point x="600" y="102"/>
			<point x="600" y="458" type="curve" smooth="yes"/>
			<point x="600" y="1196" type="line" smooth="yes"/>
			<point x="600" y="1258"/>
			<point x="600" y="1278"/>
			<point x="762" y="1278" type="curve" smooth="yes"/>
			<point x="822" y="1278" type="line"/>
			<point x="822" y="1366" type="line"/>
			<point x="732" y="1362"/>
			<point x="608" y="1358"/>
			<point x="494" y="1358" type="curve" smooth="yes"/>
			<point x="380" y="1358"/>
			<point x="256" y="1362"/>
			<point x="166" y="1366" type="curve"/>
			<point x="166" y="1278" type="line"/>
			<point x="226" y="1278" type="line" smooth="yes"/>
			<point x="388" y="1278"/>
			<point x="388" y="1258"/>
			<point x="388" y="1196" type="curve" smooth="yes"/>
			<point x="388" y="462" type="line" smooth="yes"/>
			<point x="388" y="168"/>
			<point x="678" y="-44"/>
			<point x="1008" y="-44" type="curve" smooth="yes"/>
			<point x="1324" y="-44"/>
			<point x="1572" y="180"/>
			<point x="1572" y="460" type="curve" smooth="yes"/>
			<point x="1572" y="1144" type="line" smooth="yes"/>
			<point x="1572" y="1196"/>
			<point x="1572" y="1278"/>
			<point x="1794" y="1278" type="curve"/>
			<point x="1794" y="1278" type="line"/>
			<point x="1794" y="1366" type="line"/>
			<point x="1696" y="1360"/>
			<point x="1556" y="1358"/>
			<point x="1528" y="1358" type="curve" smooth="yes"/>
			<point x="1480" y="1358"/>
			<point x="1352" y="1360"/>
			<point x="1262" y="1366" type="curve"/>
			<point x="1262" y="1278" type="line"/>
			<point x="1262" y="1278" type="line"/>
			<point x="1484" y="1278"/>
			<point x="1484" y="1196"/>
			<point x="1484" y="1144" type="curve" smooth="yes"/>
			<point x="1484" y="466" type="line" smooth="yes"/>
			<point x="1484" y="200"/>
			<point x="1260" y="44"/>
		</contour>
	</outline>
</glyph>
<glyph name="V" format="2">
	<unicode hex="0056"/>
	<advance width="1960"/>
	<outline>
		<contour>
			<point x="980" y="-44" type="curve" smooth="yes"/>
			<point x="1024" y="-44"/>
			<point x="1036" y="-30"/>
			<point x="1052" y="4" type="curve" smooth="yes"/>
			<point x="1600" y="1154" type="line" smooth="yes"/>
			<point x="1640" y="1238"/>
			<point x="1714" y="1278"/>
			<point x="1850" y="1278" type="curve"/>
			<point x="1850" y="1278" type="line"/>
			<point x="1850" y="1366" type="line"/>
			<point x="1780" y="1360"/>
			<point x="1700" y="1358"/>
			<point x="1630" y="1358" type="curve" smooth="yes"/>
			<point x="1604" y="1358"/>
			<point x="1462" y="1360"/>
			<point x="1370" y="1366" type="curve"/>
			<point x="1370" y="1278" type="line"/>
			<point x="1470" y="1278"/>
			<point x="1516" y="1234"/>
			<point x="1516" y="1192" type="curve" smooth="yes"/>
			<point x="1516" y="1176"/>
			<point x="1510" y="1164"/>
			<point x="1504" y="1152" type="curve" smooth="yes"/>
			<point x="1044" y="192" type="line"/>
			<point x="562" y="1204" type="line" smooth="yes"/>
			<point x="552" y="1224"/>
			<point x="552" y="1228"/>
			<point x="552" y="1232" type="curve" smooth="yes"/>
			<point x="552" y="1278"/>
			<point x="666" y="1278"/>
			<point x="718" y="1278" type="curve"/>
			<point x="718" y="1366" type="line"/>
			<point x="642" y="1364"/>
			<point x="490" y="1358"/>
			<point x="396" y="1358" type="curve" smooth="yes"/>
			<point x="336" y="1358"/>
			<point x="214" y="1360"/>
			<point x="110" y="1366" type="curve"/>
			<point x="110" y="1278" type="line"/>
			<point x="158" y="1278" type="line" smooth="yes"/>
			<point x="284" y="1278"/>
			<point x="306" y="1262"/>
			<point x="330" y="1214" type="curve" smooth="yes"/>
			<point x="908" y="4" type="line" smooth="yes"/>
			<point x="924" y="-30"/>
			<point x="936" y="-44"/>
		</contour>
	</outline>
</glyph>
<glyph name="W" format="2">
	<unicode hex="0057"/>
	<advance width="2654"/>
	<outline>
		<contour>
			<point x="920" y="232" type="line"/>
			<point x="532" y="1202" type="line"/>
			<point x="526" y="1220"/>
			<point x="524" y="1224"/>
			<point x="524" y="1230" type="curve" smooth="yes"/>
			<point x="524" y="1278"/>
			<point x="644" y="1278"/>
			<point x="700" y="1278" type="curve"/>
			<point x="700" y="1366" type="line"/>
			<point x="628" y="1364"/>
			<point x="472" y="1358"/>
			<point x="380" y="1358" type="curve" smooth="yes"/>
			<point x="288" y="1358"/>
			<point x="198" y="1360"/>
			<point x="106" y="1366" type="curve"/>
			<point x="106" y="1278" type="line"/>
			<point x="148" y="1278" type="line" smooth="yes"/>
			<point x="282" y="1278"/>
			<point x="290" y="1258"/>
			<point x="310" y="1206" type="curve" smooth="yes"/>
			<point x="790" y="8" type="line" smooth="yes"/>
			<point x="804" y="-24"/>
			<point x="810" y="-44"/>
			<point x="856" y="-44" type="curve" smooth="yes"/>
			<point x="900" y="-44"/>
			<point x="908" y="-26"/>
			<point x="920" y="6" type="curve" smooth="yes"/>
			<point x="1326" y="1022" type="line"/>
			<point x="1734" y="6" type="line" smooth="yes"/>
			<point x="1746" y="-26"/>
			<point x="1754" y="-44"/>
			<point x="1798" y="-44" type="curve" smooth="yes"/>
			<point x="1844" y="-44"/>
			<point x="1850" y="-24"/>
			<point x="1864" y="8" type="curve" smooth="yes"/>
			<point x="2324" y="1154" type="line" smooth="yes"/>
			<point x="2342" y="1198"/>
			<point x="2374" y="1278"/>
			<point x="2548" y="1278" type="curve"/>
			<point x="2548" y="1278" type="line"/>
			<point x="2548" y="1366" type="line"/>
			<point x="2454" y="1358"/>
			<point x="2340" y="1358"/>
			<point x="2334" y="1358" type="curve" smooth="yes"/>
			<point x="2244" y="1358"/>
			<point x="2124" y="1362"/>
			<point x="2062" y="1366" type="curve"/>
			<point x="2062" y="1278" type="line"/>
			<point x="2164" y="1278"/>
			<point x="2240" y="1242"/>
			<point x="2240" y="1184" type="curve" smooth="yes"/>
			<point x="2240" y="1170"/>
			<point x="2230" y="1148"/>
			<point x="2230" y="1146" type="curve"/>
			<point x="1864" y="232" type="line"/>
			<point x="1476" y="1196" type="line" smooth="yes"/>
			<point x="1466" y="1218"/>
			<point x="1466" y="1222"/>
			<point x="1466" y="1230" type="curve" smooth="yes"/>
			<point x="1466" y="1278"/>
			<point x="1586" y="1278"/>
			<point x="1642" y="1278" type="curve"/>
			<point x="1642" y="1366" type="line"/>
			<point x="1566" y="1364"/>
			<point x="1414" y="1358"/>
			<point x="1324" y="1358" type="curve" smooth="yes"/>
			<point x="1232" y="1358"/>
			<point x="1142" y="1360"/>
			<point x="1050" y="1366" type="curve"/>
			<point x="1050" y="1278" type="line"/>
			<point x="1090" y="1278" type="line" smooth="yes"/>
			<point x="1200" y="1278"/>
			<point x="1216" y="1264"/>
			<point x="1230" y="1250" type="curve" smooth="yes"/>
			<point x="1240" y="1240"/>
			<point x="1266" y="1174"/>
			<point x="1282" y="1136" type="curve"/>
		</contour>
	</outline>
</glyph>
<glyph name="X" format="2">
	<unicode hex="0058"/>
	<advance width="1960"/>
	<outline>
		<contour>
			<point x="1056" y="766" type="line"/>
			<point x="1400" y="1164" type="line" smooth="yes"/>
			<point x="1474" y="1250"/>
			<point x="1586" y="1278"/>
			<point x="1726" y="1278" type="curve"/>
			<point x="1726" y="1278" type="line"/>
			<point x="1726" y="1366" type="line"/>
			<point x="1632" y="1358"/>
			<point x="1568" y="1358"/>
			<point x="1476" y="1358" type="curve" smooth="yes"/>
			<point x="1364" y="1358"/>
			<point x="1254" y="1362"/>
			<point x="1188" y="1366" type="curve"/>
			<point x="1188" y="1278" type="line"/>
			<point x="1274" y="1276"/>
			<point x="1298" y="1230"/>
			<point x="1298" y="1204" type="curve" smooth="yes"/>
			<point x="1298" y="1182"/>
			<point x="1286" y="1170"/>
			<point x="1272" y="1152" type="curve"/>
			<point x="998" y="834" type="line"/>
			<point x="688" y="1202" type="line" smooth="yes"/>
			<point x="670" y="1222"/>
			<point x="670" y="1226"/>
			<point x="670" y="1232" type="curve" smooth="yes"/>
			<point x="670" y="1254"/>
			<point x="716" y="1278"/>
			<point x="790" y="1278" type="curve"/>
			<point x="790" y="1366" type="line"/>
			<point x="712" y="1364"/>
			<point x="566" y="1358"/>
			<point x="458" y="1358" type="curve" smooth="yes"/>
			<point x="344" y="1358"/>
			<point x="254" y="1362"/>
			<point x="164" y="1366" type="curve"/>
			<point x="164" y="1278" type="line"/>
			<point x="218" y="1278" type="line" smooth="yes"/>
			<point x="336" y="1278"/>
			<point x="378" y="1266"/>
			<point x="416" y="1220" type="curve" smooth="yes"/>
			<point x="870" y="682" type="line"/>
			<point x="458" y="202" type="line" smooth="yes"/>
			<point x="374" y="104"/>
			<point x="230" y="88"/>
			<point x="130" y="88" type="curve"/>
			<point x="130" y="88" type="line"/>
			<point x="130" y="0" type="line"/>
			<point x="224" y="8"/>
			<point x="288" y="8"/>
			<point x="380" y="8" type="curve" smooth="yes"/>
			<point x="492" y="8"/>
			<point x="602" y="4"/>
			<point x="668" y="0" type="curve"/>
			<point x="668" y="88" type="line"/>
			<point x="586" y="90"/>
			<point x="558" y="132"/>
			<point x="558" y="162" type="curve" smooth="yes"/>
			<point x="558" y="184"/>
			<point x="570" y="198"/>
			<point x="582" y="212" type="curve" smooth="yes"/>
			<point x="926" y="614" type="line"/>
			<point x="1310" y="160" type="line"/>
			<point x="1326" y="144"/>
			<point x="1326" y="140"/>
			<point x="1326" y="136" type="curve" smooth="yes"/>
			<point x="1326" y="112"/>
			<point x="1276" y="88"/>
			<point x="1206" y="88" type="curve"/>
			<point x="1206" y="0" type="line"/>
			<point x="1296" y="4"/>
			<point x="1438" y="8"/>
			<point x="1536" y="8" type="curve" smooth="yes"/>
			<point x="1616" y="8"/>
			<point x="1728" y="6"/>
			<point x="1832" y="0" type="curve"/>
			<point x="1832" y="88" type="line"/>
			<point x="1778" y="88" type="line" smooth="yes"/>
			<point x="1630" y="88"/>
			<point x="1612" y="108"/>
			<point x="1574" y="154" type="curve" smooth="yes"/>
		</contour>
	</outline>
</glyph>
<glyph name="Y" format="2">
	<unicode hex="0059"/>
	<advance width="1960"/>
	<outline>
		<contour>
			<point x="878" y="546" type="line"/>
			<point x="878" y="170" type="line" smooth="yes"/>
			<point x="878" y="108"/>
			<point x="878" y="88"/>
			<point x="716" y="88" type="curve" smooth="yes"/>
			<point x="656" y="88" type="line"/>
			<point x="656" y="0" type="line"/>
			<point x="748" y="4"/>
			<point x="870" y="8"/>
			<point x="980" y="8" type="curve" smooth="yes"/>
			<point x="1090" y="8"/>
			<point x="1206" y="4"/>
			<point x="1304" y="0" type="curve"/>
			<point x="1304" y="88" type="line"/>
			<point x="1244" y="88" type="line" smooth="yes"/>
			<point x="1082" y="88"/>
			<point x="1082" y="108"/>
			<point x="1082" y="172" type="curve" smooth="yes"/>
			<point x="1082" y="546" type="line"/>
			<point x="1568" y="1160" type="line" smooth="yes"/>
			<point x="1594" y="1194"/>
			<point x="1662" y="1278"/>
			<point x="1862" y="1278" type="curve"/>
			<point x="1862" y="1278" type="line"/>
			<point x="1862" y="1366" type="line"/>
			<point x="1792" y="1360"/>
			<point x="1710" y="1358"/>
			<point x="1640" y="1358" type="curve" smooth="yes"/>
			<point x="1560" y="1358"/>
			<point x="1446" y="1362"/>
			<point x="1378" y="1366" type="curve"/>
			<point x="1378" y="1278" type="line"/>
			<point x="1458" y="1278"/>
			<point x="1480" y="1244"/>
			<point x="1480" y="1216" type="curve" smooth="yes"/>
			<point x="1480" y="1192"/>
			<point x="1470" y="1180"/>
			<point x="1452" y="1158" type="curve" smooth="yes"/>
			<point x="1054" y="652" type="line"/>
			<point x="618" y="1206" type="line"/>
			<point x="598" y="1228"/>
			<point x="598" y="1232"/>
			<point x="598" y="1240" type="curve" smooth="yes"/>
			<point x="598" y="1278"/>
			<point x="676" y="1278"/>
			<point x="730" y="1278" type="curve"/>
			<point x="730" y="1366" type="line"/>
			<point x="652" y="1364"/>
			<point x="506" y="1358"/>
			<point x="394" y="1358" type="curve" smooth="yes"/>
			<point x="314" y="1358"/>
			<point x="202" y="1360"/>
			<point x="98" y="1366" type="curve"/>
			<point x="98" y="1278" type="line"/>
			<point x="152" y="1278" type="line" smooth="yes"/>
			<point x="290" y="1278"/>
			<point x="314" y="1258"/>
			<point x="348" y="1216" type="curve" smooth="yes"/>
		</contour>
	</outline>
</glyph>
<glyph name="Z" format="2">
	<unicode hex="005A"/>
	<advance width="1638"/>
	<outline>
		<contour>
			<point x="254" y="0" type="curve" smooth="yes"/>
			<point x="1414" y="0" type="line"/>
			<point x="1454" y="560" type="line"/>
			<point x="1370" y="560" type="line"/>
			<point x="1346" y="248"/>
			<point x="1266" y="94"/>
			<point x="886" y="94" type="curve" smooth="yes"/>
			<point x="464" y="94" type="line"/>
			<point x="1422" y="1270" type="line" smooth="yes"/>
			<point x="1442" y="1294"/>
			<point x="1442" y="1300"/>
			<point x="1442" y="1320" type="curve" smooth="yes"/>
			<point x="1442" y="1366"/>
			<point x="1422" y="1366"/>
			<point x="1382" y="1366" type="curve" smooth="yes"/>
			<point x="256" y="1366" type="line"/>
			<point x="230" y="890" type="line"/>
			<point x="314" y="890" type="line"/>
			<point x="338" y="1212"/>
			<point x="522" y="1278"/>
			<point x="772" y="1278" type="curve" smooth="yes"/>
			<point x="1174" y="1278" type="line"/>
			<point x="214" y="100" type="line" smooth="yes"/>
			<point x="194" y="76"/>
			<point x="194" y="70"/>
			<point x="194" y="48" type="curve" smooth="yes"/>
			<point x="194" y="0"/>
			<point x="212" y="0"/>
		</contour>
	</outline>
</glyph>
<glyph name="bracketleft" format="2">
	<unicode hex="005B"/>
	<advance width="804"/>
	<outline>
		<contour>
			<point x="694" y="1388" type="line"/>
			<point x="694" y="1500" type="line"/>
			<point x="346" y="1500" type="line"/>
			<point x="346" y="-500" type="line"/>
			<point x="694" y="-500" type="line"/>
			<point x="694" y="-388" type="line"/>
			<point x="458" y="-388" type="line"/>
			<point x="458" y="1388" type="line"/>
		</contour>
	</outline>
</glyph>
<glyph name="bracketright" format="2">
	<unicode hex="005D"/>
	<advance width="804"/>
	<outline>
		<contour>
			<point x="458" y="1500" type="line"/>
			<point x="110" y="1500" type="line"/>
			<point x="110" y="1388" type="line"/>
			<point x="346" y="1388" type="line"/>
			<point x="346" y="-388" type="line"/>
			<point x="110" y="-388" type="line"/>
			<point x="110" y="-500" type="line"/>
			<point x="458" y="-500" type="line"/>
		</contour>
	</outline>
</glyph>
<glyph name="grave" format="2">
	<unicode hex="0060"/>
	<advance width="1360"/>
	<outline>
		<contour>
			<point x="740" y="1004" type="line"/>
			<point x="792" y="1070" type="line"/>
			<point x="482" y="1364" type="line" smooth="yes"/>
			<point x="462" y="1382"/>
			<point x="448" y="1396"/>
			<point x="416" y="1396" type="curve" smooth="yes"/>
			<point x="358" y="1396"/>
			<point x="324" y="1344"/>
			<point x="324" y="1302" type="curve" smooth="yes"/>
			<point x="324" y="1260"/>
			<point x="350" y="1240"/>
			<point x="376" y="1224" type="curve" smooth="yes"/>
		</contour>
	</outline>
</glyph>
<glyph name="a" format="2">
	<unicode hex="0061"/>
	<advance width="1360"/>
	<outline>
		<contour>
			<point x="164" y="210" type="curve" smooth="yes"/>
			<point x="164" y="22"/>
			<point x="396" y="-22"/>
			<point x="556" y="-22" type="curve" smooth="yes"/>
			<point x="710" y="-22"/>
			<point x="830" y="40"/>
			<point x="892" y="142" type="curve"/>
			<point x="900" y="72"/>
			<point x="946" y="-12"/>
			<point x="1048" y="-12" type="curve" smooth="yes"/>
			<point x="1062" y="-12"/>
			<point x="1290" y="-12"/>
			<point x="1290" y="180" type="curve" smooth="yes"/>
			<point x="1290" y="290" type="line"/>
			<point x="1206" y="290" type="line"/>
			<point x="1206" y="184" type="line" smooth="yes"/>
			<point x="1206" y="164"/>
			<point x="1206" y="76"/>
			<point x="1126" y="76" type="curve" smooth="yes"/>
			<point x="1046" y="76"/>
			<point x="1046" y="164"/>
			<point x="1046" y="184" type="curve" smooth="yes"/>
			<point x="1046" y="594" type="line" smooth="yes"/>
			<point x="1046" y="690"/>
			<point x="996" y="766"/>
			<point x="914" y="817" type="curve" smooth="yes"/>
			<point x="833" y="869"/>
			<point x="720" y="896"/>
			<point x="596" y="896" type="curve" smooth="yes"/>
			<point x="474" y="896"/>
			<point x="242" y="890"/>
			<point x="242" y="720" type="curve" smooth="yes"/>
			<point x="242" y="646"/>
			<point x="298" y="612"/>
			<point x="348" y="612" type="curve" smooth="yes"/>
			<point x="402" y="612"/>
			<point x="454" y="650"/>
			<point x="454" y="718" type="curve" smooth="yes"/>
			<point x="454" y="766"/>
			<point x="426" y="796"/>
			<point x="408" y="808" type="curve"/>
			<point x="474" y="830"/>
			<point x="570" y="830"/>
			<point x="592" y="830" type="curve" smooth="yes"/>
			<point x="762" y="830"/>
			<point x="868" y="736"/>
			<point x="868" y="592" type="curve" smooth="yes"/>
			<point x="868" y="540" type="line"/>
			<point x="674" y="530"/>
			<point x="566" y="524"/>
			<point x="412" y="470" type="curve" smooth="yes"/>
			<point x="280" y="424"/>
			<point x="164" y="340"/>
		</contour>
		<contour>
			<point x="348" y="210" type="curve" smooth="yes"/>
			<point x="348" y="276"/>
			<point x="390" y="460"/>
			<point x="868" y="480" type="curve"/>
			<point x="868" y="284" type="line" smooth="yes"/>
			<point x="868" y="194"/>
			<point x="828" y="138"/>
			<point x="778" y="103" type="curve" smooth="yes"/>
			<point x="704" y="51"/>
			<point x="608" y="44"/>
			<point x="578" y="44" type="curve" smooth="yes"/>
			<point x="460" y="44"/>
			<point x="348" y="106"/>
		</contour>
	</outline>
</glyph>
<glyph name="b" format="2">
	<unicode hex="0062"/>
	<advance width="1500"/>
	<outline>
		<contour>
			<point x="318" y="0" type="line"/>
			<point x="402" y="0" type="line"/>
			<point x="425" y="39"/>
			<point x="447" y="79"/>
			<point x="470" y="118" type="curve"/>
			<point x="556" y="26"/>
			<point x="678" y="-22"/>
			<point x="804" y="-22" type="curve" smooth="yes"/>
			<point x="1108" y="-22"/>
			<point x="1354" y="182"/>
			<point x="1354" y="432" type="curve" smooth="yes"/>
			<point x="1354" y="672"/>
			<point x="1132" y="884"/>
			<point x="830" y="884" type="curve" smooth="yes"/>
			<point x="722" y="884"/>
			<point x="596" y="856"/>
			<point x="488" y="772" type="curve"/>
			<point x="488" y="1388" type="line"/>
			<point x="152" y="1366" type="line"/>
			<point x="152" y="1278" type="line"/>
			<point x="300" y="1278"/>
			<point x="318" y="1264"/>
			<point x="318" y="1166" type="curve" smooth="yes"/>
		</contour>
		<contour>
			<point x="792" y="44" type="curve" smooth="yes"/>
			<point x="656" y="44"/>
			<point x="552" y="120"/>
			<point x="496" y="212" type="curve"/>
			<point x="496" y="212"/>
			<point x="496" y="212"/>
			<point x="496" y="212" type="curve"/>
			<point x="496" y="668" type="line"/>
			<point x="496" y="668"/>
			<point x="496" y="668"/>
			<point x="496" y="668" type="curve"/>
			<point x="564" y="766"/>
			<point x="696" y="818"/>
			<point x="816" y="818" type="curve" smooth="yes"/>
			<point x="920" y="818"/>
			<point x="996" y="784"/>
			<point x="1052" y="730" type="curve" smooth="yes"/>
			<point x="1122" y="658"/>
			<point x="1154" y="552"/>
			<point x="1154" y="432" type="curve" smooth="yes"/>
			<point x="1154" y="316"/>
			<point x="1128" y="214"/>
			<point x="1050" y="140" type="curve" smooth="yes"/>
			<point x="986" y="80"/>
			<point x="888" y="44"/>
		</contour>
	</outline>
</glyph>
<glyph name="c" format="2">
	<unicode hex="0063"/>
	<advance width="1222"/>
	<outline>
		<contour>
			<point x="344" y="434" type="curve" smooth="yes"/>
			<point x="344" y="672"/>
			<point x="476" y="824"/>
			<point x="698" y="824" type="curve" smooth="yes"/>
			<point x="772" y="824"/>
			<point x="828" y="824"/>
			<point x="898" y="806" type="curve"/>
			<point x="870" y="786"/>
			<point x="854" y="754"/>
			<point x="854" y="718" type="curve" smooth="yes"/>
			<point x="854" y="652"/>
			<point x="904" y="612"/>
			<point x="960" y="612" type="curve" smooth="yes"/>
			<point x="1008" y="612"/>
			<point x="1066" y="644"/>
			<point x="1066" y="720" type="curve" smooth="yes"/>
			<point x="1066" y="890"/>
			<point x="844" y="896"/>
			<point x="704" y="896" type="curve" smooth="yes"/>
			<point x="312" y="896"/>
			<point x="144" y="632"/>
			<point x="144" y="432" type="curve" smooth="yes"/>
			<point x="144" y="184"/>
			<point x="378" y="-22"/>
			<point x="680" y="-22" type="curve" smooth="yes"/>
			<point x="1026" y="-22"/>
			<point x="1094" y="222"/>
			<point x="1094" y="240" type="curve" smooth="yes"/>
			<point x="1094" y="268"/>
			<point x="1064" y="268"/>
			<point x="1052" y="268" type="curve" smooth="yes"/>
			<point x="1020" y="268"/>
			<point x="1018" y="262"/>
			<point x="1008" y="238" type="curve" smooth="yes"/>
			<point x="940" y="72"/>
			<point x="794" y="50"/>
			<point x="706" y="50" type="curve" smooth="yes"/>
			<point x="534" y="50"/>
			<point x="344" y="166"/>
		</contour>
	</outline>
</glyph>
<glyph name="d" format="2">
	<unicode hex="0064"/>
	<advance width="1500"/>
	<outline>
		<contour>
			<point x="1002" y="98" type="curve"/>
			<point x="1002" y="-22" type="line"/>
			<point x="1346" y="0" type="line"/>
			<point x="1346" y="88" type="line"/>
			<point x="1198" y="88"/>
			<point x="1180" y="102"/>
			<point x="1180" y="200" type="curve" smooth="yes"/>
			<point x="1180" y="1388" type="line"/>
			<point x="844" y="1366" type="line"/>
			<point x="844" y="1278" type="line"/>
			<point x="992" y="1278"/>
			<point x="1010" y="1264"/>
			<point x="1010" y="1166" type="curve" smooth="yes"/>
			<point x="1010" y="776" type="line"/>
			<point x="966" y="814"/>
			<point x="858" y="884"/>
			<point x="692" y="884" type="curve" smooth="yes"/>
			<point x="392" y="884"/>
			<point x="144" y="682"/>
			<point x="144" y="430" type="curve" smooth="yes"/>
			<point x="144" y="188"/>
			<point x="370" y="-22"/>
			<point x="668" y="-22" type="curve" smooth="yes"/>
			<point x="832" y="-22"/>
			<point x="946" y="50"/>
		</contour>
		<contour>
			<point x="344" y="430" type="curve" smooth="yes"/>
			<point x="344" y="484"/>
			<point x="348" y="616"/>
			<point x="434" y="708" type="curve" smooth="yes"/>
			<point x="504" y="780"/>
			<point x="608" y="818"/>
			<point x="706" y="818" type="curve" smooth="yes"/>
			<point x="764" y="818"/>
			<point x="906" y="806"/>
			<point x="1002" y="670" type="curve"/>
			<point x="1002" y="670"/>
			<point x="1002" y="670"/>
			<point x="1002" y="670" type="curve"/>
			<point x="1002" y="218" type="line"/>
			<point x="1002" y="218"/>
			<point x="1002" y="218"/>
			<point x="1002" y="218" type="curve"/>
			<point x="906" y="70"/>
			<point x="758" y="44"/>
			<point x="680" y="44" type="curve" smooth="yes"/>
			<point x="580" y="44"/>
			<point x="480" y="84"/>
			<point x="414" y="172" type="curve" smooth="yes"/>
			<point x="350" y="254"/>
			<point x="344" y="368"/>
		</contour>
	</outline>
</glyph>
<glyph name="e" format="2">
	<unicode hex="0065"/>
	<advance width="1222"/>
	<outline>
		<contour>
			<point x="330" y="450" type="curve"/>
			<point x="1034" y="450" type="line" smooth="yes"/>
			<point x="1076" y="450"/>
			<point x="1094" y="450"/>
			<point x="1094" y="498" type="curve" smooth="yes"/>
			<point x="1094" y="632"/>
			<point x="1022" y="896"/>
			<point x="648" y="896" type="curve" smooth="yes"/>
			<point x="344" y="896"/>
			<point x="130" y="678"/>
			<point x="130" y="440" type="curve" smooth="yes"/>
			<point x="130" y="186"/>
			<point x="374" y="-22"/>
			<point x="678" y="-22" type="curve" smooth="yes"/>
			<point x="996" y="-22"/>
			<point x="1094" y="200"/>
			<point x="1094" y="238" type="curve" smooth="yes"/>
			<point x="1094" y="272"/>
			<point x="1062" y="272"/>
			<point x="1052" y="272" type="curve" smooth="yes"/>
			<point x="1022" y="272"/>
			<point x="1018" y="264"/>
			<point x="1006" y="236" type="curve" smooth="yes"/>
			<point x="950" y="98"/>
			<point x="802" y="50"/>
			<point x="690" y="50" type="curve" smooth="yes"/>
			<point x="528" y="50"/>
			<point x="438" y="140"/>
			<point x="408" y="174" type="curve" smooth="yes"/>
			<point x="330" y="270"/>
			<point x="330" y="396"/>
		</contour>
		<contour>
			<point x="334" y="512" type="line"/>
			<point x="358" y="776"/>
			<point x="552" y="830"/>
			<point x="646" y="830" type="curve" smooth="yes"/>
			<point x="924" y="830"/>
			<point x="938" y="570"/>
			<point x="940" y="512" type="curve"/>
		</contour>
	</outline>
</glyph>
<glyph name="f" format="2">
	<unicode hex="0066"/>
	<advance width="437"/>
	<outline>
		<contour>
			<point x="167" y="84" type="line" smooth="yes"/>
			<point x="167" y="53"/>
			<point x="167" y="44"/>
			<point x="102" y="44" type="curve" smooth="yes"/>
			<point x="84" y="44" type="line"/>
			<point x="84" y="0" type="line"/>
			<point x="126" y="3"/>
			<point x="171" y="4"/>
			<point x="213" y="4" type="curve" smooth="yes"/>
			<point x="265" y="4"/>
			<point x="314" y="2"/>
			<point x="356" y="0" type="curve"/>
			<point x="356" y="44" type="line"/>
			<point x="329" y="44" type="line" smooth="yes"/>
			<point x="252" y="44"/>
			<point x="252" y="54"/>
			<point x="252" y="85" type="curve" smooth="yes"/>
			<point x="252" y="387" type="line"/>
			<point x="394" y="387" type="line"/>
			<point x="394" y="431" type="line"/>
			<point x="248" y="431" type="line"/>
			<point x="248" y="539" type="line" smooth="yes"/>
			<point x="248" y="633"/>
			<point x="310" y="672"/>
			<point x="356" y="672" type="curve" smooth="yes"/>
			<point x="363" y="672"/>
			<point x="383" y="670"/>
			<point x="383" y="667" type="curve"/>
			<point x="374" y="658"/>
			<point x="365" y="647"/>
			<point x="365" y="626" type="curve" smooth="yes"/>
			<point x="365" y="598"/>
			<point x="385" y="575"/>
			<point x="416" y="575" type="curve" smooth="yes"/>
			<point x="449" y="575"/>
			<point x="468" y="598"/>
			<point x="468" y="627" type="curve" smooth="yes"/>
			<point x="468" y="670"/>
			<point x="425" y="705"/>
			<point x="358" y="705" type="curve" smooth="yes"/>
			<point x="270" y="705"/>
			<point x="167" y="649"/>
			<point x="167" y="540" type="curve" smooth="yes"/>
			<point x="167" y="431" type="line"/>
			<point x="70" y="431" type="line"/>
			<point x="70" y="387" type="line"/>
			<point x="167" y="387" type="line"/>
		</contour>
	</outline>
</glyph>
<glyph name="g" format="2">
  <advance width="680"/>
  <unicode hex="0067"/>
  <outline>
    <contour>
      <point x="340" y="-206" type="curve" smooth="yes"/>
      <point x="474" y="-206"/>
      <point x="617" y="-162"/>
      <point x="617" y="-75" type="curve" smooth="yes"/>
      <point x="617" y="-30"/>
      <point x="591" y="18"/>
      <point x="542" y="42" type="curve" smooth="yes"/>
      <point x="475" y="74"/>
      <point x="411" y="74"/>
      <point x="304" y="74" type="curve" smooth="yes"/>
      <point x="279" y="74"/>
      <point x="235" y="74"/>
      <point x="230" y="75" type="curve" smooth="yes"/>
      <point x="182" y="83"/>
      <point x="171" y="122"/>
      <point x="171" y="141" type="curve" smooth="yes"/>
      <point x="171" y="161"/>
      <point x="182" y="178"/>
      <point x="185" y="178" type="curve"/>
      <point x="201" y="168"/>
      <point x="244" y="148"/>
      <point x="305" y="148" type="curve" smooth="yes"/>
      <point x="423" y="148"/>
      <point x="505" y="218"/>
      <point x="505" y="295" type="curve" smooth="yes"/>
      <point x="505" y="343"/>
      <point x="472" y="378"/>
      <point x="460" y="389" type="curve"/>
      <point x="508" y="418"/>
      <point x="553" y="419"/>
      <point x="569" y="420" type="curve"/>
      <point x="566" y="416"/>
      <point x="561" y="410"/>
      <point x="561" y="396" type="curve" smooth="yes"/>
      <point x="561" y="376"/>
      <point x="574" y="359"/>
      <point x="598" y="359" type="curve" smooth="yes"/>
      <point x="622" y="359"/>
      <point x="635" y="376"/>
      <point x="635" y="396" type="curve" smooth="yes"/>
      <point x="635" y="422"/>
      <point x="614" y="453"/>
      <point x="566" y="453" type="curve" smooth="yes"/>
      <point x="542" y="453"/>
      <point x="489" y="448"/>
      <point x="436" y="407" type="curve"/>
      <point x="413" y="421"/>
      <point x="368" y="442"/>
      <point x="306" y="442" type="curve" smooth="yes"/>
      <point x="188" y="442"/>
      <point x="106" y="372"/>
      <point x="106" y="295" type="curve" smooth="yes"/>
      <point x="106" y="244"/>
      <point x="143" y="207"/>
      <point x="158" y="195" type="curve"/>
      <point x="134" y="166"/>
      <point x="128" y="136"/>
      <point x="128" y="114" type="curve" smooth="yes"/>
      <point x="128" y="61"/>
      <point x="162" y="28"/>
      <point x="171" y="21" type="curve"/>
      <point x="121" y="8"/>
      <point x="63" y="-24"/>
      <point x="63" y="-77" type="curve" smooth="yes"/>
      <point x="63" y="-156"/>
      <point x="195" y="-206"/>
    </contour>
    <contour>
      <point x="306" y="181" type="curve" smooth="yes"/>
      <point x="218" y="181"/>
      <point x="194" y="239"/>
      <point x="194" y="295" type="curve" smooth="yes"/>
      <point x="194.0" y="326.21635"/>
      <point x="201.7312569176" y="358.7212428196"/>
      <point x="224.32431867197363" y="380.99610105090414" type="curve" smooth="yes"/>
      <point x="241.5379094087" y="397.9672534109"/>
      <point x="267.37859" y="409.0"/>
      <point x="305" y="409" type="curve" smooth="yes"/>
      <point x="393" y="409"/>
      <point x="417" y="351"/>
      <point x="417" y="295" type="curve" smooth="yes"/>
      <point x="417.0" y="263.78365"/>
      <point x="409.2687430824" y="231.27875718040002"/>
      <point x="386.67568132802637" y="209.00389894909588" type="curve" smooth="yes"/>
      <point x="369.4620905913" y="192.0327465891"/>
      <point x="343.62141" y="181.0"/>
    </contour>
    <contour>
      <point x="340" y="-173" type="curve" smooth="yes"/>
      <point x="225" y="-173"/>
      <point x="132" y="-129"/>
      <point x="132" y="-76" type="curve" smooth="yes"/>
      <point x="132.0" y="-62.75463"/>
      <point x="138.3895878515" y="-47.3185441652"/>
      <point x="151.55877486897293" y="-33.981866954802065" type="curve" smooth="yes"/>
      <point x="169.211286116" y="-16.10484507470001"/>
      <point x="199.04524999999998" y="-2.000000000000009"/>
      <point x="242" y="-2" type="curve" smooth="yes"/>
      <point x="307" y="-2" type="line" smooth="yes"/>
      <point x="407" y="-2"/>
      <point x="548" y="-2"/>
      <point x="548" y="-77" type="curve" smooth="yes"/>
      <point x="548" y="-126"/>
      <point x="459" y="-173"/>
    </contour>
  </outline>
</glyph>
<glyph name="h" format="2">
	<unicode hex="0068"/>
	<advance width="1500"/>
	<outline>
		<contour>
			<point x="330" y="168" type="line" smooth="yes"/>
			<point x="330" y="106"/>
			<point x="330" y="88"/>
			<point x="200" y="88" type="curve" smooth="yes"/>
			<point x="164" y="88" type="line"/>
			<point x="164" y="0" type="line"/>
			<point x="250" y="6"/>
			<point x="334" y="8"/>
			<point x="420" y="8" type="curve" smooth="yes"/>
			<point x="504" y="8"/>
			<point x="590" y="6"/>
			<point x="674" y="0" type="curve"/>
			<point x="674" y="88" type="line"/>
			<point x="638" y="88" type="line" smooth="yes"/>
			<point x="508" y="88"/>
			<point x="508" y="106"/>
			<point x="508" y="168" type="curve" smooth="yes"/>
			<point x="508" y="516" type="line" smooth="yes"/>
			<point x="508" y="742"/>
			<point x="716" y="818"/>
			<point x="840" y="818" type="curve" smooth="yes"/>
			<point x="988" y="818"/>
			<point x="1022" y="734"/>
			<point x="1022" y="606" type="curve" smooth="yes"/>
			<point x="1022" y="168" type="line" smooth="yes"/>
			<point x="1022" y="106"/>
			<point x="1022" y="88"/>
			<point x="892" y="88" type="curve" smooth="yes"/>
			<point x="856" y="88" type="line"/>
			<point x="856" y="0" type="line"/>
			<point x="942" y="6"/>
			<point x="1026" y="8"/>
			<point x="1112" y="8" type="curve" smooth="yes"/>
			<point x="1196" y="8"/>
			<point x="1282" y="6"/>
			<point x="1366" y="0" type="curve"/>
			<point x="1366" y="88" type="line"/>
			<point x="1330" y="88" type="line" smooth="yes"/>
			<point x="1200" y="88"/>
			<point x="1200" y="106"/>
			<point x="1200" y="168" type="curve" smooth="yes"/>
			<point x="1200" y="604" type="line" smooth="yes"/>
			<point x="1200" y="696"/>
			<point x="1174" y="742"/>
			<point x="1130" y="784" type="curve" smooth="yes"/>
			<point x="1068" y="846"/>
			<point x="972" y="884"/>
			<point x="864" y="884" type="curve" smooth="yes"/>
			<point x="634" y="884"/>
			<point x="530" y="748"/>
			<point x="500" y="702" type="curve"/>
			<point x="500" y="702" type="line"/>
			<point x="500" y="1388" type="line"/>
			<point x="164" y="1366" type="line"/>
			<point x="164" y="1278" type="line"/>
			<point x="312" y="1278"/>
			<point x="330" y="1264"/>
			<point x="330" y="1166" type="curve" smooth="yes"/>
		</contour>
	</outline>
</glyph>
<glyph name="i" format="2">
	<unicode hex="0069"/>
	<advance width="804"/>
	<outline>
		<contour>
			<point x="332" y="168" type="line" smooth="yes"/>
			<point x="332" y="106"/>
			<point x="332" y="88"/>
			<point x="202" y="88" type="curve" smooth="yes"/>
			<point x="166" y="88" type="line"/>
			<point x="166" y="0" type="line"/>
			<point x="248" y="6"/>
			<point x="332" y="8"/>
			<point x="414" y="8" type="curve" smooth="yes"/>
			<point x="490" y="8"/>
			<point x="578" y="6"/>
			<point x="652" y="0" type="curve"/>
			<point x="652" y="88" type="line"/>
			<point x="518" y="88"/>
			<point x="502" y="88"/>
			<point x="502" y="168" type="curve" smooth="yes"/>
			<point x="502" y="884" type="line"/>
			<point x="174" y="862" type="line"/>
			<point x="174" y="774" type="line"/>
			<point x="316" y="774"/>
			<point x="332" y="760"/>
			<point x="332" y="662" type="curve" smooth="yes"/>
		</contour>
		<contour>
			<point x="506" y="1232" type="curve" smooth="yes"/>
			<point x="506" y="1298"/>
			<point x="452" y="1354"/>
			<point x="384" y="1354" type="curve" smooth="yes"/>
			<point x="322" y="1354"/>
			<point x="262" y="1306"/>
			<point x="262" y="1232" type="curve" smooth="yes"/>
			<point x="262" y="1160"/>
			<point x="322" y="1110"/>
			<point x="384" y="1110" type="curve" smooth="yes"/>
			<point x="452" y="1110"/>
			<point x="506" y="1166"/>
		</contour>
	</outline>
</glyph>
<glyph name="l" format="2">
	<unicode hex="006C"/>
	<advance width="804"/>
	<outline>
		<contour>
			<point x="502" y="1388" type="line"/>
			<point x="166" y="1366" type="line"/>
			<point x="166" y="1278" type="line"/>
			<point x="314" y="1278"/>
			<point x="332" y="1264"/>
			<point x="332" y="1166" type="curve" smooth="yes"/>
			<point x="332" y="168" type="line" smooth="yes"/>
			<point x="332" y="106"/>
			<point x="332" y="88"/>
			<point x="202" y="88" type="curve" smooth="yes"/>
			<point x="166" y="88" type="line"/>
			<point x="166" y="0" type="line"/>
			<point x="250" y="6"/>
			<point x="332" y="8"/>
			<point x="416" y="8" type="curve" smooth="yes"/>
			<point x="500" y="8"/>
			<point x="584" y="6"/>
			<point x="668" y="0" type="curve"/>
			<point x="668" y="88" type="line"/>
			<point x="632" y="88" type="line" smooth="yes"/>
			<point x="502" y="88"/>
			<point x="502" y="106"/>
			<point x="502" y="168" type="curve" smooth="yes"/>
		</contour>
	</outline>
</glyph>
<glyph name="m" format="2">
	<unicode hex="006D"/>
	<advance width="2194"/>
	<outline>
		<contour>
			<point x="330" y="168" type="line" smooth="yes"/>
			<point x="330" y="106"/>
			<point x="330" y="88"/>
			<point x="200" y="88" type="curve" smooth="yes"/>
			<point x="164" y="88" type="line"/>
			<point x="164" y="0" type="line"/>
			<point x="250" y="6"/>
			<point x="334" y="8"/>
			<point x="420" y="8" type="curve" smooth="yes"/>
			<point x="504" y="8"/>
			<point x="590" y="6"/>
			<point x="674" y="0" type="curve"/>
			<point x="674" y="88" type="line"/>
			<point x="638" y="88" type="line" smooth="yes"/>
			<point x="508" y="88"/>
			<point x="508" y="106"/>
			<point x="508" y="168" type="curve" smooth="yes"/>
			<point x="508" y="516" type="line" smooth="yes"/>
			<point x="508" y="738"/>
			<point x="712" y="818"/>
			<point x="842" y="818" type="curve" smooth="yes"/>
			<point x="988" y="818"/>
			<point x="1024" y="736"/>
			<point x="1024" y="606" type="curve" smooth="yes"/>
			<point x="1024" y="168" type="line" smooth="yes"/>
			<point x="1024" y="106"/>
			<point x="1024" y="88"/>
			<point x="894" y="88" type="curve" smooth="yes"/>
			<point x="858" y="88" type="line"/>
			<point x="858" y="0" type="line"/>
			<point x="944" y="6"/>
			<point x="1028" y="8"/>
			<point x="1114" y="8" type="curve" smooth="yes"/>
			<point x="1198" y="8"/>
			<point x="1284" y="6"/>
			<point x="1368" y="0" type="curve"/>
			<point x="1368" y="88" type="line"/>
			<point x="1332" y="88" type="line" smooth="yes"/>
			<point x="1202" y="88"/>
			<point x="1202" y="106"/>
			<point x="1202" y="168" type="curve" smooth="yes"/>
			<point x="1202" y="516" type="line" smooth="yes"/>
			<point x="1202" y="738"/>
			<point x="1406" y="818"/>
			<point x="1536" y="818" type="curve" smooth="yes"/>
			<point x="1682" y="818"/>
			<point x="1718" y="736"/>
			<point x="1718" y="606" type="curve" smooth="yes"/>
			<point x="1718" y="168" type="line" smooth="yes"/>
			<point x="1718" y="106"/>
			<point x="1718" y="88"/>
			<point x="1588" y="88" type="curve" smooth="yes"/>
			<point x="1552" y="88" type="line"/>
			<point x="1552" y="0" type="line"/>
			<point x="1638" y="6"/>
			<point x="1722" y="8"/>
			<point x="1808" y="8" type="curve" smooth="yes"/>
			<point x="1892" y="8"/>
			<point x="1978" y="6"/>
			<point x="2062" y="0" type="curve"/>
			<point x="2062" y="88" type="line"/>
			<point x="2026" y="88" type="line" smooth="yes"/>
			<point x="1896" y="88"/>
			<point x="1896" y="106"/>
			<point x="1896" y="168" type="curve" smooth="yes"/>
			<point x="1896" y="604" type="line" smooth="yes"/>
			<point x="1896" y="698"/>
			<point x="1870" y="760"/>
			<point x="1828" y="802" type="curve" smooth="yes"/>
			<point x="1760" y="870"/>
			<point x="1652" y="884"/>
			<point x="1558" y="884" type="curve" smooth="yes"/>
			<point x="1362" y="884"/>
			<point x="1248" y="786"/>
			<point x="1192" y="698" type="curve"/>
			<point x="1142" y="882"/>
			<point x="938" y="884"/>
			<point x="864" y="884" type="curve" smooth="yes"/>
			<point x="658" y="884"/>
			<point x="542" y="774"/>
			<point x="492" y="688" type="curve"/>
			<point x="492" y="688" type="line"/>
			<point x="492" y="884" type="line"/>
			<point x="164" y="862" type="line"/>
			<point x="164" y="774" type="line"/>
			<point x="312" y="774"/>
			<point x="330" y="760"/>
			<point x="330" y="662" type="curve" smooth="yes"/>
		</contour>
	</outline>
</glyph>
<glyph name="n" format="2">
	<unicode hex="006E"/>
	<advance width="1500"/>
	<outline>
		<contour>
			<point x="330" y="168" type="line" smooth="yes"/>
			<point x="330" y="106"/>
			<point x="330" y="88"/>
			<point x="200" y="88" type="curve" smooth="yes"/>
			<point x="164" y="88" type="line"/>
			<point x="164" y="0" type="line"/>
			<point x="250" y="6"/>
			<point x="334" y="8"/>
			<point x="420" y="8" type="curve" smooth="yes"/>
			<point x="504" y="8"/>
			<point x="590" y="6"/>
			<point x="674" y="0" type="curve"/>
			<point x="674" y="88" type="line"/>
			<point x="638" y="88" type="line" smooth="yes"/>
			<point x="508" y="88"/>
			<point x="508" y="106"/>
			<point x="508" y="168" type="curve" smooth="yes"/>
			<point x="508" y="516" type="line" smooth="yes"/>
			<point x="508" y="742"/>
			<point x="716" y="818"/>
			<point x="840" y="818" type="curve" smooth="yes"/>
			<point x="988" y="818"/>
			<point x="1022" y="734"/>
			<point x="1022" y="606" type="curve" smooth="yes"/>
			<point x="1022" y="168" type="line" smooth="yes"/>
			<point x="1022" y="106"/>
			<point x="1022" y="88"/>
			<point x="892" y="88" type="curve" smooth="yes"/>
			<point x="856" y="88" type="line"/>
			<point x="856" y="0" type="line"/>
			<point x="942" y="6"/>
			<point x="1026" y="8"/>
			<point x="1112" y="8" type="curve" smooth="yes"/>
			<point x="1196" y="8"/>
			<point x="1282" y="6"/>
			<point x="1366" y="0" type="curve"/>
			<point x="1366" y="88" type="line"/>
			<point x="1330" y="88" type="line" smooth="yes"/>
			<point x="1200" y="88"/>
			<point x="1200" y="106"/>
			<point x="1200" y="168" type="curve" smooth="yes"/>
			<point x="1200" y="604" type="line" smooth="yes"/>
			<point x="1200" y="694"/>
			<point x="1174" y="740"/>
			<point x="1132" y="784" type="curve" smooth="yes"/>
			<point x="1070" y="846"/>
			<point x="974" y="884"/>
			<point x="864" y="884" type="curve" smooth="yes"/>
			<point x="650" y="884"/>
			<point x="538" y="766"/>
			<point x="492" y="688" type="curve"/>
			<point x="492" y="688" type="line"/>
			<point x="492" y="884" type="line"/>
			<point x="164" y="862" type="line"/>
			<point x="164" y="774" type="line"/>
			<point x="312" y="774"/>
			<point x="330" y="760"/>
			<point x="330" y="662" type="curve" smooth="yes"/>
		</contour>
	</outline>
</glyph>
<glyph name="o" format="2">
	<unicode hex="006F"/>
	<advance width="680"/>
	<outline>
		<contour>
			<point x="615" y="213" type="curve" smooth="yes"/>
			<point x="615" y="338"/>
			<point x="497" y="448"/>
			<point x="340" y="448" type="curve" smooth="yes"/>
			<point x="183" y="448"/>
			<point x="65" y="338"/>
			<point x="65" y="213" type="curve" smooth="yes"/>
			<point x="65" y="93"/>
			<point x="184" y="-11"/>
			<point x="340" y="-11" type="curve" smooth="yes"/>
			<point x="497" y="-11"/>
			<point x="615" y="93"/>
		</contour>
		<contour>
			<point x="340" y="25" type="curve" smooth="yes"/>
			<point x="279" y="25"/>
			<point x="239.2631828575" y="43.1036556901"/>
			<point x="213.3772652089" y="68.7654138843" type="curve" smooth="yes"/>
			<point x="165" y="116.72375551"/>
			<point x="165" y="191.07993"/>
			<point x="165" y="223" type="curve" smooth="yes"/>
			<point x="165" y="252.05695"/>
			<point x="165" y="323.6419232182"/>
			<point x="212.1140659572" y="370.7183343783" type="curve" smooth="yes"/>
			<point x="237.9647457175" y="396.5483535973"/>
			<point x="277.99925" y="415"/>
			<point x="340" y="415" type="curve" smooth="yes"/>
			<point x="402.00075" y="415"/>
			<point x="442.0352542825" y="396.5483535973"/>
			<point x="467.8859340428" y="370.7183343783" type="curve" smooth="yes"/>
			<point x="515" y="323.6419232182"/>
			<point x="515" y="252"/>
			<point x="515" y="223" type="curve" smooth="yes"/>
			<point x="515" y="191.07993"/>
			<point x="515" y="116.72375551"/>
			<point x="466.6227347911" y="68.7654138843" type="curve" smooth="yes"/>
			<point x="440.7368171425" y="43.1036556901"/>
			<point x="400.99975" y="25"/>
		</contour>
	</outline>
</glyph>
<glyph name="q" format="2">
	<unicode hex="0071"/>
	<advance width="1430"/>
	<outline>
		<contour>
			<point x="144" y="430" type="curve" smooth="yes"/>
			<point x="144" y="182"/>
			<point x="380" y="-22"/>
			<point x="666" y="-22" type="curve" smooth="yes"/>
			<point x="792" y="-22"/>
			<point x="914" y="26"/>
			<point x="1002" y="114" type="curve"/>
			<point x="1002" y="-220" type="line" smooth="yes"/>
			<point x="1002" y="-282"/>
			<point x="1002" y="-300"/>
			<point x="872" y="-300" type="curve" smooth="yes"/>
			<point x="836" y="-300" type="line"/>
			<point x="836" y="-388" type="line"/>
			<point x="922" y="-382"/>
			<point x="1006" y="-380"/>
			<point x="1092" y="-380" type="curve" smooth="yes"/>
			<point x="1176" y="-380"/>
			<point x="1262" y="-382"/>
			<point x="1346" y="-388" type="curve"/>
			<point x="1346" y="-300" type="line"/>
			<point x="1310" y="-300" type="line" smooth="yes"/>
			<point x="1180" y="-300"/>
			<point x="1180" y="-282"/>
			<point x="1180" y="-220" type="curve" smooth="yes"/>
			<point x="1180" y="884" type="line"/>
			<point x="1104" y="884" type="line"/>
			<point x="1032" y="714" type="line"/>
			<point x="946" y="826"/>
			<point x="826" y="884"/>
			<point x="688" y="884" type="curve" smooth="yes"/>
			<point x="390" y="884"/>
			<point x="144" y="682"/>
		</contour>
		<contour>
			<point x="344" y="430" type="curve" smooth="yes"/>
			<point x="344" y="646"/>
			<point x="514" y="812"/>
			<point x="706" y="812" type="curve" smooth="yes"/>
			<point x="886" y="812"/>
			<point x="1010" y="658"/>
			<point x="1010" y="542" type="curve" smooth="yes"/>
			<point x="1010" y="296" type="line" smooth="yes"/>
			<point x="1010" y="260"/>
			<point x="1010" y="248"/>
			<point x="974" y="198" type="curve" smooth="yes"/>
			<point x="884" y="72"/>
			<point x="754" y="44"/>
			<point x="682" y="44" type="curve" smooth="yes"/>
			<point x="490" y="44"/>
			<point x="344" y="222"/>
		</contour>
	</outline>
</glyph>
<glyph name="r" format="2">
	<unicode hex="0072"/>
	<advance width="1082"/>
	<outline>
		<contour>
			<point x="318" y="168" type="line" smooth="yes"/>
			<point x="318" y="106"/>
			<point x="318" y="88"/>
			<point x="188" y="88" type="curve" smooth="yes"/>
			<point x="152" y="88" type="line"/>
			<point x="152" y="0" type="line"/>
			<point x="236" y="6"/>
			<point x="326" y="8"/>
			<point x="410" y="8" type="curve" smooth="yes"/>
			<point x="514" y="8"/>
			<point x="612" y="4"/>
			<point x="696" y="0" type="curve"/>
			<point x="696" y="88" type="line"/>
			<point x="642" y="88" type="line" smooth="yes"/>
			<point x="488" y="88"/>
			<point x="488" y="108"/>
			<point x="488" y="170" type="curve" smooth="yes"/>
			<point x="488" y="448" type="line" smooth="yes"/>
			<point x="488" y="634"/>
			<point x="594" y="814"/>
			<point x="784" y="818" type="curve"/>
			<point x="784" y="818"/>
			<point x="784" y="818"/>
			<point x="784" y="818" type="curve"/>
			<point x="782" y="816"/>
			<point x="756" y="790"/>
			<point x="756" y="746" type="curve" smooth="yes"/>
			<point x="756" y="674"/>
			<point x="812" y="644"/>
			<point x="856" y="644" type="curve" smooth="yes"/>
			<point x="906" y="644"/>
			<point x="958" y="678"/>
			<point x="958" y="746" type="curve" smooth="yes"/>
			<point x="958" y="822"/>
			<point x="886" y="884"/>
			<point x="780" y="884" type="curve" smooth="yes"/>
			<point x="680" y="884"/>
			<point x="552" y="832"/>
			<point x="474" y="664" type="curve"/>
			<point x="472" y="664" type="line"/>
			<point x="472" y="884" type="line"/>
			<point x="152" y="862" type="line"/>
			<point x="152" y="774" type="line"/>
			<point x="300" y="774"/>
			<point x="318" y="760"/>
			<point x="318" y="662" type="curve" smooth="yes"/>
		</contour>
	</outline>
</glyph>
<glyph name="s" format="2">
	<unicode hex="0073"/>
	<advance width="1096"/>
	<outline>
		<contour>
			<point x="956" y="252" type="curve" smooth="yes"/>
			<point x="956" y="342"/>
			<point x="906" y="408"/>
			<point x="830" y="456" type="curve" smooth="yes"/>
			<point x="750" y="506"/>
			<point x="690" y="514"/>
			<point x="522" y="540" type="curve" smooth="yes"/>
			<point x="394" y="560"/>
			<point x="240" y="584"/>
			<point x="240" y="690" type="curve" smooth="yes"/>
			<point x="240" y="760"/>
			<point x="318" y="836"/>
			<point x="536" y="836" type="curve" smooth="yes"/>
			<point x="702" y="836"/>
			<point x="798" y="770"/>
			<point x="810" y="632" type="curve" smooth="yes"/>
			<point x="812" y="602"/>
			<point x="814" y="590"/>
			<point x="852" y="590" type="curve" smooth="yes"/>
			<point x="894" y="590"/>
			<point x="894" y="604"/>
			<point x="894" y="646" type="curve" smooth="yes"/>
			<point x="894" y="840" type="line" smooth="yes"/>
			<point x="894" y="874"/>
			<point x="894" y="896"/>
			<point x="862" y="896" type="curve" smooth="yes"/>
			<point x="852" y="896"/>
			<point x="844" y="894"/>
			<point x="828" y="882" type="curve" smooth="yes"/>
			<point x="820" y="874"/>
			<point x="784" y="842"/>
			<point x="776" y="842" type="curve" smooth="yes"/>
			<point x="756" y="842"/>
			<point x="708" y="896"/>
			<point x="538" y="896" type="curve" smooth="yes"/>
			<point x="208" y="896"/>
			<point x="140" y="744"/>
			<point x="140" y="652" type="curve" smooth="yes"/>
			<point x="140" y="596"/>
			<point x="160" y="554"/>
			<point x="192" y="522" type="curve" smooth="yes"/>
			<point x="272" y="444"/>
			<point x="426" y="420"/>
			<point x="556" y="400" type="curve" smooth="yes"/>
			<point x="640" y="388"/>
			<point x="758" y="368"/>
			<point x="818" y="308" type="curve" smooth="yes"/>
			<point x="842" y="286"/>
			<point x="856" y="256"/>
			<point x="856" y="218" type="curve" smooth="yes"/>
			<point x="856" y="148"/>
			<point x="798" y="44"/>
			<point x="556" y="44" type="curve" smooth="yes"/>
			<point x="420" y="44"/>
			<point x="288" y="94"/>
			<point x="228" y="306" type="curve" smooth="yes"/>
			<point x="218" y="342"/>
			<point x="216" y="348"/>
			<point x="182" y="348" type="curve" smooth="yes"/>
			<point x="140" y="348"/>
			<point x="140" y="332"/>
			<point x="140" y="290" type="curve" smooth="yes"/>
			<point x="140" y="34" type="line" smooth="yes"/>
			<point x="140" y="0"/>
			<point x="140" y="-22"/>
			<point x="172" y="-22" type="curve" smooth="yes"/>
			<point x="188" y="-22"/>
			<point x="190" y="-20"/>
			<point x="228" y="18" type="curve" smooth="yes"/>
			<point x="245" y="35"/>
			<point x="263" y="51"/>
			<point x="280" y="68" type="curve"/>
			<point x="380" y="-20"/>
			<point x="506" y="-22"/>
			<point x="556" y="-22" type="curve" smooth="yes"/>
			<point x="890" y="-22"/>
			<point x="956" y="152"/>
		</contour>
	</outline>
</glyph>
<glyph name="t" format="2">
	<unicode hex="0074"/>
	<advance width="1082"/>
	<outline>
		<contour>
			<point x="492" y="774" type="line"/>
			<point x="846" y="774" type="line"/>
			<point x="846" y="862" type="line"/>
			<point x="492" y="862" type="line"/>
			<point x="492" y="1230" type="line"/>
			<point x="408" y="1230" type="line"/>
			<point x="406" y="1042"/>
			<point x="306" y="846"/>
			<point x="102" y="840" type="curve"/>
			<point x="102" y="774" type="line"/>
			<point x="314" y="774" type="line"/>
			<point x="314" y="252" type="line" smooth="yes"/>
			<point x="314" y="24"/>
			<point x="502" y="-22"/>
			<point x="626" y="-22" type="curve" smooth="yes"/>
			<point x="776" y="-22"/>
			<point x="888" y="88"/>
			<point x="888" y="252" type="curve" smooth="yes"/>
			<point x="888" y="362" type="line"/>
			<point x="804" y="362" type="line"/>
			<point x="804" y="258" type="line" smooth="yes"/>
			<point x="804" y="108"/>
			<point x="716" y="50"/>
			<point x="646" y="50" type="curve" smooth="yes"/>
			<point x="492" y="50"/>
			<point x="492" y="210"/>
			<point x="492" y="252" type="curve" smooth="yes"/>
		</contour>
	</outline>
</glyph>
<glyph name="u" format="2">
	<unicode hex="0075"/>
	<advance width="1500"/>
	<outline>
		<contour>
			<point x="330" y="656" type="curve" smooth="yes"/>
			<point x="330" y="220" type="line"/>
			<point x="336" y="152"/>
			<point x="360" y="102"/>
			<point x="396" y="68" type="curve" smooth="yes"/>
			<point x="476" y="-14"/>
			<point x="614" y="-22"/>
			<point x="704" y="-22" type="curve" smooth="yes"/>
			<point x="872" y="-22"/>
			<point x="970" y="54"/>
			<point x="1030" y="148" type="curve"/>
			<point x="1030" y="148" type="line"/>
			<point x="1030" y="-22" type="line"/>
			<point x="1366" y="0" type="line"/>
			<point x="1366" y="88" type="line"/>
			<point x="1218" y="88"/>
			<point x="1200" y="102"/>
			<point x="1200" y="200" type="curve" smooth="yes"/>
			<point x="1200" y="884" type="line"/>
			<point x="856" y="862" type="line"/>
			<point x="856" y="774" type="line"/>
			<point x="1004" y="774"/>
			<point x="1022" y="760"/>
			<point x="1022" y="662" type="curve" smooth="yes"/>
			<point x="1022" y="336" type="line" smooth="yes"/>
			<point x="1022" y="152"/>
			<point x="884" y="44"/>
			<point x="720" y="44" type="curve" smooth="yes"/>
			<point x="516" y="44"/>
			<point x="508" y="126"/>
			<point x="508" y="228" type="curve" smooth="yes"/>
			<point x="508" y="884" type="line"/>
			<point x="164" y="862" type="line"/>
			<point x="164" y="774" type="line"/>
			<point x="318" y="774"/>
			<point x="330" y="758"/>
		</contour>
	</outline>
</glyph>
<glyph name="v" format="2">
	<unicode hex="0076"/>
	<advance width="1430"/>
	<outline>
		<contour>
			<point x="714" y="-22" type="curve" smooth="yes"/>
			<point x="760" y="-22"/>
			<point x="770" y="-2"/>
			<point x="784" y="24" type="curve" smooth="yes"/>
			<point x="891" y="234"/>
			<point x="998" y="444"/>
			<point x="1106" y="654" type="curve" smooth="yes"/>
			<point x="1140" y="720"/>
			<point x="1192" y="772"/>
			<point x="1316" y="774" type="curve"/>
			<point x="1316" y="803"/>
			<point x="1316" y="833"/>
			<point x="1316" y="862" type="curve"/>
			<point x="1264" y="858"/>
			<point x="1212" y="854"/>
			<point x="1142" y="854" type="curve" smooth="yes"/>
			<point x="1140" y="854"/>
			<point x="1010" y="856"/>
			<point x="938" y="862" type="curve"/>
			<point x="938" y="833"/>
			<point x="938" y="803"/>
			<point x="938" y="774" type="curve"/>
			<point x="992" y="772"/>
			<point x="1026" y="748"/>
			<point x="1026" y="702" type="curve" smooth="yes"/>
			<point x="1026" y="682"/>
			<point x="1018" y="664"/>
			<point x="1016" y="662" type="curve"/>
			<point x="931" y="497"/>
			<point x="847" y="332"/>
			<point x="762" y="166" type="curve"/>
			<point x="671" y="344"/>
			<point x="580" y="522"/>
			<point x="488" y="700" type="curve" smooth="yes"/>
			<point x="484" y="708"/>
			<point x="478" y="720"/>
			<point x="478" y="732" type="curve" smooth="yes"/>
			<point x="478" y="774"/>
			<point x="546" y="774"/>
			<point x="586" y="774" type="curve"/>
			<point x="586" y="803"/>
			<point x="586" y="833"/>
			<point x="586" y="862" type="curve"/>
			<point x="494" y="856"/>
			<point x="350" y="854"/>
			<point x="336" y="854" type="curve" smooth="yes"/>
			<point x="256" y="854"/>
			<point x="196" y="854"/>
			<point x="112" y="862" type="curve"/>
			<point x="112" y="833"/>
			<point x="112" y="803"/>
			<point x="112" y="774" type="curve"/>
			<point x="232" y="774"/>
			<point x="260" y="774"/>
			<point x="290" y="714" type="curve" smooth="yes"/>
			<point x="408" y="484"/>
			<point x="526" y="254"/>
			<point x="644" y="24" type="curve" smooth="yes"/>
			<point x="658" y="-4"/>
			<point x="668" y="-22"/>
		</contour>
	</outline>
</glyph>
<glyph name="w" format="2">
	<unicode hex="0077"/>
	<advance width="958"/>
	<outline>
		<contour>
			<point x="807" y="327" type="line" smooth="yes"/>
			<point x="831" y="382"/>
			<point x="875" y="387"/>
			<point x="903" y="387" type="curve"/>
			<point x="903" y="401.652"/>
			<point x="903" y="416.304"/>
			<point x="903" y="431" type="curve"/>
			<point x="875" y="428"/>
			<point x="850" y="427"/>
			<point x="817" y="427" type="curve" smooth="yes"/>
			<point x="784" y="427"/>
			<point x="743" y="428"/>
			<point x="710" y="431" type="curve"/>
			<point x="710" y="416.348"/>
			<point x="710" y="401.696"/>
			<point x="710" y="387" type="curve"/>
			<point x="753" y="386"/>
			<point x="767" y="364"/>
			<point x="767" y="346" type="curve" smooth="yes"/>
			<point x="767" y="342"/>
			<point x="765" y="333"/>
			<point x="763" y="329" type="curve" smooth="yes"/>
			<point x="653" y="80" type="line"/>
			<point x="535" y="350" type="line"/>
			<point x="529" y="362"/>
			<point x="529" y="364"/>
			<point x="529" y="365" type="curve" smooth="yes"/>
			<point x="529" y="387"/>
			<point x="568" y="387"/>
			<point x="588" y="387" type="curve"/>
			<point x="588" y="431" type="line"/>
			<point x="550" y="428"/>
			<point x="508" y="427"/>
			<point x="470" y="427" type="curve" smooth="yes"/>
			<point x="433" y="427"/>
			<point x="404" y="428"/>
			<point x="369" y="431" type="curve"/>
			<point x="369" y="387" type="line"/>
			<point x="389" y="387"/>
			<point x="416" y="387"/>
			<point x="429" y="382" type="curve" smooth="yes"/>
			<point x="441" y="377"/>
			<point x="455" y="357"/>
			<point x="455" y="347" type="curve"/>
			<point x="345" y="95" type="line"/>
			<point x="232" y="350" type="line" smooth="yes"/>
			<point x="230" y="354"/>
			<point x="227" y="360"/>
			<point x="227" y="365" type="curve" smooth="yes"/>
			<point x="227" y="387"/>
			<point x="266" y="387"/>
			<point x="286" y="387" type="curve"/>
			<point x="286" y="431" type="line"/>
			<point x="245" y="428"/>
			<point x="203" y="427"/>
			<point x="162" y="427" type="curve" smooth="yes"/>
			<point x="128" y="427"/>
			<point x="88" y="428"/>
			<point x="54" y="431" type="curve"/>
			<point x="54" y="387" type="line"/>
			<point x="105" y="387"/>
			<point x="123" y="387"/>
			<point x="136" y="358" type="curve" smooth="yes"/>
			<point x="287" y="13" type="line" smooth="yes"/>
			<point x="297" y="-9"/>
			<point x="307" y="-11"/>
			<point x="321" y="-11" type="curve" smooth="yes"/>
			<point x="338" y="-11"/>
			<point x="346" y="-7"/>
			<point x="354" y="11" type="curve" smooth="yes"/>
			<point x="478" y="294" type="line"/>
			<point x="603" y="11" type="line" smooth="yes"/>
			<point x="611" y="-7"/>
			<point x="619" y="-11"/>
			<point x="636" y="-11" type="curve" smooth="yes"/>
			<point x="650" y="-11"/>
			<point x="660" y="-9"/>
			<point x="670" y="13" type="curve" smooth="yes"/>
		</contour>
	</outline>
</glyph>
<glyph name="x" format="2">
	<unicode hex="0078"/>
	<advance width="1430"/>
	<outline>
		<contour>
			<point x="626" y="424" type="line"/>
			<point x="428" y="228" type="line" smooth="yes"/>
			<point x="354" y="156"/>
			<point x="278" y="90"/>
			<point x="104" y="88" type="curve"/>
			<point x="104" y="0" type="line"/>
			<point x="162" y="4"/>
			<point x="218" y="8"/>
			<point x="296" y="8" type="curve" smooth="yes"/>
			<point x="366" y="8"/>
			<point x="448" y="6"/>
			<point x="518" y="0" type="curve"/>
			<point x="518" y="88" type="line"/>
			<point x="488" y="92"/>
			<point x="482" y="114"/>
			<point x="482" y="126" type="curve" smooth="yes"/>
			<point x="482" y="160"/>
			<point x="510" y="190"/>
			<point x="518" y="198" type="curve" smooth="yes"/>
			<point x="573" y="253"/>
			<point x="629" y="307"/>
			<point x="684" y="362" type="curve"/>
			<point x="890" y="154" type="line" smooth="yes"/>
			<point x="908" y="136"/>
			<point x="908" y="134"/>
			<point x="908" y="124" type="curve" smooth="yes"/>
			<point x="908" y="90"/>
			<point x="864" y="88"/>
			<point x="856" y="88" type="curve"/>
			<point x="856" y="0" type="line"/>
			<point x="938" y="6"/>
			<point x="1094" y="8"/>
			<point x="1104" y="8" type="curve" smooth="yes"/>
			<point x="1184" y="8"/>
			<point x="1242" y="8"/>
			<point x="1326" y="0" type="curve"/>
			<point x="1326" y="88" type="line"/>
			<point x="1178" y="88"/>
			<point x="1152" y="100"/>
			<point x="1114" y="138" type="curve" smooth="yes"/>
			<point x="790" y="466" type="line"/>
			<point x="876" y="554" type="line" smooth="yes"/>
			<point x="1050" y="734"/>
			<point x="1114" y="772"/>
			<point x="1282" y="774" type="curve"/>
			<point x="1282" y="862" type="line"/>
			<point x="1224" y="858"/>
			<point x="1168" y="854"/>
			<point x="1090" y="854" type="curve" smooth="yes"/>
			<point x="1020" y="854"/>
			<point x="938" y="856"/>
			<point x="868" y="862" type="curve"/>
			<point x="868" y="774" type="line"/>
			<point x="904" y="770"/>
			<point x="906" y="740"/>
			<point x="906" y="736" type="curve" smooth="yes"/>
			<point x="906" y="700"/>
			<point x="886" y="680"/>
			<point x="830" y="624" type="curve" smooth="yes"/>
			<point x="730" y="528" type="line"/>
			<point x="590" y="668" type="line" smooth="yes"/>
			<point x="546" y="712"/>
			<point x="534" y="730"/>
			<point x="534" y="738" type="curve" smooth="yes"/>
			<point x="534" y="772"/>
			<point x="578" y="774"/>
			<point x="586" y="774" type="curve"/>
			<point x="586" y="862" type="line"/>
			<point x="504" y="856"/>
			<point x="348" y="854"/>
			<point x="338" y="854" type="curve" smooth="yes"/>
			<point x="258" y="854"/>
			<point x="200" y="854"/>
			<point x="116" y="862" type="curve"/>
			<point x="116" y="774" type="line"/>
			<point x="280" y="774"/>
			<point x="282" y="770"/>
			<point x="390" y="662" type="curve" smooth="yes"/>
		</contour>
	</outline>
</glyph>
<glyph name="y" format="2">
	<unicode hex="0079"/>
	<advance width="1430"/>
	<outline>
		<contour>
			<point x="334" y="-410" type="curve" smooth="yes"/>
			<point x="452" y="-410"/>
			<point x="584" y="-336"/>
			<point x="676" y="-162" type="curve" smooth="yes"/>
			<point x="1102" y="650" type="line" smooth="yes"/>
			<point x="1126" y="696"/>
			<point x="1166" y="772"/>
			<point x="1316" y="774" type="curve"/>
			<point x="1316" y="862" type="line"/>
			<point x="1274" y="858"/>
			<point x="1216" y="854"/>
			<point x="1140" y="854" type="curve" smooth="yes"/>
			<point x="1076" y="854"/>
			<point x="1002" y="856"/>
			<point x="938" y="862" type="curve"/>
			<point x="938" y="774" type="line"/>
			<point x="992" y="774"/>
			<point x="1024" y="744"/>
			<point x="1024" y="704" type="curve" smooth="yes"/>
			<point x="1024" y="688"/>
			<point x="1018" y="674"/>
			<point x="1012" y="660" type="curve"/>
			<point x="762" y="184" type="line"/>
			<point x="492" y="700" type="line" smooth="yes"/>
			<point x="480" y="722"/>
			<point x="480" y="728"/>
			<point x="480" y="734" type="curve" smooth="yes"/>
			<point x="480" y="770"/>
			<point x="534" y="774"/>
			<point x="588" y="774" type="curve"/>
			<point x="588" y="862" type="line"/>
			<point x="504" y="856"/>
			<point x="420" y="854"/>
			<point x="336" y="854" type="curve" smooth="yes"/>
			<point x="252" y="854"/>
			<point x="200" y="854"/>
			<point x="112" y="862" type="curve"/>
			<point x="112" y="774" type="line"/>
			<point x="254" y="774"/>
			<point x="264" y="766"/>
			<point x="294" y="710" type="curve"/>
			<point x="666" y="0" type="line"/>
			<point x="648" y="-36"/>
			<point x="630" y="-74"/>
			<point x="612" y="-108" type="curve" smooth="yes"/>
			<point x="544" y="-238"/>
			<point x="466" y="-344"/>
			<point x="334" y="-344" type="curve" smooth="yes"/>
			<point x="282" y="-344"/>
			<point x="266" y="-336"/>
			<point x="244" y="-322" type="curve"/>
			<point x="258" y="-316"/>
			<point x="300" y="-292"/>
			<point x="300" y="-232" type="curve" smooth="yes"/>
			<point x="300" y="-170"/>
			<point x="254" y="-134"/>
			<point x="202" y="-134" type="curve" smooth="yes"/>
			<point x="156" y="-134"/>
			<point x="104" y="-162"/>
			<point x="104" y="-234" type="curve" smooth="yes"/>
			<point x="104" y="-334"/>
			<point x="208" y="-410"/>
		</contour>
	</outline>
</glyph>
<glyph name="z" format="2">
	<unicode hex="007A"/>
	<advance width="1222"/>
	<outline>
		<contour>
			<point x="814" y="796" type="line"/>
			<point x="148" y="84" type="line" smooth="yes"/>
			<point x="128" y="62"/>
			<point x="126" y="60"/>
			<point x="126" y="40" type="curve" smooth="yes"/>
			<point x="126" y="0"/>
			<point x="150" y="0"/>
			<point x="186" y="0" type="curve" smooth="yes"/>
			<point x="1020" y="0" type="line"/>
			<point x="1060" y="396" type="line"/>
			<point x="976" y="396" type="line"/>
			<point x="952" y="170"/>
			<point x="916" y="72"/>
			<point x="634" y="72" type="curve" smooth="yes"/>
			<point x="366" y="72" type="line"/>
			<point x="1030" y="782" type="line" smooth="yes"/>
			<point x="1050" y="804"/>
			<point x="1052" y="806"/>
			<point x="1052" y="824" type="curve" smooth="yes"/>
			<point x="1052" y="862"/>
			<point x="1026" y="862"/>
			<point x="992" y="862" type="curve" smooth="yes"/>
			<point x="186" y="862" type="line"/>
			<point x="160" y="518" type="line"/>
			<point x="244" y="518" type="line"/>
			<point x="260" y="740"/>
			<point x="324" y="796"/>
			<point x="558" y="796" type="curve" smooth="yes"/>
		</contour>
	</outline>
</glyph>
<glyph name="exclamdown" format="2">
  <advance width="402"/>
  <unicode hex="00A1"/>
  <outline>
    <contour>
      <point x="201" y="-216" type="curve" smooth="yes"/>
      <point x="230" y="-216"/>
      <point x="262" y="-195"/>
      <point x="262" y="-158" type="curve"/>
      <point x="249.013" y="-12.811999999999983"/>
      <point x="236.026" y="132.37600000000003"/>
      <point x="223" y="278" type="curve" smooth="yes"/>
      <point x="222" y="294"/>
      <point x="221" y="302"/>
      <point x="201" y="302" type="curve" smooth="yes"/>
      <point x="181" y="302"/>
      <point x="180" y="294"/>
      <point x="179" y="278" type="curve" smooth="yes"/>
      <point x="166.013" y="132.81199999999998"/>
      <point x="153.026" y="-12.376000000000033"/>
      <point x="140" y="-158" type="curve"/>
      <point x="140" y="-195"/>
      <point x="172" y="-216"/>
    </contour>
    <contour>
      <point x="262" y="439" type="curve" smooth="yes"/>
      <point x="262" y="473"/>
      <point x="235" y="500"/>
      <point x="201" y="500" type="curve" smooth="yes"/>
      <point x="168" y="500"/>
      <point x="140" y="473"/>
      <point x="140" y="439" type="curve" smooth="yes"/>
      <point x="140" y="405"/>
      <point x="167" y="378"/>
      <point x="201" y="378" type="curve" smooth="yes"/>
      <point x="234" y="378"/>
      <point x="262" y="405"/>
    </contour>
  </outline>
</glyph>
<glyph name="dieresis" format="2">
	<unicode hex="00A8"/>
	<advance width="1360"/>
	<outline>
		<contour>
			<point x="552" y="1240" type="curve" smooth="yes"/>
			<point x="552" y="1302"/>
			<point x="502" y="1354"/>
			<point x="438" y="1354" type="curve" smooth="yes"/>
			<point x="376" y="1354"/>
			<point x="324" y="1304"/>
			<point x="324" y="1240" type="curve" smooth="yes"/>
			<point x="324" y="1178"/>
			<point x="374" y="1126"/>
			<point x="438" y="1126" type="curve" smooth="yes"/>
			<point x="500" y="1126"/>
			<point x="552" y="1176"/>
		</contour>
		<contour>
			<point x="1036" y="1240" type="curve" smooth="yes"/>
			<point x="1036" y="1302"/>
			<point x="986" y="1354"/>
			<point x="922" y="1354" type="curve" smooth="yes"/>
			<point x="860" y="1354"/>
			<point x="808" y="1304"/>
			<point x="808" y="1240" type="curve" smooth="yes"/>
			<point x="808" y="1178"/>
			<point x="858" y="1126"/>
			<point x="922" y="1126" type="curve" smooth="yes"/>
			<point x="984" y="1126"/>
			<point x="1036" y="1176"/>
		</contour>
	</outline>
</glyph>
<glyph name="macron" format="2">
	<unicode hex="00AF"/>
	<advance width="680"/>
	<outline>
		<contour>
			<point x="565" y="559" type="line"/>
			<point x="565" y="603" type="line"/>
			<point x="115" y="603" type="line"/>
			<point x="115" y="559" type="line"/>
		</contour>
	</outline>
</glyph>
<glyph name="acute" format="2">
	<unicode hex="00B4"/>
	<advance width="1360"/>
	<outline>
		<contour>
			<point x="620" y="1004" type="line"/>
			<point x="984" y="1224" type="line" smooth="yes"/>
			<point x="1008" y="1240"/>
			<point x="1036" y="1260"/>
			<point x="1036" y="1302" type="curve" smooth="yes"/>
			<point x="1036" y="1344"/>
			<point x="1002" y="1396"/>
			<point x="944" y="1396" type="curve" smooth="yes"/>
			<point x="912" y="1396"/>
			<point x="898" y="1382"/>
			<point x="878" y="1364" type="curve" smooth="yes"/>
			<point x="775" y="1266"/>
			<point x="672" y="1168"/>
			<point x="568" y="1070" type="curve"/>
		</contour>
	</outline>
</glyph>
<glyph name="cedilla" format="2">
	<unicode hex="00B8"/>
	<advance width="1222"/>
	<outline>
		<contour>
			<point x="798" y="-244" type="curve" smooth="yes"/>
			<point x="798" y="-330"/>
			<point x="650" y="-352"/>
			<point x="454" y="-352" type="curve" smooth="yes"/>
			<point x="430" y="-352"/>
			<point x="406" y="-352"/>
			<point x="382" y="-352" type="curve"/>
			<point x="382" y="-416" type="line"/>
			<point x="406" y="-416"/>
			<point x="430" y="-416"/>
			<point x="454" y="-416" type="curve" smooth="yes"/>
			<point x="546" y="-416"/>
			<point x="624" y="-416"/>
			<point x="736" y="-402" type="curve" smooth="yes"/>
			<point x="914" y="-380"/>
			<point x="976" y="-324"/>
			<point x="976" y="-244" type="curve" smooth="yes"/>
			<point x="976" y="-144"/>
			<point x="886" y="-100"/>
			<point x="768" y="-86" type="curve"/>
			<point x="768" y="-44" type="line"/>
			<point x="590" y="-44" type="line"/>
			<point x="590" y="-142" type="line"/>
			<point x="666" y="-142"/>
			<point x="798" y="-152"/>
		</contour>
	</outline>
</glyph>
<glyph name="questiondown" format="2">
	<unicode hex="00BF"/>
	<advance width="1290"/>
	<outline>
		<contour>
			<point x="194" y="-138" type="curve" smooth="yes"/>
			<point x="194" y="-366"/>
			<point x="448" y="-410"/>
			<point x="612" y="-410" type="curve" smooth="yes"/>
			<point x="854" y="-410"/>
			<point x="1096" y="-346"/>
			<point x="1096" y="-142" type="curve" smooth="yes"/>
			<point x="1096" y="-58"/>
			<point x="1028" y="-32"/>
			<point x="990" y="-32" type="curve" smooth="yes"/>
			<point x="938" y="-32"/>
			<point x="884" y="-70"/>
			<point x="884" y="-138" type="curve" smooth="yes"/>
			<point x="884" y="-196"/>
			<point x="922" y="-234"/>
			<point x="970" y="-244" type="curve"/>
			<point x="884" y="-336"/>
			<point x="688" y="-344"/>
			<point x="618" y="-344" type="curve" smooth="yes"/>
			<point x="404" y="-344"/>
			<point x="394" y="-250"/>
			<point x="394" y="-152" type="curve" smooth="yes"/>
			<point x="394" y="-44"/>
			<point x="428" y="-10"/>
			<point x="458" y="22" type="curve" smooth="yes"/>
			<point x="652" y="216"/>
			<point x="652" y="424"/>
			<point x="652" y="510" type="curve" smooth="yes"/>
			<point x="652" y="532"/>
			<point x="652" y="556"/>
			<point x="652" y="578" type="curve"/>
			<point x="648" y="604"/>
			<point x="622" y="604"/>
			<point x="610" y="604" type="curve" smooth="yes"/>
			<point x="568" y="604"/>
			<point x="568" y="588"/>
			<point x="568" y="546" type="curve" smooth="yes"/>
			<point x="568" y="490" type="line" smooth="yes"/>
			<point x="568" y="318"/>
			<point x="480" y="178"/>
			<point x="308" y="64" type="curve" smooth="yes"/>
			<point x="210" y="-2"/>
			<point x="194" y="-88"/>
		</contour>
		<contour>
			<point x="732" y="878" type="curve" smooth="yes"/>
			<point x="732" y="946"/>
			<point x="678" y="1000"/>
			<point x="610" y="1000" type="curve" smooth="yes"/>
			<point x="544" y="1000"/>
			<point x="488" y="946"/>
			<point x="488" y="878" type="curve" smooth="yes"/>
			<point x="488" y="810"/>
			<point x="542" y="756"/>
			<point x="610" y="756" type="curve" smooth="yes"/>
			<point x="676" y="756"/>
			<point x="732" y="810"/>
		</contour>
	</outline>
</glyph>
<glyph name="AE" format="2">
	<unicode hex="00C6"/>
	<advance width="2354"/>
	<outline>
		<contour>
			<point x="2094" y="1366" type="line"/>
			<point x="722" y="1366" type="line"/>
			<point x="722" y="1278" type="line"/>
			<point x="890" y="1278" type="line"/>
			<point x="400" y="210" type="line" smooth="yes"/>
			<point x="372" y="148"/>
			<point x="316" y="88"/>
			<point x="144" y="88" type="curve"/>
			<point x="144" y="88" type="line"/>
			<point x="144" y="0" type="line"/>
			<point x="216" y="6"/>
			<point x="300" y="8"/>
			<point x="374" y="8" type="curve" smooth="yes"/>
			<point x="460" y="8"/>
			<point x="548" y="6"/>
			<point x="634" y="0" type="curve"/>
			<point x="634" y="88" type="line"/>
			<point x="534" y="88"/>
			<point x="486" y="132"/>
			<point x="486" y="176" type="curve" smooth="yes"/>
			<point x="486" y="190"/>
			<point x="492" y="200"/>
			<point x="496" y="210" type="curve" smooth="yes"/>
			<point x="680" y="612" type="line"/>
			<point x="1084" y="612" type="line"/>
			<point x="1084" y="168" type="line" smooth="yes"/>
			<point x="1084" y="106"/>
			<point x="1084" y="88"/>
			<point x="918" y="88" type="curve"/>
			<point x="918" y="88" type="line"/>
			<point x="918" y="0" type="line"/>
			<point x="2128" y="0" type="line"/>
			<point x="2228" y="542" type="line"/>
			<point x="2144" y="542" type="line"/>
			<point x="2088" y="228"/>
			<point x="2028" y="88"/>
			<point x="1678" y="88" type="curve" smooth="yes"/>
			<point x="1382" y="88" type="line" smooth="yes"/>
			<point x="1284" y="88"/>
			<point x="1284" y="102"/>
			<point x="1284" y="164" type="curve" smooth="yes"/>
			<point x="1284" y="612" type="line"/>
			<point x="1504" y="612" type="line" smooth="yes"/>
			<point x="1706" y="612"/>
			<point x="1750" y="564"/>
			<point x="1750" y="378" type="curve"/>
			<point x="1834" y="378" type="line"/>
			<point x="1834" y="934" type="line"/>
			<point x="1750" y="934" type="line"/>
			<point x="1750" y="748"/>
			<point x="1706" y="700"/>
			<point x="1504" y="700" type="curve" smooth="yes"/>
			<point x="1284" y="700" type="line"/>
			<point x="1284" y="1202" type="line" smooth="yes"/>
			<point x="1284" y="1264"/>
			<point x="1284" y="1278"/>
			<point x="1382" y="1278" type="curve" smooth="yes"/>
			<point x="1660" y="1278" type="line" smooth="yes"/>
			<point x="1992" y="1278"/>
			<point x="2038" y="1160"/>
			<point x="2076" y="890" type="curve"/>
			<point x="2160" y="890" type="line"/>
		</contour>
		<contour>
			<point x="722" y="700" type="line"/>
			<point x="982" y="1272" type="line"/>
			<point x="1084" y="1272"/>
			<point x="1084" y="1234"/>
			<point x="1084" y="1194" type="curve" smooth="yes"/>
			<point x="1084" y="700" type="line"/>
		</contour>
	</outline>
</glyph>
<glyph name="Oslash" format="2">
	<unicode hex="00D8"/>
	<advance width="2054"/>
	<outline>
		<contour>
			<point x="1716" y="1440" type="line"/>
			<point x="1660" y="1488" type="line"/>
			<point x="1492" y="1286" type="line"/>
			<point x="1336" y="1378"/>
			<point x="1166" y="1410"/>
			<point x="1028" y="1410" type="curve" smooth="yes"/>
			<point x="552" y="1410"/>
			<point x="194" y="1068"/>
			<point x="194" y="678" type="curve" smooth="yes"/>
			<point x="194" y="522"/>
			<point x="252" y="300"/>
			<point x="500" y="118" type="curve"/>
			<point x="338" y="-74" type="line"/>
			<point x="357" y="-90"/>
			<point x="375" y="-106"/>
			<point x="394" y="-122" type="curve"/>
			<point x="562" y="78" type="line"/>
			<point x="642" y="34"/>
			<point x="796" y="-44"/>
			<point x="1026" y="-44" type="curve" smooth="yes"/>
			<point x="1500" y="-44"/>
			<point x="1860" y="290"/>
			<point x="1860" y="678" type="curve" smooth="yes"/>
			<point x="1860" y="866"/>
			<point x="1774" y="1086"/>
			<point x="1552" y="1246" type="curve"/>
		</contour>
		<contour>
			<point x="1008" y="16" type="curve" smooth="yes"/>
			<point x="890" y="16"/>
			<point x="762" y="48"/>
			<point x="624" y="150" type="curve"/>
			<point x="1482" y="1166" type="line"/>
			<point x="1598" y="1050"/>
			<point x="1608" y="838"/>
			<point x="1608" y="642" type="curve" smooth="yes"/>
			<point x="1608" y="407"/>
			<point x="1536" y="254"/>
			<point x="1438" y="156" type="curve" smooth="yes"/>
			<point x="1299" y="17"/>
			<point x="1128" y="14"/>
		</contour>
		<contour>
			<point x="570" y="200" type="line"/>
			<point x="424" y="344"/>
			<point x="406" y="558"/>
			<point x="406" y="678" type="curve" smooth="yes"/>
			<point x="406" y="917"/>
			<point x="478" y="1073"/>
			<point x="578" y="1173" type="curve" smooth="yes"/>
			<point x="716" y="1312"/>
			<point x="905" y="1344"/>
			<point x="1026" y="1344" type="curve" smooth="yes"/>
			<point x="1130" y="1344"/>
			<point x="1286" y="1324"/>
			<point x="1428" y="1214" type="curve"/>
		</contour>
	</outline>
</glyph>
<glyph name="germandbls" format="2">
	<unicode hex="00DF"/>
	<advance width="1360"/>
	<outline>
		<contour>
			<point x="870" y="824" type="curve"/>
			<point x="1008" y="866"/>
			<point x="1166" y="966"/>
			<point x="1166" y="1120" type="curve" smooth="yes"/>
			<point x="1166" y="1274"/>
			<point x="984" y="1410"/>
			<point x="740" y="1410" type="curve" smooth="yes"/>
			<point x="536" y="1410"/>
			<point x="318" y="1308"/>
			<point x="318" y="1106" type="curve" smooth="yes"/>
			<point x="318" y="862" type="line"/>
			<point x="152" y="862" type="line"/>
			<point x="152" y="774" type="line"/>
			<point x="318" y="774" type="line"/>
			<point x="318" y="168" type="line" smooth="yes"/>
			<point x="318" y="106"/>
			<point x="318" y="88"/>
			<point x="152" y="88" type="curve"/>
			<point x="152" y="0" type="line"/>
			<point x="216" y="6"/>
			<point x="362" y="8"/>
			<point x="376" y="8" type="curve" smooth="yes"/>
			<point x="412" y="8"/>
			<point x="444" y="8"/>
			<point x="488" y="0" type="curve"/>
			<point x="488" y="1104" type="line" smooth="yes"/>
			<point x="488" y="1330"/>
			<point x="690" y="1344"/>
			<point x="738" y="1344" type="curve" smooth="yes"/>
			<point x="850" y="1344"/>
			<point x="980" y="1280"/>
			<point x="980" y="1120" type="curve" smooth="yes"/>
			<point x="980" y="968"/>
			<point x="848" y="870"/>
			<point x="674" y="862" type="curve" smooth="yes"/>
			<point x="644" y="860"/>
			<point x="626" y="860"/>
			<point x="626" y="828" type="curve" smooth="yes"/>
			<point x="626" y="822"/>
			<point x="626" y="798"/>
			<point x="656" y="796" type="curve" smooth="yes"/>
			<point x="940" y="780"/>
			<point x="1048" y="548"/>
			<point x="1048" y="348" type="curve" smooth="yes"/>
			<point x="1048" y="114"/>
			<point x="894" y="44"/>
			<point x="792" y="44" type="curve" smooth="yes"/>
			<point x="780" y="44"/>
			<point x="734" y="44"/>
			<point x="690" y="72" type="curve"/>
			<point x="706" y="82"/>
			<point x="730" y="104"/>
			<point x="730" y="146" type="curve" smooth="yes"/>
			<point x="730" y="198"/>
			<point x="690" y="230"/>
			<point x="646" y="230" type="curve" smooth="yes"/>
			<point x="600" y="230"/>
			<point x="560" y="200"/>
			<point x="560" y="142" type="curve" smooth="yes"/>
			<point x="560" y="56"/>
			<point x="648" y="-22"/>
			<point x="796" y="-22" type="curve" smooth="yes"/>
			<point x="1028" y="-22"/>
			<point x="1234" y="136"/>
			<point x="1234" y="348" type="curve" smooth="yes"/>
			<point x="1234" y="572"/>
			<point x="1064" y="762"/>
		</contour>
	</outline>
</glyph>
<glyph name="ae" format="2">
	<unicode hex="00E6"/>
	<advance width="1916"/>
	<outline>
		<contour>
			<point x="172" y="198" type="curve" smooth="yes"/>
			<point x="172" y="8"/>
			<point x="420" y="-22"/>
			<point x="560" y="-22" type="curve" smooth="yes"/>
			<point x="814" y="-22"/>
			<point x="942" y="72"/>
			<point x="988" y="148" type="curve"/>
			<point x="1030" y="102"/>
			<point x="1174" y="-22"/>
			<point x="1404" y="-22" type="curve" smooth="yes"/>
			<point x="1690" y="-22"/>
			<point x="1788" y="196"/>
			<point x="1788" y="238" type="curve" smooth="yes"/>
			<point x="1788" y="272"/>
			<point x="1756" y="272"/>
			<point x="1746" y="272" type="curve" smooth="yes"/>
			<point x="1714" y="272"/>
			<point x="1712" y="262"/>
			<point x="1700" y="236" type="curve"/>
			<point x="1650" y="104"/>
			<point x="1526" y="50"/>
			<point x="1414" y="50" type="curve" smooth="yes"/>
			<point x="1302" y="50"/>
			<point x="1046" y="112"/>
			<point x="1046" y="450" type="curve"/>
			<point x="1728" y="450" type="line" smooth="yes"/>
			<point x="1770" y="450"/>
			<point x="1788" y="450"/>
			<point x="1788" y="498" type="curve" smooth="yes"/>
			<point x="1788" y="672"/>
			<point x="1690" y="896"/>
			<point x="1374" y="896" type="curve" smooth="yes"/>
			<point x="1194" y="896"/>
			<point x="1062" y="814"/>
			<point x="998" y="744" type="curve"/>
			<point x="982" y="764"/>
			<point x="876" y="896"/>
			<point x="596" y="896" type="curve" smooth="yes"/>
			<point x="474" y="896"/>
			<point x="242" y="890"/>
			<point x="242" y="720" type="curve" smooth="yes"/>
			<point x="242" y="646"/>
			<point x="298" y="612"/>
			<point x="348" y="612" type="curve" smooth="yes"/>
			<point x="402" y="612"/>
			<point x="454" y="650"/>
			<point x="454" y="718" type="curve" smooth="yes"/>
			<point x="454" y="766"/>
			<point x="426" y="796"/>
			<point x="408" y="808" type="curve"/>
			<point x="474" y="830"/>
			<point x="570" y="830"/>
			<point x="592" y="830" type="curve" smooth="yes"/>
			<point x="764" y="830"/>
			<point x="868" y="736"/>
			<point x="868" y="592" type="curve" smooth="yes"/>
			<point x="868" y="508" type="line"/>
			<point x="520" y="504"/>
			<point x="172" y="416"/>
		</contour>
		<contour>
			<point x="580" y="44" type="curve" smooth="yes"/>
			<point x="466" y="44"/>
			<point x="356" y="100"/>
			<point x="356" y="200" type="curve" smooth="yes"/>
			<point x="356" y="362"/>
			<point x="606" y="438"/>
			<point x="868" y="446" type="curve"/>
			<point x="868" y="418"/>
			<point x="868" y="378"/>
			<point x="888" y="314" type="curve"/>
			<point x="894" y="298"/>
			<point x="896" y="284"/>
			<point x="896" y="266" type="curve" smooth="yes"/>
			<point x="896" y="120"/>
			<point x="728" y="44"/>
		</contour>
		<contour>
			<point x="1050" y="512" type="line"/>
			<point x="1078" y="770"/>
			<point x="1272" y="830"/>
			<point x="1370" y="830" type="curve" smooth="yes"/>
			<point x="1620" y="830"/>
			<point x="1632" y="568"/>
			<point x="1634" y="512" type="curve"/>
		</contour>
	</outline>
</glyph>
<glyph name="oslash" format="2">
	<unicode hex="00F8"/>
	<advance width="1360"/>
	<outline>
		<contour>
			<point x="256" y="-214" type="line"/>
			<point x="430" y="28" type="line"/>
			<point x="536" y="-16"/>
			<point x="626" y="-22"/>
			<point x="680" y="-22" type="curve" smooth="yes"/>
			<point x="988" y="-22"/>
			<point x="1220" y="186"/>
			<point x="1220" y="426" type="curve" smooth="yes"/>
			<point x="1220" y="548"/>
			<point x="1160" y="704"/>
			<point x="994" y="808" type="curve"/>
			<point x="1158" y="1036" type="line"/>
			<point x="1104" y="1076" type="line"/>
			<point x="936" y="840" type="line"/>
			<point x="838" y="886"/>
			<point x="748" y="896"/>
			<point x="680" y="896" type="curve" smooth="yes"/>
			<point x="372" y="896"/>
			<point x="140" y="676"/>
			<point x="140" y="426" type="curve" smooth="yes"/>
			<point x="140" y="322"/>
			<point x="182" y="176"/>
			<point x="370" y="58" type="curve"/>
			<point x="202" y="-174" type="line"/>
		</contour>
		<contour>
			<point x="680" y="44" type="curve" smooth="yes"/>
			<point x="624" y="44"/>
			<point x="546" y="52"/>
			<point x="476" y="92" type="curve"/>
			<point x="940" y="736" type="line"/>
			<point x="988" y="690"/>
			<point x="1042" y="616"/>
			<point x="1042" y="428" type="curve" smooth="yes"/>
			<point x="1042" y="376"/>
			<point x="1042" y="231"/>
			<point x="944" y="135" type="curve" smooth="yes"/>
			<point x="891" y="82"/>
			<point x="808" y="44"/>
		</contour>
		<contour>
			<point x="420" y="130" type="line"/>
			<point x="324" y="218"/>
			<point x="318" y="354"/>
			<point x="318" y="428" type="curve" smooth="yes"/>
			<point x="318" y="494"/>
			<point x="322" y="618"/>
			<point x="394" y="708" type="curve" smooth="yes"/>
			<point x="464" y="796"/>
			<point x="578" y="830"/>
			<point x="680" y="830" type="curve" smooth="yes"/>
			<point x="752" y="830"/>
			<point x="824" y="814"/>
			<point x="888" y="776" type="curve"/>
		</contour>
	</outline>
</glyph>
<glyph name="dotlessi" format="2">
	<unicode hex="0131"/>
	<advance width="402"/>
	<outline>
		<contour>
			<point x="251" y="442" type="line"/>
			<point x="87" y="431" type="line"/>
			<point x="87" y="387" type="line"/>
			<point x="158" y="387"/>
			<point x="166" y="380"/>
			<point x="166" y="331" type="curve" smooth="yes"/>
			<point x="166" y="84" type="line" smooth="yes"/>
			<point x="166" y="53"/>
			<point x="166" y="44"/>
			<point x="101" y="44" type="curve" smooth="yes"/>
			<point x="83" y="44" type="line"/>
			<point x="83" y="0" type="line"/>
			<point x="124" y="3"/>
			<point x="166" y="4"/>
			<point x="207" y="4" type="curve" smooth="yes"/>
			<point x="245" y="4"/>
			<point x="289" y="3"/>
			<point x="326" y="0" type="curve"/>
			<point x="326" y="44" type="line"/>
			<point x="259" y="44"/>
			<point x="251" y="44"/>
			<point x="251" y="84" type="curve" smooth="yes"/>
		</contour>
	</outline>
</glyph>
<glyph name="OE" format="2">
	<unicode hex="0152"/>
	<advance width="2632"/>
	<outline>
		<contour>
			<point x="2506" y="542" type="line"/>
			<point x="2422" y="542" type="line"/>
			<point x="2366" y="226"/>
			<point x="2304" y="88"/>
			<point x="1940" y="88" type="curve" smooth="yes"/>
			<point x="1612" y="88" type="line" smooth="yes"/>
			<point x="1514" y="88"/>
			<point x="1514" y="102"/>
			<point x="1514" y="164" type="curve" smooth="yes"/>
			<point x="1514" y="666" type="line"/>
			<point x="1790" y="666" type="line" smooth="yes"/>
			<point x="1986" y="666"/>
			<point x="2062" y="634"/>
			<point x="2062" y="432" type="curve"/>
			<point x="2146" y="432" type="line"/>
			<point x="2146" y="988" type="line"/>
			<point x="2062" y="988" type="line"/>
			<point x="2062" y="786"/>
			<point x="1986" y="754"/>
			<point x="1790" y="754" type="curve" smooth="yes"/>
			<point x="1514" y="754" type="line"/>
			<point x="1514" y="1202" type="line" smooth="yes"/>
			<point x="1514" y="1264"/>
			<point x="1514" y="1278"/>
			<point x="1612" y="1278" type="curve" smooth="yes"/>
			<point x="1922" y="1278" type="line" smooth="yes"/>
			<point x="2260" y="1278"/>
			<point x="2316" y="1168"/>
			<point x="2354" y="890" type="curve"/>
			<point x="2438" y="890" type="line"/>
			<point x="2372" y="1366" type="line"/>
			<point x="1424" y="1366" type="line" smooth="yes"/>
			<point x="1392" y="1366"/>
			<point x="1344" y="1368"/>
			<point x="1240" y="1386" type="curve" smooth="yes"/>
			<point x="1132" y="1408"/>
			<point x="1090" y="1410"/>
			<point x="1044" y="1410" type="curve" smooth="yes"/>
			<point x="588" y="1410"/>
			<point x="216" y="1078"/>
			<point x="216" y="678" type="curve" smooth="yes"/>
			<point x="216" y="276"/>
			<point x="596" y="-44"/>
			<point x="1042" y="-44" type="curve" smooth="yes"/>
			<point x="1070" y="-44"/>
			<point x="1116" y="-44"/>
			<point x="1230" y="-24" type="curve" smooth="yes"/>
			<point x="1330" y="-4"/>
			<point x="1376" y="0"/>
			<point x="1424" y="0" type="curve" smooth="yes"/>
			<point x="2406" y="0" type="line"/>
		</contour>
		<contour>
			<point x="442" y="708" type="curve" smooth="yes"/>
			<point x="442" y="1050"/>
			<point x="700" y="1344"/>
			<point x="1058" y="1344" type="curve" smooth="yes"/>
			<point x="1294" y="1344"/>
			<point x="1322" y="1254"/>
			<point x="1326" y="962" type="curve" smooth="yes"/>
			<point x="1328" y="832"/>
			<point x="1328" y="828"/>
			<point x="1328" y="684" type="curve" smooth="yes"/>
			<point x="1328" y="426"/>
			<point x="1328" y="310"/>
			<point x="1318" y="242" type="curve" smooth="yes"/>
			<point x="1298" y="92"/>
			<point x="1262" y="22"/>
			<point x="1058" y="22" type="curve" smooth="yes"/>
			<point x="696" y="22"/>
			<point x="442" y="348"/>
		</contour>
	</outline>
</glyph>
<glyph name="oe" format="2">
	<unicode hex="0153"/>
	<advance width="2054"/>
	<outline>
		<contour>
			<point x="660" y="-22" type="curve" smooth="yes"/>
			<point x="830" y="-22"/>
			<point x="994" y="50"/>
			<point x="1100" y="182" type="curve"/>
			<point x="1184" y="72"/>
			<point x="1346" y="-22"/>
			<point x="1544" y="-22" type="curve" smooth="yes"/>
			<point x="1830" y="-22"/>
			<point x="1928" y="196"/>
			<point x="1928" y="238" type="curve" smooth="yes"/>
			<point x="1928" y="272"/>
			<point x="1896" y="272"/>
			<point x="1886" y="272" type="curve" smooth="yes"/>
			<point x="1854" y="272"/>
			<point x="1852" y="262"/>
			<point x="1840" y="236" type="curve"/>
			<point x="1790" y="104"/>
			<point x="1666" y="50"/>
			<point x="1554" y="50" type="curve" smooth="yes"/>
			<point x="1442" y="50"/>
			<point x="1186" y="112"/>
			<point x="1186" y="450" type="curve"/>
			<point x="1868" y="450" type="line" smooth="yes"/>
			<point x="1910" y="450"/>
			<point x="1928" y="450"/>
			<point x="1928" y="498" type="curve" smooth="yes"/>
			<point x="1928" y="672"/>
			<point x="1830" y="896"/>
			<point x="1514" y="896" type="curve" smooth="yes"/>
			<point x="1278" y="896"/>
			<point x="1140" y="758"/>
			<point x="1096" y="696" type="curve"/>
			<point x="1052" y="754"/>
			<point x="908" y="896"/>
			<point x="660" y="896" type="curve" smooth="yes"/>
			<point x="358" y="896"/>
			<point x="130" y="684"/>
			<point x="130" y="438" type="curve" smooth="yes"/>
			<point x="130" y="192"/>
			<point x="358" y="-22"/>
		</contour>
		<contour>
			<point x="660" y="44" type="curve" smooth="yes"/>
			<point x="556" y="44"/>
			<point x="314" y="100"/>
			<point x="314" y="446" type="curve" smooth="yes"/>
			<point x="314" y="790"/>
			<point x="572" y="830"/>
			<point x="660" y="830" type="curve" smooth="yes"/>
			<point x="752" y="830"/>
			<point x="1008" y="786"/>
			<point x="1008" y="446" type="curve" smooth="yes"/>
			<point x="1008" y="102"/>
			<point x="764" y="44"/>
		</contour>
		<contour>
			<point x="1190" y="512" type="line"/>
			<point x="1218" y="770"/>
			<point x="1412" y="830"/>
			<point x="1510" y="830" type="curve" smooth="yes"/>
			<point x="1760" y="830"/>
			<point x="1772" y="568"/>
			<point x="1774" y="512" type="curve"/>
		</contour>
	</outline>
</glyph>
<glyph name="circumflex" format="2">
	<unicode hex="02C6"/>
	<advance width="1360"/>
	<outline>
		<contour>
			<point x="680" y="1388" type="line"/>
			<point x="344" y="1126" type="line"/>
			<point x="392" y="1058" type="line"/>
			<point x="680" y="1254" type="line"/>
			<point x="966" y="1058" type="line"/>
			<point x="1018" y="1126" type="line"/>
		</contour>
	</outline>
</glyph>
<glyph name="caron" format="2">
	<unicode hex="02C7"/>
	<advance width="1360"/>
	<outline>
		<contour>
			<point x="680" y="1158" type="line"/>
			<point x="388" y="1294" type="line"/>
			<point x="348" y="1220" type="line"/>
			<point x="680" y="1026" type="line"/>
			<point x="1012" y="1218" type="line"/>
			<point x="972" y="1294" type="line"/>
		</contour>
	</outline>
</glyph>
<glyph name="breve" format="2">
	<unicode hex="02D8"/>
	<advance width="1360"/>
	<outline>
		<contour>
			<point x="994" y="1388" type="line"/>
			<point x="988" y="1210"/>
			<point x="814" y="1134"/>
			<point x="680" y="1134" type="curve" smooth="yes"/>
			<point x="544" y="1134"/>
			<point x="372" y="1212"/>
			<point x="366" y="1388" type="curve"/>
			<point x="300" y="1388" type="line"/>
			<point x="306" y="1160"/>
			<point x="498" y="1030"/>
			<point x="680" y="1030" type="curve" smooth="yes"/>
			<point x="862" y="1030"/>
			<point x="1054" y="1160"/>
			<point x="1060" y="1388" type="curve"/>
		</contour>
	</outline>
</glyph>
<glyph name="dotaccent" format="2">
	<unicode hex="02D9"/>
	<advance width="804"/>
	<outline>
		<contour>
			<point x="524" y="1232" type="curve" smooth="yes"/>
			<point x="524" y="1300"/>
			<point x="470" y="1354"/>
			<point x="402" y="1354" type="curve" smooth="yes"/>
			<point x="336" y="1354"/>
			<point x="280" y="1300"/>
			<point x="280" y="1232" type="curve" smooth="yes"/>
			<point x="280" y="1164"/>
			<point x="334" y="1110"/>
			<point x="402" y="1110" type="curve" smooth="yes"/>
			<point x="468" y="1110"/>
			<point x="524" y="1164"/>
		</contour>
	</outline>
</glyph>
<glyph name="ring" format="2">
	<unicode hex="02DA"/>
	<advance width="1960"/>
	<outline>
		<contour>
			<point x="1230" y="1256" type="curve" smooth="yes"/>
			<point x="1230" y="1352"/>
			<point x="1122" y="1432"/>
			<point x="980" y="1432" type="curve" smooth="yes"/>
			<point x="832" y="1432"/>
			<point x="730" y="1346"/>
			<point x="730" y="1258" type="curve" smooth="yes"/>
			<point x="730" y="1162"/>
			<point x="838" y="1082"/>
			<point x="980" y="1082" type="curve" smooth="yes"/>
			<point x="1128" y="1082"/>
			<point x="1230" y="1168"/>
		</contour>
		<contour>
			<point x="980" y="1148" type="curve" smooth="yes"/>
			<point x="918" y="1148"/>
			<point x="814" y="1148"/>
			<point x="814" y="1256" type="curve" smooth="yes"/>
			<point x="814" y="1366"/>
			<point x="916" y="1366"/>
			<point x="980" y="1366" type="curve" smooth="yes"/>
			<point x="1042" y="1366"/>
			<point x="1146" y="1366"/>
			<point x="1146" y="1258" type="curve" smooth="yes"/>
			<point x="1146" y="1148"/>
			<point x="1044" y="1148"/>
		</contour>
	</outline>
</glyph>
<glyph name="tilde" format="2">
	<unicode hex="02DC"/>
	<advance width="680"/>
	<outline>
		<contour>
			<point x="154" y="571" type="line"/>
			<point x="184" y="598"/>
			<point x="214" y="614"/>
			<point x="248" y="614" type="curve" smooth="yes"/>
			<point x="276" y="614"/>
			<point x="308" y="602"/>
			<point x="331" y="593" type="curve" smooth="yes"/>
			<point x="373" y="576"/>
			<point x="395" y="571"/>
			<point x="415" y="571" type="curve" smooth="yes"/>
			<point x="440.7894" y="571"/>
			<point x="460.6065349584" y="574.8005322992"/>
			<point x="498.8547530723" y="606.4048902063" type="curve" smooth="yes"/>
			<point x="512.51497928" y="617.6922834352"/>
			<point x="528.52616" y="632.52616"/>
			<point x="548" y="652" type="curve"/>
			<point x="526" y="676" type="line"/>
			<point x="496" y="649"/>
			<point x="466" y="633"/>
			<point x="432" y="633" type="curve" smooth="yes"/>
			<point x="404" y="633"/>
			<point x="372" y="645"/>
			<point x="349" y="654" type="curve" smooth="yes"/>
			<point x="307" y="671"/>
			<point x="285" y="676"/>
			<point x="265" y="676" type="curve" smooth="yes"/>
			<point x="240.99996" y="676"/>
			<point x="222.5844261496" y="672.011067036"/>
			<point x="194.3854837322" y="651.1846166728" type="curve" smooth="yes"/>
			<point x="177.9361750692" y="639.0359089196"/>
			<point x="158.15782" y="621.15782"/>
			<point x="132" y="595" type="curve"/>
		</contour>
	</outline>
</glyph>
<glyph name="hungarumlaut" format="2">
  <advance width="680"/>
  <unicode hex="02DD"/>
  <outline>
    <contour>
      <point x="185" y="531" type="line"/>
      <point x="219" y="506" type="line"/>
      <point x="328" y="619" type="line" smooth="yes"/>
      <point x="337" y="628"/>
      <point x="346" y="641"/>
      <point x="346" y="655" type="curve" smooth="yes"/>
      <point x="346" y="679"/>
      <point x="321" y="701"/>
      <point x="298" y="701" type="curve" smooth="yes"/>
      <point x="273" y="701"/>
      <point x="263" y="682"/>
      <point x="257" y="671" type="curve" smooth="yes"/>
    </contour>
    <contour>
      <point x="393" y="531" type="line"/>
      <point x="427" y="506" type="line"/>
      <point x="536" y="619" type="line" smooth="yes"/>
      <point x="545" y="628"/>
      <point x="554" y="641"/>
      <point x="554" y="655" type="curve" smooth="yes"/>
      <point x="554" y="679"/>
      <point x="529" y="701"/>
      <point x="506" y="701" type="curve" smooth="yes"/>
      <point x="481" y="701"/>
      <point x="471" y="682"/>
      <point x="465" y="671" type="curve" smooth="yes"/>
    </contour>
  </outline>
</glyph>
<glyph name="endash" format="2">
	<unicode hex="2013"/>
	<advance width="1360"/>
	<outline>
		<contour>
			<point x="1304" y="500" type="line"/>
			<point x="1304" y="566" type="line"/>
			<point x="56" y="566" type="line"/>
			<point x="56" y="500" type="line"/>
		</contour>
	</outline>
</glyph>
<glyph name="emdash" format="2">
	<unicode hex="2014"/>
	<advance width="2722"/>
	<outline>
		<contour>
			<point x="2608" y="500" type="line"/>
			<point x="2608" y="566" type="line"/>
			<point x="112" y="566" type="line"/>
			<point x="112" y="500" type="line"/>
		</contour>
	</outline>
</glyph>
<glyph name="quoteleft" format="2">
	<unicode hex="2018"/>
	<advance width="804"/>
	<outline>
		<contour>
			<point x="402" y="756" type="curve" smooth="yes"/>
			<point x="480" y="756"/>
			<point x="524" y="816"/>
			<point x="524" y="878" type="curve" smooth="yes"/>
			<point x="524" y="940"/>
			<point x="480" y="1000"/>
			<point x="402" y="1000" type="curve" smooth="yes"/>
			<point x="346" y="1000"/>
			<point x="314" y="966"/>
			<point x="312" y="964" type="curve"/>
			<point x="312" y="1102"/>
			<point x="370" y="1234"/>
			<point x="476" y="1320" type="curve" smooth="yes"/>
			<point x="500" y="1338"/>
			<point x="502" y="1340"/>
			<point x="502" y="1354" type="curve" smooth="yes"/>
			<point x="502" y="1372"/>
			<point x="482" y="1388"/>
			<point x="468" y="1388" type="curve" smooth="yes"/>
			<point x="438" y="1388"/>
			<point x="246" y="1232"/>
			<point x="246" y="982" type="curve" smooth="yes"/>
			<point x="246" y="852"/>
			<point x="306" y="756"/>
		</contour>
	</outline>
</glyph>
<glyph name="quoteright" format="2">
	<unicode hex="2019"/>
	<advance width="804"/>
	<outline>
		<contour>
			<point x="336" y="756" type="curve" smooth="yes"/>
			<point x="366" y="756"/>
			<point x="558" y="912"/>
			<point x="558" y="1162" type="curve" smooth="yes"/>
			<point x="558" y="1292"/>
			<point x="498" y="1388"/>
			<point x="402" y="1388" type="curve" smooth="yes"/>
			<point x="324" y="1388"/>
			<point x="280" y="1328"/>
			<point x="280" y="1266" type="curve" smooth="yes"/>
			<point x="280" y="1204"/>
			<point x="324" y="1144"/>
			<point x="402" y="1144" type="curve" smooth="yes"/>
			<point x="458" y="1144"/>
			<point x="490" y="1178"/>
			<point x="492" y="1180" type="curve"/>
			<point x="492" y="1042"/>
			<point x="434" y="910"/>
			<point x="328" y="824" type="curve" smooth="yes"/>
			<point x="304" y="806"/>
			<point x="302" y="804"/>
			<point x="302" y="790" type="curve" smooth="yes"/>
			<point x="302" y="772"/>
			<point x="322" y="756"/>
		</contour>
	</outline>
</glyph>
<glyph name="quotedblleft" format="2">
	<unicode hex="201C"/>
	<advance width="680"/>
	<outline>
		<contour>
			<point x="306" y="378" type="curve" smooth="yes"/>
			<point x="345" y="378"/>
			<point x="367" y="408"/>
			<point x="367" y="439" type="curve" smooth="yes"/>
			<point x="367" y="470"/>
			<point x="345" y="500"/>
			<point x="306" y="500" type="curve" smooth="yes"/>
			<point x="278" y="500"/>
			<point x="262" y="483"/>
			<point x="261" y="482" type="curve"/>
			<point x="261" y="551"/>
			<point x="290" y="617"/>
			<point x="343" y="660" type="curve" smooth="yes"/>
			<point x="355" y="669"/>
			<point x="356" y="670"/>
			<point x="356" y="677" type="curve" smooth="yes"/>
			<point x="356" y="686"/>
			<point x="346" y="694"/>
			<point x="339" y="694" type="curve" smooth="yes"/>
			<point x="324" y="694"/>
			<point x="228" y="616"/>
			<point x="228" y="491" type="curve" smooth="yes"/>
			<point x="228" y="426"/>
			<point x="258" y="378"/>
		</contour>
		<contour>
			<point x="549" y="378" type="curve" smooth="yes"/>
			<point x="588" y="378"/>
			<point x="610" y="408"/>
			<point x="610" y="439" type="curve" smooth="yes"/>
			<point x="610" y="470"/>
			<point x="588" y="500"/>
			<point x="549" y="500" type="curve" smooth="yes"/>
			<point x="521" y="500"/>
			<point x="505" y="483"/>
			<point x="504" y="482" type="curve"/>
			<point x="504" y="551"/>
			<point x="533" y="617"/>
			<point x="586" y="660" type="curve" smooth="yes"/>
			<point x="598" y="669"/>
			<point x="599" y="670"/>
			<point x="599" y="677" type="curve" smooth="yes"/>
			<point x="599" y="686"/>
			<point x="589" y="694"/>
			<point x="582" y="694" type="curve" smooth="yes"/>
			<point x="567" y="694"/>
			<point x="471" y="616"/>
			<point x="471" y="491" type="curve" smooth="yes"/>
			<point x="471" y="426"/>
			<point x="501" y="378"/>
		</contour>
	</outline>
</glyph>
<glyph name="quotedblright" format="2">
	<unicode hex="201D"/>
	<advance width="1360"/>
	<outline>
		<contour>
			<point x="196" y="756" type="curve" smooth="yes"/>
			<point x="226" y="756"/>
			<point x="418" y="912"/>
			<point x="418" y="1162" type="curve" smooth="yes"/>
			<point x="418" y="1292"/>
			<point x="358" y="1388"/>
			<point x="262" y="1388" type="curve" smooth="yes"/>
			<point x="184" y="1388"/>
			<point x="140" y="1328"/>
			<point x="140" y="1266" type="curve" smooth="yes"/>
			<point x="140" y="1204"/>
			<point x="184" y="1144"/>
			<point x="262" y="1144" type="curve" smooth="yes"/>
			<point x="318" y="1144"/>
			<point x="350" y="1178"/>
			<point x="352" y="1180" type="curve"/>
			<point x="352" y="1042"/>
			<point x="294" y="910"/>
			<point x="188" y="824" type="curve" smooth="yes"/>
			<point x="164" y="806"/>
			<point x="162" y="804"/>
			<point x="162" y="790" type="curve" smooth="yes"/>
			<point x="162" y="772"/>
			<point x="182" y="756"/>
		</contour>
		<contour>
			<point x="682" y="756" type="curve" smooth="yes"/>
			<point x="712" y="756"/>
			<point x="904" y="912"/>
			<point x="904" y="1162" type="curve" smooth="yes"/>
			<point x="904" y="1292"/>
			<point x="844" y="1388"/>
			<point x="748" y="1388" type="curve" smooth="yes"/>
			<point x="670" y="1388"/>
			<point x="626" y="1328"/>
			<point x="626" y="1266" type="curve" smooth="yes"/>
			<point x="626" y="1204"/>
			<point x="670" y="1144"/>
			<point x="748" y="1144" type="curve" smooth="yes"/>
			<point x="804" y="1144"/>
			<point x="836" y="1178"/>
			<point x="838" y="1180" type="curve"/>
			<point x="838" y="1042"/>
			<point x="780" y="910"/>
			<point x="674" y="824" type="curve" smooth="yes"/>
			<point x="650" y="806"/>
			<point x="648" y="804"/>
			<point x="648" y="790" type="curve" smooth="yes"/>
			<point x="648" y="772"/>
			<point x="668" y="756"/>
		</contour>
	</outline>
</glyph>
